<svg width="400" height="388" fill="none" xmlns="http://www.w3.org/2000/svg"><g clip-path="url(#clip0)"><path d="M353.801 217.239c-.938-4.296-2.736-8.202-3.987-12.42-1.407-4.609-2.501-9.452-4.455-13.826-3.596-8.124-9.303-14.764-13.993-22.107-2.58-4.14-4.847-8.515-6.332-13.28-1.563-4.999-1.954-10.233-2.736-15.389-.703-4.843-1.485-9.686-1.641-14.607-.157-5.781.547-11.483.703-17.186.157-7.264.078-16.873-5.472-21.95-5.003-4.609-12.273-6.874-18.448-6.874-8.599 0-17.588 3.203-26.187 1.562-8.599-1.64-14.462-6.952-20.403-13.983-5.55-6.561-11.804-12.42-19.386-15.7-7.426-3.204-15.869-4.532-23.764-4.688-8.208-.156-15.869 1.719-22.982 6.171-7.427 4.765-13.68 11.327-20.872 16.483-7.504 5.39-14.071 12.342-21.731 17.576-7.505 5.233-16.025 8.592-24.702 10.467-4.065.86-8.287 1.64-12.508 1.719-4.69.156-9.302-.313-13.992.312-8.052 1.016-14.227 6.874-20.872 11.405-3.361 2.344-6.097 4.687-8.52 8.28-2.346 3.594-4.847 7.031-7.192 10.624-4.847 7.421-8.52 15.076-11.335 23.825-2.502 7.968-4.847 15.467-3.908 24.138 1.016 8.905 4.142 16.717 7.895 24.606 1.798 3.828 3.596 7.656 5.55 11.483 2.345 4.765 5.16 9.296 6.8 14.374 1.642 4.843 2.424 9.92 2.971 14.998.313 2.578.782 5.077.47 7.655-.392 3.281-1.799 6.328-3.128 9.218-3.517 7.421-8.207 14.139-10.318 22.419-1.016 3.75-1.095 8.124-1.33 12.03-.234 3.749-.234 7.577.548 11.248 3.596 5.781 7.895 11.015 12.82 15.389 10.71 9.53 24.311 10.702 37.444 6.015 12.273-4.374 22.904-12.342 35.02-17.263 11.804-4.844 24.468-7.734 37.21-6.797 12.507.938 24.233 5.781 35.489 11.093 12.351 5.859 24.311 12.655 37.288 17.185 10.944 3.906 22.357 6.406 33.613 2.5 3.283-1.172 6.254-2.656 9.224-4.374 1.798-3.75 3.049-7.656 4.378-11.562 1.72-4.765 4.221-8.983 5.941-13.748 1.72-4.921 4.065-8.827 6.488-13.28 2.423-4.452 4.69-8.827 7.583-12.889 5.237-7.499 11.491-15.466 18.448-21.013 6.566-5.312 12.585-10.467 17.667-17.576 4.768-6.874 8.52-13.045 6.644-22.263z" fill="#FFD1C7"/><path opacity=".1" d="M269.533 353.942c-11.335-2.11-25.093-2.734-37.287-3.594-14.149-.937-28.376-1.093-42.682-1.406-14.07-.312-28.141-.703-42.212-.859-14.931-.156-29.861-.547-44.792-.547-14.462 0-28.845.859-43.228 1.484-13.055.547-26.031 1.485-38.07 3.672-4.846.859-9.77 1.875-14.383 2.89-2.189.469-5.628 1.25-6.488 2.265-2.502 3.047 11.178 3.75 15.79 4.062 13.368.86 26.891 1.641 40.493 1.953 34.473.781 69.416.781 103.967.313 15.009-.156 30.487-.391 45.183-1.719 10.866-.937 21.731-1.64 32.519-2.578 10.944-.078 25.405.157 35.411-1.796 7.348-1.25.157-3.359-4.221-4.14zM399.062 378.782c-2.032-1.015-5.941-1.171-8.755-1.406-5.159-.468-10.319-.781-15.556-1.172-19.387-1.327-39.32-1.249-58.863-1.328-10.24-.078-20.559-.312-30.721-.078-7.27.157-14.54.391-21.731.703-3.753-.078-7.583-.078-11.335-.156-9.928-.078-19.777-.547-29.705-.469-9.381.079-18.527.704-27.594 1.641-8.599.937-17.276 1.875-25.25 3.671-1.641.391-5.159.86-5.706 1.875-.547.938 1.72 1.797 3.205 2.265 5.941 2.031 14.54 2.578 21.732 2.735 9.849.312 19.699.546 29.626.781 18.449.39 36.819-.235 55.189-.469 3.987 0 8.051 0 12.038-.078 1.564 0 3.127-.078 4.69-.078 16.651-.313 33.223-.86 49.873-1.328 9.146-.235 18.136-.156 27.282-.703 4.456-.235 8.99-.547 13.367-.938 4.143-.39 8.912-.703 12.82-1.484 3.127-.625 8.521-2.421 5.394-3.984z" fill="#04213E"/><path d="M54.25 321.992c-.703-.624-1.797-.624-2.579-.781-2.11-.39-4.3-.781-6.41-1.328-4.378-1.015-8.833-2.343-13.133-3.671-4.143-1.328-7.191-4.375-11.1-5.781-2.658-.937-5.628-.546-7.739 1.485-3.674 3.593-4.221 9.217-.547 12.576-.156.703-.313 1.406-.547 2.109-1.72 5.39-2.19 10.155-2.267 15.467-.078.469-.157 1.016-.235 1.484-.39 3.047-.547 6.64-.312 9.687 0 .156 0 .39.078.546-.704 4.297 4.456 7.031 8.599 7.343 3.36.235 6.879.313 10.005-1.25.235-.156.47-.234.782-.39.156.078.391.156.547.078 1.486-.234 3.127-2.187 3.518-3.515.547-1.797-.704-3.672-2.267-4.453-.547-.312-1.25-.39-1.876-.468-.938-.625-1.876-1.25-2.658-1.875-.469-.391-.782-.781-1.172-1.172-2.033-3.906-3.05-8.749-2.346-12.655.704-1.093 1.33-2.265 2.111-3.281 2.501-1.171 4.612-2.499 7.817-2.499.86 0 1.954.156 3.049.156 1.329.312 2.658.547 3.908.859 3.44.703 7.036 2.109 10.553 2.422 1.33.078 2.502 0 3.284-1.016 1.094-.546 1.328-1.484 1.485-3.124.234-2.031 1.094-5.468-.547-6.953z" fill="#82DBED"/><path d="M261.56 245.283c.469-3.515.156-6.093-.235-9.53-.547-5.156-1.094-9.999-5.081-13.749-3.909-3.671-9.381-6.639-14.696-7.577-7.505-1.25-15.4-.703-23.061-.703h-25.64c-3.83 0-7.426.235-11.256.625-3.44.391-6.801.156-10.319.781-2.97.469-6.097 1.172-9.146 1.484-1.094-.078-2.11 0-3.127.157-1.563 0-3.126-.157-4.612-.078h-.234c-1.642-.469-3.361-.86-5.081-1.25-6.254-1.25-12.429-1.094-18.761-1.094-5.785 0-11.648-.625-17.198 1.484-4.299 1.641-8.52 4.531-11.256 8.281-3.05 4.14-3.909 9.608-4.222 14.685-.312 5.468.235 10.624 2.111 15.78 1.407 3.827 2.267 7.811 5.55 10.389-.234 2.187-.703 4.374-1.172 6.562-.157.156-.313.312-.313.547 0 .156 0 .39.078.546 0 .157-.078.313-.078.469-.938 4.765-1.876 7.89.234 12.342 3.049 6.25-1.25 12.811-.703 19.451 0 .469.078.859.078 1.25-.156.937-.234 1.875-.156 2.812.078.547.156 1.172.391 1.719-4.612 0-8.677 1.406-13.055 3.124-6.254 2.422-12.195 2.5-18.84 1.641-5.471-.703-10.865-2.578-16.493-2.734-5.003-.157-8.052 2.343-12.273 4.53-3.674 1.875-6.02 4.609-8.286 8.202-1.954 3.203-1.485 5.781 1.329 8.281 2.736 2.421 6.566 5.546 10.24 6.171 5.707 1.093 11.179-1.562 17.041.156 4.847 1.406 8.677 5.624 13.993 5.312 6.02-.313 11.647-2.734 17.745-1.25 5.394 1.328 10.787 4.921 15.634 7.499 3.361 1.797 8.599 2.031 12.195.938.938-.313 1.641-.625 2.267-1.406.39-.547.469-1.094.781-1.641 1.016-1.797 2.189-2.578 3.752-3.749 2.971-2.266 3.753-5.312 3.284-8.828-.313-2.577-.782-4.999-.626-7.577.235-3.437 1.642-6.405 2.736-9.608.704-2.109 1.485-4.531 1.251-6.796-.078-.937-.235-2.031-.391-3.047.156-.468.235-.937.391-1.327 1.407-5.39 1.876-10.702 1.251-16.17.86-1.485 1.719-2.969 2.423-4.609 1.954-4.531 1.72-9.062 1.563-13.749.313-.703.626-1.484.938-2.187 1.173-3.046 2.736-6.015 3.518-9.217.391-1.563.391-3.281.547-5 1.486-.234 2.893-.469 4.378-.625 2.501.391 5.081 1.406 7.27 1.563 1.641.156 3.283.078 4.846-.235.313 0 .626 0 .938-.078 3.518-.234 6.723-1.797 9.928-3.203 3.674-.39 7.348-.859 10.944-1.406.156.078.235.078.391.156 2.736 1.094 5.394 2.422 8.364 2.578 2.971.235 5.707-.937 8.364-2.109 2.502-1.172 4.847-2.421 7.27-3.671h2.893c2.345 0 4.612.156 6.957-.156.156 0 .234 0 .391-.079.312.079.703.157 1.016.235.313.156.625.39.938.547.078.078.234.156.313.234-.235.469 0 1.172.625 1.094h.078c-.078.312-.078.703-.078 1.015-.86 2.89-1.173 6.015-1.329 8.749-.156 2.656-.313 5.156.235 7.812.625 3.046 2.579 6.405 2.501 9.53 0 .625-.078 1.328-.234 2.031a19.361 19.361 0 0 0-.704 2.89c-.469 1.718-1.016 3.359-1.329 4.843-.547 2.656-.86 4.999-.547 7.734.391 3.202 1.172 6.405 2.58 9.373-.235 2.656.469 5.156 1.485 7.89.234.625.391 1.328.469 2.031-.157 3.359-.313 6.64-.547 10.077-.235 3.359-1.017 7.421 2.814 8.983 3.596 1.484 8.208-.39 11.022-2.656.625-.468 1.172-1.015 1.72-1.64 1.016-.313 1.876-.937 2.423-1.953.469-.781.625-1.64.703-2.578 1.095-1.953 1.955-4.062 2.58-6.171.235-.312.469-.703.704-1.094 1.485-2.734 1.016-5.624.938-8.592.078-.547.156-1.016.234-1.563.313-1.562.704-3.124 1.016-4.687.704-1.093 1.72-2.187 2.189-3.437.626-1.64.704-3.28.782-5.077 0-1.641-.235-3.203-.547-4.843.86-5 1.876-9.999 3.205-14.998.312-1.094.547-2.266.86-3.359.469-1.016.938-2.11 1.407-3.125 1.563-3.281 3.361-6.718 3.048-10.389-.078-1.172-.391-2.344-.781-3.438.078-.468.234-.937.312-1.406.86-2.968 1.486-6.014 1.955-9.139zM275.396 81.865c-1.095-.703-2.267-.312-3.362.156-2.657.938-5.003 2.5-7.739 3.437-2.814.938-5.55.782-8.364 1.328a4.524 4.524 0 0 0-1.641.547c-.313-.156-.548-.312-.86-.312a.708.708 0 0 0-.547.234 6.726 6.726 0 0 0-1.408-1.093c-.469-.235-1.25.078-1.172.624.078.625.391 1.25.782 1.797.39.547.86 1.016 1.485 1.406.391.313.782.547 1.172.86.157.078.235.156.391.156 1.486 1.328 2.814 2.421 3.596 4.53.782 2.11 1.173 4.219 1.485 6.484.313 2.343.782 5.156 3.127 6.405 2.502 1.328 4.143-.781 4.847-2.812 1.172-3.124.078-2.734 4.456-4.14.469-.156 1.016-.156 1.485-.39 1.016-.703 1.407-2.11 1.407-3.281 0-.86-.391-1.953-.391-2.813.235-3.827.313-.546 1.173-1.952.703-1.094 1.094-1.484 1.407-2.969.625-2.187.938-6.796-1.329-8.202z" fill="#04213E"/><path d="M279.773 120.689c-.547-1.953-1.407-3.828-2.579-4.922-2.033.938-4.3 1.25-6.488 1.875-2.267 1.406-4.222 3.359-6.332 5.078-.313.312-.626.703-.938 1.015a20460.11 20460.11 0 0 0-4.456 5.156c-1.251 1.406-2.971 2.421-4.299 3.749-2.346 2.422-3.284 6.015-5.082 8.905-.703 1.172-2.657 2.813-3.517 4.453.938-4.062 3.908-8.202 5.315-11.874.782-1.953 1.564-3.827 2.033-5.858 1.798-3.515 2.892-7.812 3.752-11.483.547-2.422.234-4.765.391-7.187.234-3.125 1.876-5.859 2.189-8.905.312-2.734-.782-5.234-2.502-7.265-.469-.703-1.172-1.25-1.72-1.797-.859-.859-1.719-1.718-2.814-2.343-.391-.39-.781-.703-1.172-1.015l-.469-1.406c-.079-.235-.235-.313-.391-.47-.157-.155-.391-.155-.626-.155-.39-.079-.781.156-.781.625-.078 0-.157 0-.235.078-.156 0-.312 0-.469.078-.469 0-.938.625-.625 1.171 0 .079.078.079.078.157-1.407 1.562-2.111 3.515-2.97 5.39-.157.39-.001.78.234 1.015l-1.173 1.64c-2.345 3.438-4.768 6.797-7.113 10.234v-.235c0-3.124 1.172-6.483 1.329-9.608.234-3.984 1.172-10.702-2.423-13.592-4.065-3.28-9.928-7.42-15.322-7.577-3.283-.078-6.41.937-9.615 1.406-3.205.547-6.175 1.328-9.068 2.656a62.115 62.115 0 0 0-15.712 10.311c-2.502 2.265-5.316 4.062-7.974 6.171a169.745 169.745 0 0 1-8.442 6.328c-2.501 1.718-4.456 3.983-7.035 5.624-2.58 1.718-4.769 3.749-7.348 5.546-2.893 2.031-5.629 4.453-8.599 6.327-2.502 1.641-4.612 3.438-6.567 5.625-2.345 2.578-4.69 5.234-7.113 7.733-2.111 2.266-4.847 5.312-5.628 8.359-.079.234 0 .468.078.625-1.329 2.421-2.971 4.686-4.378 7.108-2.579 4.453-4.612 9.061-6.957 13.592-2.032 3.828-3.674 7.89-5.706 11.717-2.502 4.922-5.082 9.921-7.192 14.999-1.642 3.749-2.58 7.733-3.83 11.639-1.408 4.296-2.737 8.749-2.971 13.28-.47 7.186 5.316 12.498 11.804 14.763 3.048 1.094 6.019.157 8.677-1.328 1.798-.937 3.517-2.109 5.315-2.968 1.955-1.015 3.987-1.953 6.254-.937 1.016.468 1.876 1.328 2.814 1.953 2.814 1.952 4.769 3.905 8.286 4.14 4.065.234 7.192-1.797 10.319-4.219 2.189-1.64 4.143-3.437 6.957-3.749 2.032-.234 4.456.39 6.41 1.015 1.407.391 2.736 1.094 4.221 1.25 1.876.235 2.033-.234 3.44-.859 3.127-1.484 6.332.547 9.615-.078 2.501 1.796 5.315 3.124 8.13 4.374 5.706 2.578 12.507 5.625 15.868-1.796 1.016-2.266 2.658-5 2.345-7.578-.312-2.89-2.736-3.437-5.159-4.53-1.876-.938-3.752-1.406-4.925-3.281-.781-1.172-1.25-2.422-2.11-3.593-1.173-1.563-2.111-3.203-2.893-4.844.235-2.187 1.017-3.905 1.955-5.936 1.016-2.11 2.11-4.062 3.283-6.093.938-1.641 1.094-3.281 1.329-5.078.469-3.749 2.345-6.484 4.924-9.218 1.486-1.562 3.049-3.202 4.691-4.686.078.078.234.078.391.078h.39c4.065-.235 7.661-3.047 10.71-5.468 1.72-1.407 3.361-2.813 4.925-4.375-.782 2.656-1.251 5.312-1.251 8.124-.078 6.015-.391 11.405 5.628 14.764 4.69 2.656 10.084-.547 13.68-3.593 4.612-3.828 8.99-8.827 12.507-13.593 1.876-2.499 4.143-4.843 6.254-7.108 2.423-2.656 2.267-5.781 4.065-8.827 1.798-2.89 4.925-4.687 7.113-7.187 2.033-2.421 4.065-5.077 5.472-7.968 1.095-2.265 2.58-4.296 2.58-6.796.235-3.124 0-5.936-.782-8.748z" fill="#0DCEB2"/><path d="M277.663 48.744c-4.691-3.593-11.804-6.718-17.823-6.562-3.596.079-7.974 1.172-11.1 3.047-2.189 1.328-3.596 3.28-5.082 5.234-.547 1.718-.938 3.437-1.329 5.233-1.172 3.203-2.423 6.484-3.83 9.609-1.563 3.437-3.283 7.343-5.472 10.623-1.798.625-3.518 1.328-5.315 2.11 2.579 2.187 3.517 7.108 4.299 9.92a113.75 113.75 0 0 1 3.205 18.435c.078.079.078.079.078.157.938 2.421 5.003-4.14 5.628-5 1.486-2.109 2.815-4.218 4.143-6.405 1.173-1.953 2.736-6.562 5.082-7.655.39-.235.781-.235 1.172-.235-.078-.078-.156-.078-.234-.156.156-.078.312-.078.469-.078.156 0 .312-.078.469-.078H252.257c.391.078.782.078 1.251 0h.078c1.954 1.015 4.456 1.484 6.723 1.64 5.628-.39 9.068-3.593 12.585-7.655.157-.234.391-.234.547-.234 1.72-1.094 3.205-2.422 4.691-3.906.781-3.36 1.172-6.874 2.032-10.077 1.72-6.484 3.518-13.358-2.501-17.967z" fill="#F2766C"/><path d="M264.061 60.852c.078-.234.078-.469-.156-.703-.626-.625-1.486-.703-2.111 0-.469.547-.703 1.484-.313 2.187.391.625 1.173.781 1.72.39.704-.39 1.016-1.093.86-1.874 0 .078.078.078 0 0zM274.301 63.274h-.156c-.547-.157-.938.312-.938.703-.313.468-.704.859-.938 1.328-.625.937-.938 1.952-1.485 2.968-.626 1.094-1.251 2.11-1.876 3.203-.548.937-.782 1.953-1.876 1.562-1.408-.469-.548-1.328-.079-2.343.469-1.016.938-2.031 1.486-2.969.547-.86.938-1.64 1.328-2.5.157-.234.704-1.718.939-1.952.781-.547 0-1.875-.782-1.328-.782.625-1.095 1.64-1.564 2.578-.703 1.327-1.485 2.655-2.188 4.061-1.017 2.032-2.814 4.297-.235 5.703 2.111 1.172 2.971.234 4.065-1.719 1.485-2.734 3.361-5.312 4.612-8.046.391-.546.235-1.093-.313-1.25zM262.81 40.698c-3.908-1.797-7.348-4.53-11.647-5.312-.078 0-.078 0-.157-.078-.938.157-1.641.469-2.266 1.25-.079.156-.235.313-.313.469-1.095-.157-2.189.078-3.049.703-1.172.86-1.485 2.656-2.501 3.671-.547.078-1.095.156-1.329.235-.235.078-.469.234-.704.39-1.25-.234-2.579-1.094-3.752-.86-2.423.47-3.283 2.657-3.205 4.844 0 .313.078.781.156 1.328-.859.547-1.485 1.172-1.797 2.422-.235-.235-.47-.47-.86-.625-1.876-.625-2.658-1.64-4.769-1.484-2.501.156-5.003 1.171-5.159 3.983-.156 1.719.703 3.438.703 5.156a5.9 5.9 0 0 1-.859 1.094c-.782.78-2.111 1.796-3.127 2.968-.86.156-1.798.234-2.658.469-2.58.859-3.596 2.265-2.814 4.843.469 1.562 1.485 3.671 2.423 5 0 0 2.502 2.03 3.361 3.514-.234.938-.547 1.875-.312 2.89.312 1.485 1.25 2.266 2.579 2.032.391-.078.626-.39 1.017-.547.938-.313 2.579-1.016 3.361.312.391.547-.078 2.031.391 2.813 1.016 1.562 2.814 1.171 4.143.234.782-.547 1.485-1.953 2.423-1.64.391.156.626 1.171 1.329 1.484.625.234 1.173.156 1.642-.156.625.234 1.25.312 1.798 0 .859-.47 1.172-1.641 1.407-2.735 3.048.079 3.674-2.968 4.455-5.936.469-.313.938-.703 1.251-1.094.547-.781.625-1.406.938-2.265.235-.469.391-1.016.547-1.484 1.955-1.329 4.456-1.329 6.098-3.516.625-.78 1.016-1.718 1.329-2.734.469-.312.938-.703 1.328-1.25 1.017-1.406 1.173-2.187 2.502-3.437.625-.547.782-.547 1.251-1.328 1.016-1.64 1.25-2.03 2.579-3.28 1.251-1.172 2.189-2.422 3.518-3.516a17.874 17.874 0 0 0 1.72-1.718c.86-.938 1.876-1.485 2.892-2.11.704-.468 1.329-.937 1.876-1.484-2.579-1.328-5.159-2.265-7.739-3.515zM261.872 90.692c-2.736-.234-5.628-1.953-8.051-3.75-.235-.156-.548-.234-.782-.39-1.251-.469-2.111-1.406-2.971-2.578-.078-.078-.234-.156-.312-.234-1.095-1.25-2.033-2.578-2.971-3.906-.547-.781-1.876-.078-1.329.781.079.157.157.235.235.39v.079c.469.703 1.016 1.484 1.563 2.11 1.642 2.186 3.596 4.14 5.863 5.545.391.313.782.547 1.251.86.078.078.234.156.313.234 2.188 1.328 4.69 2.421 7.035 2.656 1.329 0 1.329-1.719.156-1.797z" fill="#04213E"/><path d="M271.565 75.772c-2.814.703-5.003.86-7.348-.86-1.954-1.327-3.126-2.811-4.143-4.999-.391-.78-1.485-.078-1.172.625 1.25 2.578 2.814 4.375 5.159 5.937 2.501 1.563 5.159 1.25 7.817.547.86-.234.547-1.484-.313-1.25z" fill="#04213E"/><path d="M303.381 61.946c-.547-.39-1.016-.703-1.564-1.094-1.876-.937-3.908-1.64-5.55-2.343-2.892-1.172-5.706-2.578-8.286-4.297-.078-.078-.156-.078-.234-.156.312-2.11.625-4.296.938-6.405.625-1.719 1.485-3.438 2.189-5a60.311 60.311 0 0 0 2.501-7.187c1.251-4.686 1.798-9.53 2.892-14.295 1.72-7.343 2.814-20.075-7.739-21.09-3.908-.391-8.598 1.483-11.725 3.749-3.205 2.265-6.176 5.077-8.99 7.89-1.251 1.718-2.501 3.436-3.674 5.155-3.908 5.468-7.895 10.858-11.491 16.56-2.345 3.672-4.065 2.813-7.661.938-2.814-1.484-5.862-2.734-8.833-3.906-.938-.39-1.876-.86-2.892-1.172-1.251-.312-2.58-.468-3.518.079-1.173.703-1.329 1.484-1.016 2.343 7.973 3.515 15.399 8.436 23.138 12.42 7.896 3.984 16.416 6.796 24.468 10.468 4.534 2.03 8.911 4.452 13.289 6.796.234.156.547.312.782.39.703.313 1.328.547 2.032.86 3.049 1.25 5.785 2.265 8.99 2.89 1.094.234 2.97 1.016 3.752-.234.86-1.485-.938-2.813-1.798-3.36z" fill="#82DBED"/><path d="M268.986 39.683l-.157-.157c-3.674-1.328-7.113-2.812-10.709-4.296-1.876-.781-3.83-1.25-5.628-2.187-.938 1.015-1.798 1.953-2.893 2.812 2.267 1.406 4.612 2.578 7.036 3.671 1.016.313 1.876.547 2.501.782 2.736 1.093 5.55 1.953 8.286 3.124 2.58 1.094 4.691 2.656 7.192 3.906 2.032 1.015 4.221 1.875 6.332 2.734 1.876.703 4.456 1.875 6.488 1.875.469 0 1.173-.313 1.876-.86.078-.078.078-.156.156-.234.235-.547.47-1.172.704-1.718-6.957-3.36-14.852-5-21.184-9.452z" fill="#04213E"/><path d="M262.81 350.661c-2.188-.235-4.534.469-6.801.39-3.674-.078-7.035-.859-10.318-2.656-3.909-2.109-7.739-5.936-6.879-10.779.469-2.578 1.798-4.609 1.563-7.343-.078-.86-1.329-.938-1.485-.157-2.423-1.796-6.41-1.171-8.911 0-.704.313-1.251.782-1.564 1.407-.391-.079-.938.156-.938.781 0 5.312-2.501 11.405-4.456 16.248-.312.703-.547 1.484-.625 2.187-.235 0-.469.078-.547.391 0 .078 0 .156-.078.156v.078c-.079.312-.157.703-.157 1.015-.469 2.344-1.485 4.765-1.016 7.109.391 1.797 2.267 2.968 3.909 3.593 1.876.703 4.533.156 6.331-.625.626-.312 1.329-.625 2.033-1.015 1.954.625 3.987 1.093 5.628 1.64 5.472 1.641 10.944 2.656 16.494 1.094 3.831-1.094 9.615-3.359 10.944-7.734.782-2.421-.469-5.546-3.127-5.78z" fill="#82DBED"/><path d="M229.119 223.645c2.267-.313 4.455-.078 6.488.547 1.016.234 1.954.546 2.814 1.015.078.078.234.156.313.156.469.235 1.016.469 1.485.703.782.391 1.798.938 2.736 1.485.156-.079.313-.157.469-.157.86-.39 1.407-.937 1.485-1.484 0-.859-.469-1.64-1.094-2.343-.547-.313-1.095-.625-1.72-.86-.234-.156-.547-.234-.86-.312-1.798-1.64-4.925-2.656-7.113-2.968a14.348 14.348 0 0 0-4.847.156c-.391.078-.86.234-1.251.312 0-.39.157-.781.704-.937 4.299-1.328 10.631-.156 14.852 2.187 1.955-1.015.469-2.968-.938-3.671-2.189-1.25-5.941-1.485-8.677-1.563-.547-.078-1.094-.078-1.72-.078-.859 0-1.641.078-2.501.235-.469.078-1.642.468-2.501.625 0-.391.234-.704.39-1.016v-.078c1.329-.469 2.971-.937 3.596-1.016 3.283-.625 6.332-.156 9.537.313.547.469 1.798.312 1.876-.625v-.156a.886.886 0 0 0-.234-.625c-1.251-2.266-7.505-1.797-9.537-1.719-3.596.156-7.27 1.094-10.553 2.578-.391 0-.704 0-1.016.078l1.172-.937c1.564-1.25 3.361-2.344 5.316-2.734.938-.235.781-1.875-.235-1.719h-.312c-3.909.547-8.365 3.047-11.101 6.328l-.469.234c-.938.312-1.876.703-2.814 1.015-.703.235-1.407.391-2.11.547-1.017-.078-2.033-.234-3.049-.39h-.391c-.078 0-.156 0-.235.078-1.172.39-1.876 1.328-2.501 2.187-1.173 1.562-2.267 3.203-2.97 4.921-.47 1.094-1.408 3.203-.704 4.297 0 .234.078.468.391.625 3.908 2.89 11.256 3.124 16.103 2.499 4.925-.625 10.24-3.046 15.243-2.265a6.182 6.182 0 0 1 1.72.469c1.407.156 2.58.703 3.83 1.406.782.39 4.378 2.265 5.472 1.328 1.72-1.563-3.595-4.062-4.612-4.609-2.892-1.563-6.019-2.734-9.458-2.266-.548.079-.938-.156-1.173-.468-.469 0-.86 0-.938-.156.235-.079.469-.157.782-.313.078-.312.234-.703.86-.859z" fill="#F2766C"/><path d="M320.813 359.878c-.547-1.64-.938-3.437-2.032-4.843-1.095-1.484-2.502-2.109-4.143-2.89-1.877-.859-3.909-1.25-6.02-1.406-1.016-.078-2.188-.156-3.205.078-1.094.156-2.11.703-3.205 1.015-3.283.938-6.41 3.594-7.582 6.718-1.095 1.485-1.955 3.203-2.267 5.078-.547 3.515.469 7.733 2.501 10.702 2.111 3.046 5.316 4.843 9.068 5.468 1.954.312 3.83.703 5.863.547 1.876-.157 3.518-.782 5.237-1.563 1.486-.625 3.127-1.484 4.065-2.812 1.095-1.484 1.564-3.359 2.111-5.077 1.172-3.594.782-7.578-.391-11.015zM222.318 361.831c-.547-1.64-.938-3.437-2.033-4.843-1.094-1.484-2.501-2.109-4.143-2.89-1.876-.86-3.908-1.25-6.019-1.406-1.016-.078-2.189-.157-3.205.078-1.094.156-2.11.703-3.205 1.015-3.283.938-6.41 3.594-7.582 6.718-1.095 1.484-1.955 3.203-2.267 5.078-.548 3.515.469 7.733 2.501 10.702 2.111 3.046 5.316 4.843 9.068 5.468 1.954.312 3.83.703 5.863.546 1.876-.156 3.517-.781 5.237-1.562 1.485-.625 3.127-1.484 4.065-2.812 1.094-1.484 1.563-3.359 2.111-5.078 1.172-3.593.781-7.577-.391-11.014z" fill="#7F143F"/><path d="M395.779 348.63c-.391-1.797-1.251-3.516-2.111-5.156-.625-1.172-1.641-2.187-2.736-3.046-.86-1.25-1.876-2.5-3.127-3.516-1.485-1.25-3.283-2.187-4.846-3.359-1.407-1.093-2.736-2.187-4.378-3.046-.938-.469-1.876-.938-2.579-1.641-.782-.703-1.486-1.484-2.267-2.187-3.283-2.89-6.567-5.78-9.459-8.983-2.97-3.203-5.55-6.718-8.208-10.155-2.501-3.125-5.316-5.859-8.599-8.515-2.97-2.421-6.175-4.843-9.693-6.561-1.798-.86-3.674-1.25-5.628-1.563-1.016-.156-2.033-.234-3.049-.547-1.094-.312-2.11-.703-3.205-.937-1.876-.391-3.908-.469-5.785-.625-2.266-.156-4.612-.234-6.879-.469-4.69-.39-9.146-.546-13.836.157-2.032.312-4.065.39-6.097.937-1.876.547-3.752.937-5.472 1.719-1.798.781-3.752 1.249-5.55 1.952-2.033.782-4.143 1.485-6.098 2.422-3.752 1.797-6.957 4.218-10.318 6.484-1.798 1.25-3.518 2.577-5.472 3.671-1.72.937-2.892 2.187-4.378 3.359-3.361 2.656-6.957 5.078-10.474 7.499-1.877 1.25-3.675 2.734-5.707 3.75-1.72.859-3.361 1.953-5.159 2.812-1.954.937-3.987 1.953-6.019 2.812-2.111.937-4.3 1.64-6.41 2.5-.86.39-1.642.781-2.58 1.093-1.094.313-2.189.625-3.361.86-2.189.39-4.3.859-6.489 1.328-2.266.468-4.455 1.093-6.722 1.562-2.267.469-4.534.937-6.723 1.562-2.111.547-4.143 1.25-6.097 2.031-1.876.703-3.909 1.25-5.707 2.031-.86.391-1.876.547-2.736.859-1.016.391-1.954.86-2.892 1.328a20.288 20.288 0 0 0-4.612 3.438c-.782.703-1.407 1.484-1.954 2.343l-.469.469c-.548.625-1.173 1.328-1.642 2.031-1.094 1.64-1.329 3.749-1.876 5.546-1.016 3.749-1.407 7.811-1.173 11.639.157 2.734.782 6.093 3.987 7.187.782.234 1.72.312 2.502.312 1.172.078 2.345.235 3.517.235 2.424 0 4.847.156 7.192.156 10.162.234 20.403.312 30.565.156 2.658 0 5.315-.156 7.895-.312 2.423-.157 4.925-.157 7.348-.391 2.502-.234 5.159-.078 7.661-.078h7.582c5.081 0 10.241.156 15.322-.078 5.159-.235 10.24-.547 15.399-.781 10.397-.469 20.872-.86 31.269-1.328 10.318-.469 20.559-1.875 30.877-2.734 10.397-.86 20.872-1.328 31.347-1.719 4.846-.156 9.537-.547 14.071-1.953 3.674-1.172 7.817-3.046 9.615-6.249 1.876-3.047 3.283-6.64 2.423-10.311z" fill="#B73E55"/><path d="M190.815 350.895c-2.267-.625-4.847-.469-7.192-.469-1.485 0-2.97.157-4.377.235h-4.065c-.938 0-1.876 0-2.736.312-1.329.391-1.798 1.562-1.407 2.89.469 1.641 2.345 1.875 3.83 2.11 2.736.468 5.628.468 8.364.703 2.189.234 4.378.078 6.567-.313 1.641-.234 3.596-.781 3.83-2.734.313-1.484-1.485-2.422-2.814-2.734zM234.591 352.926c-.235-.391-.548-.703-.938-.859-.938-.938-2.58-1.094-3.831-1.094-2.189-.078-4.299 0-6.488-.078-3.83-.156-7.817-.391-11.569.547-2.345.625-3.44 3.437-.938 4.687.625.312 1.407.312 2.032.39.938.078 1.876.157 2.814.157 1.955 0 3.987-.079 5.941-.079 2.424 0 4.769-.078 7.192 0 .938.079 1.72-.156 2.658-.156.86 0 1.329 0 2.11-.468.938-.625 1.72-1.875 1.017-3.047z" fill="#FBCFC6"/><path d="M239.046 353.317c-.234-1.875-1.329-3.516-3.048-4.375-2.189-1.093-4.925-1.328-7.348-1.562-2.815-.235-5.55-.235-8.365-.078-3.439.156-6.8 0-10.24-.157-3.283-.156-6.488 0-9.771.079-3.049.156-6.176 0-9.225.078-1.641 0-3.205.156-4.768.234-1.329.078-2.658 0-3.987 0-.39.078-.86.078-1.25.078-.079 0-.079.078-.079.078h-.312c-1.251 0-2.502.313-3.752.391-1.329.078-2.58.078-3.909.312-2.189.313-3.674 1.641-3.987 3.828-.312 1.953.469 3.671 1.955 4.843 1.876 1.562 4.299 1.484 6.644 1.562 2.814.079 5.628.157 8.364.235 5.863.156 11.648.39 17.511.39 5.55 0 11.178.313 16.728-.312 2.971-.313 5.941-.391 8.99-.547 2.267-.078 5.003.391 7.035-.703 1.485-.625 3.049-2.343 2.814-4.374zm-.547.781c-.156 1.406-1.251 2.578-2.501 3.202-1.251.704-2.736.625-4.065.704-2.423 0-4.925.078-7.348.234-2.424.156-4.847.547-7.27.625-2.423.078-4.769 0-7.192.078-5.081.078-10.162.234-15.165-.078-4.925-.235-9.849-.469-14.852-.547-2.58 0-6.098.391-8.365-1.172-1.485-1.015-2.267-2.265-2.267-4.062 0-2.031 1.173-3.515 3.127-3.984 1.407-.312 2.814-.312 4.221-.39 1.251-.078 2.502-.313 3.753-.391h.234c.078 0 .078-.078.156-.078 1.877 0 3.831-.078 5.707-.156.313-.078.625-.078.938-.078h-.625c.469 0 1.016 0 1.485-.078 2.345-.157 4.768-.078 7.113-.157 5.081-.156 10.163-.39 15.244-.156 2.658.156 5.237.235 7.895.156 2.423-.078 4.768-.234 7.113-.078 3.909.313 13.29.235 12.664 6.406z" fill="#F2766C"/><path d="M273.441 361.441c-.547-1.719-1.016-3.672-2.188-5.156-1.173-1.562-2.658-2.265-4.456-3.125-1.954-.937-4.221-1.406-6.41-1.484-1.094-.078-2.345-.156-3.44.078-1.172.235-2.267.703-3.361 1.094-3.518 1.015-6.879 3.828-8.13 7.187-1.172 1.64-2.11 3.437-2.423 5.389-.625 3.75.469 8.281 2.736 11.405 2.267 3.281 5.706 5.234 9.693 5.859 2.111.312 4.143.703 6.254.547 2.032-.156 3.83-.859 5.628-1.641 1.564-.703 3.283-1.562 4.378-2.968 1.172-1.562 1.719-3.593 2.267-5.39 1.172-3.906.703-8.124-.548-11.795z" fill="#7F143F"/><path d="M265.39 365.425c-.235-.703-.469-1.563-.938-2.188-.469-.625-1.095-.937-1.876-1.328-.86-.39-1.72-.546-2.658-.625-.469 0-.938-.078-1.407 0-.469.079-.938.313-1.407.469-1.485.391-2.814 1.562-3.361 2.969-.47.703-.86 1.406-1.017 2.265-.234 1.562.157 3.437 1.095 4.765.938 1.328 2.345 2.187 4.065 2.422.859.156 1.719.312 2.579.234.86-.078 1.564-.313 2.345-.703.626-.313 1.407-.703 1.798-1.25.469-.625.704-1.484.938-2.265.547-1.485.313-3.203-.156-4.765z" fill="#FFE9B2"/><path d="M371.468 359.488c-.547-1.719-1.017-3.672-2.189-5.156-1.173-1.562-2.658-2.265-4.456-3.125-1.954-.937-4.221-1.406-6.41-1.484-1.094-.078-2.345-.156-3.439.078-1.173.235-2.267.703-3.362 1.094-3.517 1.016-6.879 3.828-8.129 7.187-1.173 1.64-2.111 3.437-2.424 5.39-.625 3.749.469 8.28 2.736 11.405 2.267 3.28 5.707 5.233 9.693 5.858 2.111.313 4.143.703 6.254.547 2.033-.156 3.83-.859 5.628-1.64 1.564-.703 3.284-1.563 4.378-2.969 1.173-1.562 1.72-3.593 2.267-5.39 1.172-3.906.703-8.124-.547-11.795z" fill="#7F143F"/><path d="M363.416 363.472c-.234-.703-.469-1.563-.938-2.188-.469-.625-1.094-.937-1.876-1.328-.86-.39-1.72-.546-2.658-.625-.469 0-.938-.078-1.407 0-.469.079-.938.313-1.407.469-1.485.391-2.814 1.562-3.361 2.969-.469.703-.86 1.406-1.017 2.265-.234 1.562.157 3.437 1.095 4.765.938 1.328 2.345 2.187 4.065 2.422.86.156 1.719.312 2.579.234.86-.078 1.564-.313 2.345-.703.626-.313 1.408-.703 1.798-1.25.469-.625.704-1.484.938-2.265.548-1.406.313-3.203-.156-4.765z" fill="#FFE9B2"/><path d="M299.238 300.745c-.625-.547-1.642-.547-2.502-.625-1.407-.234-2.814-.391-4.299-.547-3.049-.312-6.175-.312-9.302-.547-3.049-.234-6.098-.468-9.146-.547-1.095 0-2.502-.156-3.518.313s-2.111 1.094-3.127 1.64c-2.501 1.406-4.846 2.969-7.27 4.453a109.684 109.684 0 0 0-6.253 4.218c-4.847 3.359-9.537 6.874-14.54 9.999-2.502 1.562-4.612 3.593-7.27 4.999-1.329.703-2.58 1.485-4.065 2.031-.703.313-1.876.547-2.189 1.25-.234.078-.234.469.157.469h.391c.156.156.312.078.469 0 3.048.078 6.097.078 9.067.39 3.049.313 6.176.235 9.225.469 6.019.547 12.116.391 18.135.781 3.127.235 6.254.625 9.381.625 2.032 0 4.143.313 6.019-.234h.156c1.407-.078 2.971-.469 4.3-.937 1.016-.391 1.563-.782 2.11-1.797.782-1.328 1.407-2.812 2.189-4.218.86-1.485 1.798-2.891 2.501-4.453.469-1.094.938-2.187 1.486-3.281a183.178 183.178 0 0 1 4.143-6.483c.86-1.328 1.798-2.656 2.345-4.062.234-.625.469-1.328.703-1.953.235-.547.626-1.094.782-1.719 0-.078 0-.156-.078-.234zM340.434 318.79c-.547-2.969-.782-5.859-1.251-8.827-.078-.704-.234-1.485-.391-2.188v-1.25c0-1.874 0-4.374-2.267-5.233-.938-.391-2.188-.391-3.283-.391-1.798-.078-3.674-.156-5.472-.156-3.596-.078-7.113-.078-10.709-.234-3.44-.079-6.801 0-10.241 0-.859 0-2.423.703-2.032 1.562-.313.781-.704 1.562-.938 2.343-.469 1.25-1.094 2.5-1.72 3.672-.547.937-1.016 1.953-1.485 2.968-.625 1.406-1.407 2.656-2.111 3.984-1.25 2.422-2.423 4.921-3.674 7.421-.547 1.015-.938 2.109-1.329 3.203-.234.703-1.016 1.796-.859 2.578.156.624 1.016.859 1.641 1.015 1.407.313 2.814 0 4.221-.078 1.486-.078 2.814 0 4.3.156 1.641.156 3.361 0 5.003 0 6.8 0 13.601 0 20.48.078 3.362 0 6.801.157 10.163.157.703 0 1.641.312 2.267-.079.625-.468.625-1.796.625-2.421.234-2.812-.391-5.546-.938-8.28zM372.093 324.804c-.782-.859-1.798-1.562-2.658-2.421-1.25-1.328-2.579-2.5-3.674-3.984-.86-1.094-1.641-2.344-2.579-3.359-1.173-1.25-2.346-2.343-3.518-3.593-2.58-2.734-4.769-5.625-7.505-8.281-.781-.781-1.954-2.187-3.361-2.109h-.234c-.469 2.188 1.016 4.219 2.11 6.093a166.033 166.033 0 0 0 2.971 5c1.719 2.89 3.439 5.937 5.394 8.749 1.094 1.484 2.266 2.968 3.674 4.218.39.39 1.328.859 1.876 1.484 1.485.234 3.048-.078 4.534.156.938.157 2.423.313 3.205-.312.703-.547.234-1.094-.235-1.641z" fill="#F2766C"/><path d="M212.937 367.065c.079-.937.235-2.265 0-3.281v-.234a1.602 1.602 0 0 0-1.172-.781c-.938-.157-2.111 0-3.127-.079-1.407-.078-2.892 0-4.299 0-5.238-.156-10.397-.312-15.556-.234-.313 0-.391.234-.313.391 0 0-.078.078-.078.156 0 1.406.078 2.89.156 4.296.078.547.078 1.172.625 1.563 1.017.546 3.44.312 4.534.312 2.033 0 4.143-.078 6.176-.156 3.908 0 7.895.547 11.882.469h.625c.547-.391.626-1.172.626-1.875-.079-.157-.079-.391-.079-.547z" fill="#F0A492"/><path d="M339.496 352.223c-1.095-.781-3.44-.469-4.69-.469-2.033 0-4.143-.078-6.176 0-2.032.078-3.987.235-6.019.235-2.189 0-4.456-.157-6.645 0-1.172.078-2.267.39-3.439.39-1.173.078-2.423 0-3.596.078s-2.345.235-3.518.313c-1.094.078-2.11 0-3.205 0-4.768 0-9.458.937-14.227 1.093-.156 0-.234.078-.234.235-.704.312-1.251.937-1.329 1.64-.078 1.094 1.016 2.031 1.876 2.5 1.251.625 2.814.781 4.143.781 2.111.078 4.221.234 6.332.234 2.032 0 3.987-.39 6.019-.546 2.267-.157 4.534-.469 6.801-.625 4.065-.313 8.051-.703 12.038-.703 2.189 0 4.3-.157 6.41-.391 2.111-.156 4.378-.313 6.488-.781 1.017-.235 2.424-.547 2.971-1.563.313-.703.782-1.952 0-2.421zm-4.143 3.593c-2.111.313-4.3.547-6.41.703-1.798.156-3.596.313-5.394.313-1.563 0-3.205-.078-4.768.078-3.596.39-7.27.547-10.944 1.015-3.909.469-7.817.86-11.726.86-1.798 0-3.674-.313-5.394-.469-.938-.078-1.72-.156-2.579-.625-1.329-.781-1.486-2.89.312-3.203 3.44-.156 6.879-.468 10.241-.859a45.274 45.274 0 0 1 4.534-.234c1.719.078 3.361-.235 5.081-.313 1.719-.078 3.439 0 5.081-.156 1.798-.234 3.517-.391 5.315-.391h4.847c1.876 0 3.674-.156 5.472-.234h5.159c.782 0 1.642-.078 2.424 0 .938.078 2.501-.078 2.423 1.172.078 1.796-2.267 2.109-3.674 2.343zM380.145 351.129c1.641-.468 3.439-.312 5.081-.312 1.641 0 3.361.078 5.003-.078 1.407-.156 2.814-.547 4.299-.703.469-.078.938-.078 1.407-.156 0-.079.078-.235.078-.313 0-.078 0-.156.079-.234-.626.156-1.486.156-1.955.156-.781.078-1.485.078-2.189.312-2.11.625-4.377.469-6.566.469-1.954 0-6.644-.703-7.035 2.109-.157 1.172-.078 2.187.938 2.812 1.251.782 2.658 1.016 4.143 1.094 3.596 0 7.113-.156 10.709-.234.078-.157.157-.313.157-.469v-.078c-2.815 0-5.629.078-8.443.156-1.641.078-3.439.234-5.081-.312-1.094-.391-1.876-.86-2.032-2.109-.235-1.016.39-1.797 1.407-2.11z" fill="#F2766C"/><path d="M301.349 333.085c-1.72-.547-3.831-.313-5.551-.313-1.172 0-2.736-.078-3.439.937-.704.704-.782 2.031-.86 2.969-.078 1.25-.391 2.656.625 3.515 2.111 1.797 6.645.234 8.365-1.328 1.172-1.094 2.345-2.187 2.736-3.828.234-1.328-.782-1.64-1.876-1.952z" fill="#7F143F"/><path d="M298.534 128.11c0-.625-.312-1.407-.703-1.875a6.826 6.826 0 0 0-.704-.86c.313-.156.704-.546.86-.703.313-.468.391-1.015.313-1.562-.078-1.015-.626-1.64-1.329-2.109 0-.078-.078-.078-.078-.156.547-1.328-.078-2.891-1.642-3.359-1.641-1.641-4.377-2.422-6.488-2.734-.235-.235-.469-.391-.782-.625-2.11.078-4.221.312-6.332.703-2.11.39-4.143 1.484-6.253 1.797-.313.624-.547 1.171-.704 1.796-.078.235-.234.469-.312.703-.626 1.641 0 3.906.234 5.625.391 2.89.391 4.452 2.658 5.858 2.111 1.25 3.987 3.359 6.41 4.218 2.736.938 6.488 1.25 9.224.469 1.094-.312 2.267-.781 3.127-1.64.234.156.547.234.782.078 1.25-.781 1.485-2.266.859-3.515 0-.078-.078-.078-.078-.157.548-.468 1.017-1.015.938-1.952z" fill="#F2766C"/><path d="M296.502 133.031c-1.876.547-3.752.781-5.628 1.172-1.407.312-2.815.546-4.222 0-.703-.313-.625-1.172-.156-1.485.704-.625 1.876-.546 2.736-.546 1.329-.157 2.58-.391 3.909-.547.938-.547 1.954-.625 2.892-1.172 0-.078-.078-.156-.078-.234-2.658.859-5.707.781-8.443.625-1.25-.079-3.674 0-4.299-1.328-1.173-2.422 3.518-2.422 5.237-2.344.938-.156 1.876-.156 2.814-.234.782-.078 1.564-.156 2.267-.391.704-.234 1.095-.547 1.564-1.015-.078-.078-.157-.078-.313-.156-.86-.157-1.72.156-2.58.234-1.563.234-3.595.547-5.315.312h-.235c-.859-.078-2.032-.078-2.501-.937-.391-.703.078-1.328.625-1.641.86-.546 2.111-.468 3.127-.546 2.189-.157 4.612 0 6.723-.781-.078-.391-.313-.704-.704-.704h-.234c-.078 0-.157 0-.235.079-1.407.078-5.237 0-7.504-.547-.469 0-1.016-.078-1.485-.078-.782-.078-1.095-1.25-.235-1.485 2.892-.703 6.645.157 9.302-1.327-.078-.157-.312-.313-.625-.313-.938.078-5.159-.156-8.13.313-.078-.079-.078-.157-.156-.157-.782-.625-.86-1.874-1.72-2.421-.782-.547-1.485-.938-2.423-.938-1.016 0-1.954.391-2.58 1.172-.469.547-.703 1.172-1.172 1.719-.313.39-.626.625-.782 1.093-.391.938 1.094 1.328 1.485.391.157-.469.86-1.094 1.173-1.484.703-1.172 1.485-1.797 2.814-1.094 1.016.469 1.172 1.484 1.798 2.265-.782.391-1.251.86-1.095 1.641.235 1.093 1.408 1.562 2.658 1.875-.781.234-1.407.624-1.798 1.171-.234-.234-.469-.468-.625-.703-.391-.468-.782-.781-1.407-.703-.625.078-.86.547-1.173 1.016-.312.39-.781 1.171-1.172 1.484-.86.469-.078 1.797.781 1.328.391-.234.548-.469.782-.781.235-.313.704-.703.938-1.094.078-.078.078-.156.157-.156.156.078.234.39.39.469.313.39.626.703 1.017 1.015.078.156.156.313.312.391.235.703.704 1.171 1.329 1.562-.781.312-1.485.625-1.72.937-.859 1.094-.234 2.188.782 2.969a6.862 6.862 0 0 0 2.502 1.25c-.235.156-.391.39-.469.703-.548 1.171.39 2.343 1.407 2.734 1.172.468 2.892.156 4.143 0 1.876-.235 3.674-.547 5.472-1.172.234-.078.469-.234.547-.547v-.078c-.313-.391-.313-.625-.469-.781zM181.2 223.879c-.86-1.172-2.423-2.343-3.596-3.203-1.798-1.328-3.596-2.499-5.315-4.062-4.222-3.827-8.912-6.874-13.759-9.686-5.628-3.281-10.787-8.827-14.07-14.451-1.095-1.797-2.189-4.687-3.752-6.015-.313-.235-.782-.313-1.095-.547-3.205-2.422-3.83-3.515-3.127-7.187.626-3.124 1.486-6.093 1.955-9.295.547-3.516 1.016-7.656 2.736-10.78 2.345-4.297 5.393-6.874 5.784-11.952.157-2.031.157-3.828 1.173-5.702.938-1.563 2.267-2.734 3.439-4.062 1.72-1.953 3.049-4.062 4.534-6.25 1.251-1.874 2.892-3.593 4.065-5.624 1.407-2.578 2.111-5.546 3.987-7.89.625-.781-.704-1.562-1.329-.781-1.407 1.797-2.345 4.218-3.361 6.249-1.486 2.969-3.44 5.469-5.238 8.203-2.892 4.452-7.973 7.967-8.599 13.435-.234 1.875 0 3.75-.625 5.547-.547 1.64-1.642 3.046-2.658 4.452-1.329 1.797-2.658 3.515-3.439 5.625-1.173 3.359-1.642 6.952-2.189 10.389-.547 3.125-1.564 6.171-2.033 9.296-.234 2.031-.39 4.374 1.095 6.015.625.703.938.624 1.641 1.171 1.642 1.094 2.736 1.719 3.831 3.437 3.205 5.078 6.41 9.843 11.1 13.827 2.032 1.718 4.143 3.437 6.488 4.687 3.127 1.64 5.628 3.749 8.443 5.858 2.501 1.875 4.69 4.141 7.191 5.937 1.642 1.172 4.143 2.266 5.394 3.984.625.937 1.954.156 1.329-.625z" fill="#04213E"/><path d="M207.074 110.768c-2.267.547-3.83 3.671-5.081 5.468-2.345 3.359-3.674 7.343-6.175 10.624-2.502 3.359-6.645 5.233-9.381 8.358-2.032 2.265-2.657 5.234-3.439 8.046-1.173 4.218-4.3 5.546-6.957 8.515-1.955 2.187-3.518 5.624-4.769 8.28-1.485 3.281-3.048 6.405-4.612 9.686-1.563 3.203-4.299 6.406-6.488 9.296-.313.469.078 1.172.625 1.172 2.658-.235 4.691-.079 6.879 1.562 1.642 1.328 2.658 3.203 4.143 4.687 3.205 3.046 7.583 4.062 10.866 7.265 1.407 1.406 1.954 2.656 2.971 4.296 1.016 1.718 2.501 2.031 3.986 3.359 1.017.937 1.798 2.109 3.049 2.812.156.078.313.156.391.234-.547-.781-1.016-1.874-.938-2.656v-.078c-.235-.234-.547-.39-.782-.703-1.72-1.64-3.518-2.577-4.768-4.608-1.564-2.656-3.752-4.687-6.254-6.484-1.876-1.328-3.987-2.031-5.863-3.203-2.189-1.406-3.283-3.593-5.081-5.39-2.189-2.109-4.377-2.734-7.035-2.656 3.439-4.609 7.035-9.295 9.146-14.764 1.329-3.437 2.892-6.952 5.003-10.076 1.719-2.578 4.69-3.984 6.488-6.562 1.798-2.578 1.641-5.937 3.049-8.671 1.797-3.515 5.784-5.937 8.755-8.436 2.267-1.875 3.83-4.609 5.003-7.265.859-1.875 1.797-3.594 2.97-5.234.938-1.328 2.814-4.921 4.534-5.312 1.094-.312.703-1.796-.235-1.562zM252.023 115.923c-1.017 2.031-3.283 4.297-4.691 6.172-1.719 2.343-2.736 4.843-4.221 7.342-1.407 2.422-3.205 4.765-4.299 7.421-1.095 2.578-2.502 4.453-3.909 6.875-2.736 4.53-5.706 8.905-8.598 13.357-1.486 2.266-3.049 4.375-4.222 6.796.391-.39.86-.781 1.329-1.171.313-.313.782-.235 1.016 0 1.329-2.266 2.893-4.375 4.222-6.562 1.25-2.109 2.736-3.75 4.143-5.624 1.563-2.109 2.658-4.609 4.065-6.796 2.736-4.375 4.924-8.906 7.582-13.358 1.485-2.5 2.502-4.921 4.221-7.343 1.486-2.109 3.518-3.984 4.691-6.171.469-1.016-.86-1.797-1.329-.938z" fill="#04213E"/><path d="M282.509 130.531c-.703-.625-1.094-1.718-.547-2.578.391-.703 1.173-.937 1.954-1.093.079-.078.235-.156.313-.156-.469-.313-.86-.704-1.094-1.25-.235-.157-.469-.235-.626-.391-.156.703-.312 1.406-.547 2.109-.625 2.344-2.032 5-2.032 7.421 0 .156 0 .235.078.391-.235 1.796-.235 4.687 2.189 3.749.703-.312.703-.937.938-1.562.625-1.719 1.016-3.671 1.485-5.546-.469-.078-1.016-.313-1.407-.547a4.252 4.252 0 0 1-.704-.547z" fill="#B73E55"/><path d="M317.686 54.915c-2.501-4.765-6.175-11.717-12.038-12.576-.547-.078-.86.234-1.016.625a23.883 23.883 0 0 0-4.691-.469v-.156c-.625-.078-1.328-.157-1.954-.157v.313c-7.582.312-14.618 3.593-19.699 10.077-4.065 5.155-5.863 12.264-6.957 18.591-.391 2.266-.391 4.844-.078 7.343-.078 0-.078.078-.157.078.235.625.391 1.406.469 2.11h.079c.625 2.89 1.719 5.702 3.205 7.967 3.126 4.765 8.129 8.28 13.68 9.92-.939 6.25-2.971 12.421-4.456 18.592-.078.313-.157.703-.235 1.094 1.095-.391 2.345-.391 3.518-.547h.313c1.563-6.093 3.283-12.186 5.003-18.2 3.595.468 7.348.234 10.709-1.016 5.472-1.953 10.084-5.312 13.836-9.765 3.909-4.608 5.003-10.31 5.159-16.326.235-5.937-1.876-12.186-4.69-17.498z" fill="#7F143F"/><path d="M303.694 48.822c-.391-.078-.704.157-.782.47-1.251-.235-2.423-.313-3.674-.392v-.078c-.547-.078-1.016-.078-1.563-.156v.235c-5.863.234-11.335 2.812-15.244 7.811-3.127 3.984-4.534 9.452-5.394 14.373-.312 1.797-.312 3.75 0 5.703l-.078.078c.157.547.313 1.094.391 1.64.469 2.266 1.329 4.453 2.502 6.171 4.533 6.875 14.305 10.39 22.122 7.578 4.221-1.485 7.817-4.14 10.709-7.578 3.049-3.593 3.831-7.967 3.987-12.576.156-4.687-1.563-9.53-3.674-13.592-1.876-3.672-4.69-9.062-9.302-9.687z" fill="#F2766C"/><path d="M316.748 72.1c.078-4.217-1.251-8.514-3.049-12.341-1.485 8.514-4.768 17.263-8.676 24.762-1.251 2.344-2.815 4.609-4.222 6.874-.312.469-.625 1.016-1.094 1.563.782-.157 1.563-.39 2.345-.625 4.221-1.484 7.817-4.14 10.709-7.578 3.049-3.593 3.831-8.045 3.987-12.654zM293.531 75.772c0-1.484-.703-2.656-1.719-3.359-1.798-1.953-5.941-1.953-7.192.547-.625 1.25-1.016 3.047-.547 4.453.469 1.171 1.72 2.5 2.97 2.656h.626c.469.234.938.312 1.563.312 2.345 0 4.299-2.265 4.299-4.609z" fill="#04213E"/><path d="M288.607 73.975c.234.157.547.47.86.782a.881.881 0 0 0 .859.234c.391-.156.626-.625.469-1.016-.156-.312-.39-.468-.547-.624-.156-.157-.391-.313-.547-.47-.938-.702-1.876.47-1.094 1.094z" fill="#fff"/><path d="M285.245 132.484c.079-.234.235-.391.391-.547-1.485-.39-3.048-.859-3.674-2.421-.469-1.25.235-1.953 1.251-2.344.156-.156.313-.312.547-.468-.469-.469-.86-.938-1.016-1.485-.469-.39-.938-.859-1.407-1.328a114.629 114.629 0 0 0-1.095 5 156.379 156.379 0 0 1-1.094 5.937c-.234 1.249-1.094 3.593-.86 4.843.391 1.796 2.267 2.499 3.987 2.577.234 0 .547-.078.703-.312.86-1.484 1.017-3.515 1.486-5.077.234-.938.547-1.875.781-2.891a1.656 1.656 0 0 1 0-1.484zM291.734 106.315c-.469-1.64-3.205-2.343-4.691-2.109-.469.078-.625.391-.625.781-.078.079-.156.235-.235.391-.625 3.671-1.641 7.265-2.736 10.858.548.469.86 1.094 1.095 1.797 0 .078.078.156.078.234.235-.078.391-.078.625-.156 1.251-.313 2.58-.547 3.831-.547h.234c0-.078.078-.156.078-.234.469-2.031.782-4.14 1.173-6.171.313-1.172 1.485-3.672 1.173-4.844z" fill="#B73E55"/><path d="M313.934 109.596c-.078-.234-.235-.469-.235-.547-.156-.312-.39-.703-.547-1.015-.234-.391-.469-.859-.781-1.25-.313-.391-.782-.781-.86-1.328-.157-.937-1.642-.547-1.486.391.079.625.469 1.015.86 1.484.391.547.704 1.172 1.095 1.718.469.86.781 1.953 1.798 2.344.39.156.859-.156.938-.547 0-.078.078-.234.078-.312.156-.547-.391-.938-.86-.938zM330.897 96.785a1.122 1.122 0 0 0-.234-.156c-.235-.156-.469-.39-.704-.547-.703-.625-1.407-1.172-2.267-1.562-.938-.39-1.329 1.094-.391 1.484.86.313 4.378 4.296 4.925 1.64.078-.859-.86-1.328-1.329-.859zM340.278 74.132c-.079-.078-.157-.235-.235-.313a.746.746 0 0 0-.938-.234c-.704-.234-1.407-.39-2.111-.625-.859-.313-1.641-.625-2.657-.547-.938.078-1.017 1.563 0 1.484.938-.078 1.719.39 2.579.625.86.235 1.72.469 2.58.781.547.079 1.172-.624.782-1.171zM336.838 53.51c-1.72.077-3.361.312-5.081.39-.938 0-1.016 1.562 0 1.484 1.72 0 3.361-.313 5.081-.39 1.016 0 1.016-1.485 0-1.485zM324.331 35.074c-1.329.468-2.189 1.875-3.596 2.187-.938.156-.547 1.64.391 1.484.703-.156 1.407-.546 1.954-1.015.547-.39 1.016-.938 1.642-1.172.938-.39.547-1.797-.391-1.484zM313.543 25.856c-.938 1.094-2.111 1.953-2.97 3.125-.391.547-.469 1.25-.782 1.875-.235.625-.469 1.015-.469 1.718 0 1.016 1.485 1.016 1.485 0 0-.547.391-1.093.547-1.562.235-.703.391-1.094.938-1.64.704-.86 1.564-1.563 2.267-2.344.626-.86-.391-1.953-1.016-1.172z" fill="#04213E"/></g><defs><clipPath id="clip0"><path fill="#fff" d="M0 0h400v388H0z"/></clipPath></defs></svg>