<svg width="400" height="370" fill="none" xmlns="http://www.w3.org/2000/svg"><path d="M.968 207.83c1.39-4.878 3.916-9.268 5.727-14.019 2.017-5.242 3.678-10.664 6.415-15.656 5.008-9.17 12.548-16.467 18.79-24.646 3.512-4.629 6.55-9.553 8.758-14.954 2.282-5.675 3.053-11.631 4.25-17.57 1.115-5.499 2.416-11.046 2.864-16.627.557-6.574-.103-13.196.09-19.785.215-8.361.86-19.366 8.137-24.955 6.45-4.9 15.762-7.139 23.613-6.885 10.894.374 21.973 4.525 32.892 3.07 10.923-1.51 18.635-7.303 26.498-14.975 7.355-7.248 15.465-13.691 25.194-17.021 9.607-3.335 20.204-4.414 30.19-4.187 10.351.242 19.925 2.725 28.621 8.278 9.112 5.792 16.66 13.683 25.383 19.958 9.196 6.57 17.094 14.808 26.357 21.27 9.146 6.348 19.672 10.587 30.519 13.232 5.121 1.255 10.375 2.293 15.663 2.613 5.894.398 11.759.13 17.629 1.027 10.108 1.507 17.513 8.561 25.662 14.093 4.132 2.824 7.411 5.669 10.258 9.883 2.786 4.212 5.699 8.317 8.486 12.529 5.742 8.707 9.944 17.742 12.938 27.837 2.732 9.198 5.239 17.999 3.55 27.855-1.701 10.132-6.086 18.994-11.261 27.825-2.52 4.28-4.982 8.617-7.56 12.839-3.24 5.305-6.955 10.369-9.364 16.149-2.335 5.507-3.582 11.222-4.592 17.058-.504 2.918-1.25 5.771-.966 8.775.371 3.729 1.906 7.337 3.454 10.668 4.036 8.695 9.508 16.671 11.795 26.24 1.012 4.363.954 9.405 1.045 13.898.099 4.328-.048 8.701-1.285 12.92-4.88 6.46-10.579 12.221-17.025 17.012-14.026 10.366-31.186 11.02-47.48 5.001-15.214-5.643-28.226-15.302-43.168-21.545-14.582-6.118-30.364-10.066-46.48-9.592-15.869.428-30.859 5.435-45.325 10.962-15.897 6.136-31.352 13.232-47.908 17.845-13.962 3.884-28.46 6.25-42.481 1.153a67.53 67.53 0 0 1-11.323-5.435c-2.049-4.349-3.356-8.891-4.905-13.497-1.87-5.506-4.864-10.502-6.735-16.007-1.924-5.675-4.629-10.327-7.426-15.592-2.8-5.21-5.42-10.357-8.846-15.204-6.224-8.837-13.696-18.332-22.093-25.038-7.988-6.357-15.248-12.629-21.307-21.072-5.837-7.99-10.248-15.203-7.248-25.728z" fill="#FFD1C7"/><path opacity=".1" d="M230.945 363.586c.935-1.306 2.492-2.364 4.112-3.049 3.801-1.68 8.599-2.426 12.836-3.173 9.221-1.618 18.629-2.302 28.1-2.489 15.016-.249 30.032.747 45.11 1.058 6.293.871 12.524 2.053 18.692 3.298 5.857 1.244 12.337 2.924 17.446 5.662.499.249.374.809-.125.996-5.607 1.991-11.838 2.489-17.819 2.986-7.415.623-14.954.996-22.368 1.12-7.477.063-14.892-.497-22.306-.56-7.664-.062-15.328 0-22.991-.062-7.415 0-14.892.311-22.244-.622-5.109-.684-11.34-1.058-15.888-3.236-1.371-.497-2.181-1.182-2.555-1.929z" fill="#04213E"/><path d="M319.795 362.217c.311-.435.561-.933.934-1.369.748-.809 2.243-.684 2.68.374.373.809-.374 1.493-.997 1.929-.063.062-.125.124-.25.124-.124.249-.311.436-.56.622-.374.249-.873.374-1.371.436h-.374a.69.69 0 0 1-.685-.685c.062-.497.311-.995.623-1.431zM313.19 364.022c.125.498.686.746 1.184.684.499-.062.81-.435 1.122-.809.249-.311.374-.746.623-1.058.374-.435.872-.622 1.184-1.12a.675.675 0 0 0 0-.684c-.25-.373-.561-.56-.873-.809-.124-.124-.249-.124-.374-.124-.062-.063-.124-.125-.186-.125-1.06-.435-1.807.436-2.057 1.431-.124.436-.187.871-.311 1.307-.312.311-.436.871-.312 1.307zm1.807-2.054c0-.062 0-.124.063-.249.124-.062.249-.124.373-.311.063 0 .125-.062.187-.062l.063.062c-.25.187-.499.374-.686.56zM308.019 361.968c.124-.497.561-.746.81-1.244.124-.311.374-.373.561-.373.311-.249.623-.498.996-.623.374-.124.748.187.873.498 0 .062.062.125.062.187.312.062.561.249.561.684 0 1.245-.872 2.178-1.869 2.863-.686.497-2.056.808-2.368-.312-.249-.56 0-1.182.374-1.68zM246.709 361.408c.623-.871 1.246-1.742 2.118-2.364.748-.498 1.87-.56 2.368.249.249.373.249.684.125.933.249.124.373.373.249.747-.623 1.68-2.929 1.866-4.486 1.431-.374-.062-.686-.623-.374-.996zM241.101 361.408c.686 1.058 2.181.436 2.929-.186.747-.56 1.869-1.183 2.118-2.178.125-.374-.125-.747-.498-.871-.063 0-.125-.063-.187-.063h-.125a.751.751 0 0 0-.436-.435c-1.682-.436-5.047 1.867-3.801 3.733zm2.617-1.68l-.187.187c.125-.249.312-.498.623-.56.063 0 .125-.062.249-.062-.311.186-.56.311-.685.435zM236.678 358.608c.062-.56.311-1.182.747-1.555.436-.374.935-.436 1.496-.498.685-.062 1.308-.249 1.993-.125.624.125.624.934.187 1.307-.062.062-.124.062-.124.124.311.436-.063 1.245-.748 1.121.249.062.125-.001 0 .062-.187.062-.311.186-.498.249l-.935.56c-.561.249-1.246.311-1.682-.125-.623 0-.748-.747-.436-1.12z" fill="#7F143F"/><path d="M319.483 320.901c-.124-.312-.187-.623-.249-.934.062.062.062.124.125.187.062.124.124.186.187.311 0 .124-.063.311-.063.436zM352.63 286.677c-.062.062-.124.124-.124.187.124-.436.249-.809.374-1.245.062-.124.062-.186.124-.311-.124.498-.249.933-.374 1.369zM358.238 277.343c-.125.56-.249 1.12-.374 1.618-.062.249-.062.56-.124.809 0-.062-.063-.124-.125-.187.187-.808.436-1.617.623-2.489v.249z" fill="#F2766C"/><path d="M219.855 225.884c.747.622 1.993.062 2.928-.373-.125 1.12-.436 2.24-.498 3.298-.063 1.306 0 2.613 0 3.857 0 2.489.124 5.041 0 7.53-.063.746-.623 3.111.685 3.297.685.125 1.495-.622 2.056-1.368.436.871.872 1.617 1.62 2.364 1.122 1.12 2.555 1.68 3.925 2.427a.537.537 0 0 0 .437 0h.062c.249.311.685.56 1.059.56h.062v.062c1.06 2.053.623 4.48.748 6.72.187-.062.374-.062.623-.124.187-.062.374.062.436.249.686 2.862-.124 5.849.623 8.711.312-.124.561-.249.873-.435.187-.125.436 0 .498.186.499 1.307.81 2.676 1.122 4.045.062.124.062.311.124.435.249 0 .499.249.436.498-.124 1.556-.249 3.049-.685 4.605.249 2.364.935 5.6.249 7.902.187.374.374.809.499 1.183.249 5.849.872 11.698 1.682 17.422-.374.56-.748 1.12-.935 1.805-.187.746 0 1.493.125 2.302.187 1.369.561 2.862.374 4.231-.125.934-.436 1.867-.499 2.863-.124 2.053.686 4.044.561 6.16-.124 2.302-1.246 3.858-.623 6.16.374 1.307.997 2.551 1.059 3.92.063 1.058-.436 2.116-.374 3.174.063.809.499 1.617.81 2.364.063.249.125.436.187.685.063 2.364.125 4.666 0 7.031 0 .684-.062 1.307-.062 1.991.187.871.374 1.805.561 2.676.623 3.298 1.121 6.658 2.305 9.831-.187.498-.436.996-.872 1.369-.872.747-1.994.747-2.804 1.369-.935.747-1.184 1.805-.249 2.614.997.933 2.928 1.182 4.237 1.368l8.224 1.307c2.929.436 5.982.187 8.91.125 1.371 0 2.617-.249 3.988-.312 1.495-.124 2.99.125 4.423-.248 1.932-.498 4.3-1.183 5.234-3.112.561-1.244.81-2.8.81-4.293.063-.125.125-.311.187-.436.062-.497.062-.995.125-1.493l.187-1.12c.374-1.742.81-3.547 1.37-5.289a28.4 28.4 0 0 1 2.804-6.098c.125-.249.312-.498.499-.747.436-.311.872-.56 1.37-.809.063-.124.125-.249.312-.249.249-.062.436-.124.685-.124a12.062 12.062 0 0 1 3.676-.747h1.62c6.231-.373 12.524 1.058 16.013 6.098.063 0 .125.062.125.062.062.125.062.249.125.374.747 1.12 1.308 2.364 1.744 3.795.062.249 0 .374-.187.498-.062.062-.124.062-.187.062.063.187.063.374.125.498.997 2.614 1.931 5.6 3.427 8.089-.623.685-.561 1.68-1.184 2.427-.436.56-1.246.809-1.371 1.618-.311 1.493 1.309 1.991 2.43 2.178 1.309.187 2.617 0 3.863 0s2.43.249 3.676.373c3.116.187 6.543.56 9.596-.311.124-.062.249-.062.373-.124 3.49.186 6.979.186 10.468-.187a37.637 37.637 0 0 0 1.62-.933c5.608-11.387 8.1-24.206 10.717-36.526.062-.311.436-.436.685-.311.748.373.561-.187.81-1.058.312-.933.81-1.867 1.184-2.8.623-1.556 1.121-3.111 1.62-4.729.748-2.427 1.371-4.791 2.181-7.156-.25-.062-.499-.249-.437-.56 1.247-6.222 3.053-12.32 4.362-18.543.374-1.742.623-3.484.81-5.227.125-1.306-.249-2.924 0-4.169.249-1.057.872-1.68.81-2.862 0-.996-.125-1.929.124-2.862a.47.47 0 0 1 .437-.311c-.125-.996-.187-1.992-.125-2.987v-.125c0-.249 0-.435.062-.684v-.062c-.062-.249.125-.498.312-.56-.125-2.427-.125-4.854.436-7.281a64.305 64.305 0 0 0 1.558-11.324c-.063-.063-.125-.125-.125-.249 0-.809.062-1.556.187-2.303.062-.186.187-.248.312-.248.56-2.552 1.121-5.103 1.869-7.592.872-2.675 2.18-5.164 3.489-7.653 2.804-5.289 5.421-10.516 4.984-16.739-.311-1.058-.623-2.115-1.059-3.173-.062-.249-.062-.56-.124-.809-.187-1.369-.561-2.738-.873-4.045.374.125.748-.124.873-.497.81-2.241-.81-5.725-1.807-7.716-.561-1.12-.997-2.24-1.433-3.36-.312-1.494-.623-3.049-.997-4.543.561.062 1.059-.124 1.433-.746.623-1.183-.686-3.174-1.184-4.169-.623-1.369-1.495-2.676-2.368-3.983-.498-1.369-.934-2.8-1.495-4.107-.062-.186-.187-.373-.249-.56.685-.622.436-1.742.062-2.489-.935-1.866-2.679-3.546-4.299-4.915l-1.309-2.614a23.918 23.918 0 0 0-2.803-4.107c.56-.124.872-.56.56-1.68-.373-1.182-1.807-1.991-2.679-2.737-1.308-1.058-2.741-2.054-4.299-2.801-1.121-1.493-2.118-3.111-3.24-4.666-.498-.685-.935-1.432-1.558-1.992.187-.124.374-.311.374-.746.125-1.058-1.059-1.867-1.807-2.427-.872-.622-1.869-1.182-2.803-1.68-.125-.062-.187-.124-.312-.124-.748-.809-1.495-1.618-2.305-2.427.56-.062 1.246-.062 1.62-.311.249-.187.373-.436.311-.809-.249-1.183-1.62-1.929-2.679-2.365-.374-.186-1.184-.373-2.118-.684a3.126 3.126 0 0 0 1.744-.747c.249-.187.249-.622.125-.871-.748-1.12-1.869-1.493-2.929-2.24-.124-.062-.685-.498-1.308-.934 0-.062-.062-.062-.062-.124.062 0 .062 0 .124-.062.187 0 .374-.125.499-.249.124.062.249.124.311.187.499.311 1.246-.187 1.059-.809-.373-1.058-1.557-1.805-2.43-2.427-1.121-.809-2.243-1.493-3.24-2.302.125 0 .25-.063.312-.125.249-.124.312-.373.374-.622.062-2.489-2.243-4.605-3.863-6.596a5.07 5.07 0 0 0 1.371 0c.373-.062.623-.56.498-.871-.498-1.493-1.931-3.36-3.302-4.542-.125-.747-.249-1.556-.374-2.303.187-.124.311-.249.498-.373 2.181-1.742 3.365-4.356 2.493-7.094-.748-2.489-3.053-4.231-5.608-4.417-.311 0-.623-.063-.997-.063a3.941 3.941 0 0 0-.498-.871c-.312-.56-.686-1.182-1.06-1.867.561-.995 1.122-2.489.686-3.422-.312-.56-.997-.995-1.807-1.307 0-.248-.062-.435-.125-.56-.124-.249-.685-.995-1.059-.933.499-.56 1.932-.684 1.246-1.867-.685-1.182-3.427-1.12-4.548-1.182a23.995 23.995 0 0 0-2.991 0c.312-.187.623-.373.81-.684.187-.312.062-.81-.249-.934-1.122-.498-2.679-.435-4.237-.186-.062-.187-.125-.374-.311-.498-1.994-1.183-4.86.498-6.979 1.804.312-.746.561-1.493.436-2.302-.062-.373-.436-.685-.81-.498-.311.187-.56.373-.872.498-1.495.56-2.991 1.618-4.424 2.613v-.124c.063-.311.125-.685.187-.996.062-.684-.623-1.182-1.184-.684-.311.249-.56.498-.872.684-.623.25-1.122.685-1.62 1.183-.685.497-1.433 1.057-2.056 1.68-.436.435-.81.87-1.246 1.368-.81.374-1.558.747-2.306 1.183-.872.56-1.682 1.306-2.43 2.115-.56-.746-1.495-1.742-2.118-2.053-1.62-.996-4.673-.684-6.293.187-1.745.995-2.679 2.302-3.053 3.795-.249-.062-.561.063-.623.374-.872 4.231.249 9.333 3.863 12.009-.561 1.68-1.122 3.36-1.558 5.165-.623 2.613-1.184 5.226-1.744 7.84-.436.187-.873.311-1.309.498-.124-.125-.249-.187-.436-.125-1.059.187-1.931.56-2.866.996 0 1.431-.312 2.8-.748 4.107a44.832 44.832 0 0 0-.311 2.862.867.867 0 0 1 .187.249c.249 1.058.498 2.053.623 2.987 0 .062-.063.124-.063.186-.311 2.054-.934 3.983-1.62 5.849-.062.063-.062.125-.124.187-.436.311-.935.56-1.309.933-.56.498-.996 1.058-1.433 1.68-.436.374-.81.685-1.183.996-.624.498-1.184.996-1.745 1.493-.125.125-.249.187-.374.312-.187.124-.374.311-.561.435-.56.311-1.059.622-1.557.933-1.87 1.307-3.863 2.676-5.359 4.356-.311.311-.249.871.125 1.12.062.062.187.062.249.125-.81.933-1.62 1.866-2.43 2.738-1.558 1.742-3.053 3.049-3.925 5.226 0 .063-.062.125-.125.249-.934.685-1.869 1.307-2.679 1.991-.249.187-.561.436-.81.747-1.308.56-2.243 2.614-3.115 3.547-.686.747-1.122 1.618-1.683 2.489-.685.995-1.433 1.867-2.18 2.8-.81 1.058-1.62 2.116-2.368 3.236-.374.56-.997 1.369-.997 2.053-.062 1.12.872 1.058 1.682.933-.124.249-.311.498-.436.747-.436.871-.685 1.742-.997 2.614a8.262 8.262 0 0 1-.436 1.12c-.685 1.244-1.433 2.489-1.994 3.795-.997 2.178-2.492 3.92-4.05 5.663-.436.497-1.682 1.306-.81 1.991.437.373 1.371.186 2.181.062a29.283 29.283 0 0 0-1.308 2.862c-.81 1.929-1.932 3.734-2.991 5.538-.623 1.12-2.243 2.676-2.305 4.045-.125 1.493 1.62.995 2.679.995-.062.996-.499 2.054-.81 2.987a61.56 61.56 0 0 0-.872 3.236c-.561 2.116-1.184 4.044-1.496 6.222.125 1.369-.561 3.485.499 4.356zm115.953-87.612c.062-.124.124-.186.124-.311.125.062.187.187.312.249-.187 0-.312.062-.436.062zm-95.891 181.322c.063-.249.125-.498.187-.809 0 .187 0 .311.063.498-.125.124-.187.186-.25.311z" fill="#F2766C"/><path d="M275.308 101.622c-.063-.062-.063-.186-.125-.249.125-.186.249-.311.374-.498v.498c-.062.125-.187.187-.249.249zM278.672 94.902c.312 0 .623.062.872.187-.311 0-.623 0-.934.062 0-.062.062-.124.062-.25zM277.8 102.867l-.374.746c-.81-1.182-1.184-3.422 0-4.23.436-.312.997-.436 1.62-.374.498.249.935.435 1.308.56h.063c-.997 1.058-1.932 2.115-2.617 3.298z" fill="#F2766C"/><path d="M280.791 98.262c-1.247-.124-2.867-.436-4.05.062-1.06.436-1.932 1.991-2.181 3.111-.187.747.872 4.792 2.181 3.361.124-.125.124-.249.124-.312.125-.124.25-.248.312-.435.311 0 .561-.249.498-.56.249-.249.436-.498.686-.809l.187-.187c.436-.435 1.059-.871 1.308-1.431.062-.062.062-.187.062-.311.499-.56.935-1.058 1.309-1.68.249-.373-.063-.747-.436-.809zM322.349 107.533c-.436-.186-.872-.186-1.308-.124-.249 0-.436.062-.686.124-.187.062-.498.249-.685.249-.374 0-.561.373-.498.622-.063.063-.187.125-.25.187-.187.187-.187.436-.062.685 0 .062-.062.062-.062.124-.25.684-.312 1.929.498 2.302.125.062.249.062.374.062.062.125.187.187.312.249 1.682.436 3.115-1.12 3.302-2.675.062-.809-.125-1.494-.935-1.805z" fill="#FBCFC6"/><path d="M263.719 130.245c1.121 2.427 3.302 4.916 5.607 6.285 1.558.933 4.237 1.68 6.106 1.369 2.243.249 4.611-.125 6.979-.436 3.489-.435 7.29-1.929 9.408-4.853 2.181-2.987 1.495-6.16-.187-9.147-1.184-3.36-5.421-6.036-8.287-7.156-2.056-.809-4.361-1.493-6.667-1.369-.373 0-.81.062-1.183.124a2.405 2.405 0 0 0-1.745.312c-.187.124-.312.248-.498.373-1.496.56-2.929 1.369-4.362 2.053-2.056.996-4.984 2.863-5.857 5.165-.747 2.178-.249 5.227.686 7.28z" fill="#FFEDEA"/><path d="M272.878 120.787c-.187-.062-.561-.124-.935-.187a6.17 6.17 0 0 0-1.495-.186c-.623-.063-1.184 0-1.558.186a4.772 4.772 0 0 0-1.121.56c-.873.56-1.745 1.432-1.371 2.738.374 1.369 2.181 2.489 3.24 2.863 1.246.435 2.928.435 3.925-.249.873-.623 1.745-2.054 1.745-3.298-.062-1.494-1.309-2.178-2.43-2.427zM289.202 111.391a1.96 1.96 0 0 1 .561-1.058c1.558-1.431 3.801.934 2.617 2.552-.686.933-2.181.684-2.866-.125-.374-.373-.436-.871-.312-1.369zM277.302 109.4c.062 0 .062 0 .124-.062.063-.063.187-.125.374-.187.312-.062.685-.124.997-.062.311.062.623.249.81.498.311.311.436.746.436 1.244v.311c0 .436-.125.871-.498 1.12a1.587 1.587 0 0 1-1.371.249c-.249 0-.561-.124-.748-.249-.872-.622-1.184-2.364-.124-2.862z" fill="#04213E"/><path d="M316.804 102.182c1.433-1.618 5.109-.373 6.667.187 2.368.871 4.174 2.489 4.798 4.978 1.121 4.604-4.362 10.889-9.16 9.582a.675.675 0 0 1-.498-.498v-.124c-.187-.871 1.184-1.244 1.371-.373 0 .062 2.866-1.058 3.115-1.183.685-.435 1.433-1.12 2.056-1.68 1.496-1.431 2.181-3.546 1.682-5.6-.56-2.24-2.367-3.36-4.423-4.044-.686-.249-3.178-.996-4.237-.498-.125.622-.997.933-1.309.311-.062-.062-.062-.125-.124-.249-.187-.249-.187-.56.062-.809zM274.186 110.271c.374-1.058 1.059-2.115 1.558-3.173.685-1.618 1.495-3.112 2.368-4.667.623-1.182 1.37-2.365 2.118-3.485.685-.995 1.495-2.426 2.492-3.235.125.249.436.31.623.186.125-.062.25-.186.374-.249-1.059 1.68-2.305 3.174-3.302 4.978-1.122 1.992-2.181 4.107-3.24 6.161-.561 1.12-2.056 3.049-2.368 4.542-.124-.436-.373-.747-.623-1.058z" fill="#7F143F"/><path d="M263.968 207.652c.81 3.36 3.178 6.845 5.732 9.147 2.866 2.614 5.608 5.165 8.785 7.467 3.116 2.24 6.418 3.92 10.032 5.165 1.433.498 1.994.435 2.617-.934.249-.622.436-1.12.623-1.742.249-.747.685-1.431.934-2.178.125.374.25.747.436 1.058.25.498.437 1.058.624 1.556.186.373.436.746.498 1.12 0 .249.187.311.311.373.125.124.312.249.499.187 2.991-.498 6.044-.871 8.848-2.054 2.243-.933 4.423-2.178 6.542-3.36 2.18-1.244 4.174-2.489 6.106-4.107 1.682-1.431 4.05-3.671 4.548-5.911.063-.187 0-.311-.124-.435.124-.125.187-.249.124-.498-.374-.871-1.059-1.494-1.682-2.24-1.059-1.307-2.056-2.552-2.991-3.92-.623-.872-1.371-1.681-2.181-2.427-.934-.871-1.682-1.991-2.679-2.738-1.184-.933-2.305-1.493-3.614-2.178-1.433-.684-2.866-1.431-4.361-1.991-1.433-.56-2.804-.622-4.361-.56-.81 0-1.558.187-2.244.435-1.121-1.742-3.115-2.613-4.922-3.484a14.191 14.191 0 0 0-5.981-1.307c-2.679 0-5.234.311-7.602 1.618-.81.436-1.495.933-2.243 1.493.063-.124-.124.063-.311.187-.187.125-.436.187-.623.311-.25.187-.561.374-.81.56-1.496 1.182-2.804 2.489-4.362 3.547-1.495.996-2.305 2.178-3.364 3.609-.935 1.244-1.683 2.302-2.243 3.609-.374-.124-.686.249-.561.622z" fill="#FBCFC6"/><path d="M231.942 246.791c.062.125.187.187.312.311.623.56 1.62.871 2.367 1.12 2.866.996 6.169 1.307 9.222 1.618 1.308.125 4.237-.56 5.171.622.499.623 0 1.556.187 1.992.062.124 2.306-.249 2.742-.249 1.495-.125 2.928-.312 4.361-.809 1.122-.374 2.555-1.12 3.739-1.12 1.183-.063 1.246 1.12 1.121 2.115 1.745-.498 3.552-1.493 5.047-2.302.997-.56 1.994-.871 3.053-1.369.685-.311 1.371-.747 2.118-.933.312-.063.623.124.686.497 0 .561-.187 1.183-.312 1.743 1.371-.498 2.804-1.618 3.739-2.427 1.059-.933 2.118-1.929 3.053-2.987 1.807-1.991 3.551-4.044 5.358-5.973 1.869-1.991 3.302-4.294 4.548-6.72.499-.996 1.122-1.992 1.62-2.987.686-1.245.873-2.676 1.62-3.858a.54.54 0 0 1 .437-.249l-.374-1.307c-.81-2.862-1.122-5.662-1.309-8.649-.187-3.049-.436-6.222-.187-9.209h-.187c-.623-.062-.81-.622-.747-1.182.062-.249.124-.436.124-.685.063-.435-.062-.809.063-1.244.062-.311.373-.436.623-.374.311.063.374.249.56.374h.125c.436-1.183.997-2.365 1.682-3.298v-.809c0-.498-.187-1.369.187-1.805.561-.56 1.309.063 1.994.747.374-.187.748-.373 1.184-.498-.623-2.053-4.548-3.484-6.293-4.044-2.492-.747-5.795-.436-8.225.311-5.358 1.618-9.782 5.476-13.458 9.582-1.744 1.991-3.489 4.045-4.673 6.472-1.121 2.426-2.118 4.915-3.302 7.28-.685 1.431-1.309 3.111-2.119 4.667h-.062c-.062.186-.124.311-.374.311-1.121.249-2.118 1.804-3.364 1.431-.873-.311-.873-.871-1.994-.747-.872.063-1.745.436-2.617.498-1.371.187-2.118.436-3.302-.187-.935-.497-1.994-1.12-2.617-1.991 0 0 0-.062-.062-.062-.125 0-.312 0-.437.062h-.062c-.623-.124-.374-1.12.249-.995.187.062.437.062.623.124h.374c.436-2.178.499-4.293 1.122-6.409-.187.187-.374.311-.623.498-.312.249-.748.186-.873-.249-.186-.56.063-1.12.25-1.68.436-1.307.685-2.614 1.184-3.858.872-2.116 1.37-4.356 1.931-6.534-.125.063-.312.125-.498.249-.312.125-.624-.186-.686-.497-.062-.747.312-1.556.561-2.241.436-1.431.748-2.862 1.121-4.293.374-1.493.624-3.049 1.06-4.605.311-1.12 1.059-2.302 1.37-3.484-.311.186-.685.311-1.121.186a.54.54 0 0 1-.374-.497c.249-3.174 1.682-6.036 2.679-9.085.187-.622 1.184-.373.997.249-.872 2.675-2.181 5.351-2.554 8.151.311-.186.623-.435.747-.56.312-.249.748.062.81.436.063 1.306-.685 2.426-1.121 3.671-.561 1.493-.873 3.049-1.184 4.605-.312 1.493-.685 2.986-1.059 4.48-.125.56-.499 1.306-.686 1.991.25-.187.436-.436.623-.685.312-.373.997 0 .873.498-.81 2.365-1.246 4.854-2.056 7.218-.374 1.058-.81 2.054-1.06 3.111-.124.436-.498 1.245-.685 1.992a7.14 7.14 0 0 1 1.184-.623c.498-.186.747.374.561.747-.997 2.365-.997 4.854-1.496 7.343-.249.124-.311.373-.124.622h-.374c.498.435 1.121.746 1.682 1.058.187.124.623.497.872.56.499.062 2.243-.311 2.742-.374 1.184-.186 2.43-.871 3.551-.435.187.062.187.311.374.373.748.436 1.059.125 1.62-.249.436-.249.81-.56 1.246-.747.686-1.306 1.246-2.675 1.932-4.044 1.184-2.365 2.181-4.854 3.302-7.28 1.059-2.365 2.617-4.356 4.299-6.347 1.869-2.178 3.801-4.231 6.044-6.036 1.745-1.369 3.738-2.738 5.795-3.609 0-.373-.063-.747-.063-1.058 0-.435-.124-.809-.062-1.244.062-.311.187-.498.498-.498.561-.062 1.122.435 1.558.684.374.249.935.623 1.122 1.058.996-.249 2.056-.435 3.115-.622-.062-.622.311-1.991 1.059-1.991.436 0 .872.498 1.184.746.374.312.685.747.997 1.058 1.246.125 2.367.498 3.551.996.187-.311.374-.622.623-.933.125-.187.312-.249.561-.249.249 0 .374.062.623.124.063 0 .312.062.436.187.125.186.187.373.25.56.124.435.062.995.062 1.431 1.308.684 2.617 1.618 3.053 2.987.374-.125.81-.187 1.184-.249 0-.249.062-.56.062-.747.062-.622.623-1.618 1.309-.933.311.311.623.809.747 1.182 0 .062.063.124.063.124 1.619-.124 2.99.063 4.548.623.062-.685.249-1.245.872-1.68.125-.125.374-.063.499 0 .685.373.685 1.431.685 2.053v.498c2.243 1.058 4.237 2.489 6.168 4.044 2.119 1.743 3.739 3.796 5.234 6.098 1.496 2.24 2.866 4.605 4.299 6.845a13.677 13.677 0 0 0 2.804 3.173c.561.436 1.122.872 1.745 1.183 1.059.622 2.18.684 3.364.684 2.804.062 5.919-.622 8.038-2.551 1.184-1.058 1.433-2.489 1.682-3.982-.311.186-.685.249-.997.124-.249-.062-.374-.249-.374-.498-.062-.746.437-1.555.623-2.24.312-.995.561-1.991.873-2.987.124-.373.249-.808.374-1.182.124-.311.249-.435.311-.498h-.311c-.499-.062-1.06.374-1.558.125-1.184-.56-.872-3.485-.81-4.542.062-1.245.311-2.489.498-3.734.125-.871.125-1.556.125-2.427 0-.435.187-1.12.187-1.68-.81 0-1.869.062-2.368-.56-.436-.56-.249-1.618-.187-2.24.187-2.8.499-5.662.561-8.462 0-.685 1.059-.685 1.059 0 0 1.866-.187 3.671-.311 5.538-.062.995-.187 1.929-.249 2.924 0 .249-.187.996-.063 1.245.312.56 1.496.435 1.994.497.249 0 .436.125.499.374.311 1.12-.063 2.489-.125 3.609-.062 1.431-.436 2.862-.561 4.293-.062.871-.374 2.863.125 3.671.436.685 1.059.063 1.807.063.187 0 .374.124.436.249.561 1.057-.436 2.364-.748 3.36-.187.684-.436 1.431-.623 2.115-.125.436-.436.996-.561 1.556.063 0 .063 0 0 .062.312-.498.997-.187.997.249.125-.062.312-.062.436-.124-.187 1.244-.373 2.489-.747 3.671-1.558 4.231-7.166 5.102-11.029 4.916-4.86-.187-7.85-5.165-10.156-8.836-1.557-2.427-2.741-4.978-4.673-7.094-1.931-2.053-4.236-3.858-6.666-5.351-.499-.311-.935-.56-1.496-.809a.635.635 0 0 1-.311.373c-.063.063-.125.063-.25.063v.062c-.186.435-.747.56-1.121.311-.374-.249-.374-.871-.312-1.307 0-.124 0-.187.063-.311-.25-.124-.499-.187-.81-.311-1.122-.373-2.243-.436-3.303-.311.063.186.125.311.25.435.373.498-.25 1.183-.686.809-.498.311-1.246.498-1.62.125-.249-.249-.374-.623-.436-.996-.374.062-.81.125-1.184.249-.124.124-.311.187-.498.124-.312.125-.623.187-.935.374l.187.186c.125.063.249.187.249.436v.062c.063.311-.249.498-.56.498-.374.622-1.433 1.12-2.119.933a8.713 8.713 0 0 0-.934 1.867 9.93 9.93 0 0 0-.437 1.245c.25.186.499.56.81.684.499.249.25.809-.186.934-.063.124-.187.248-.374.373-.187.124-.436.187-.748.249-.249 2.053-.125 4.107-.062 6.284.062 3.174.124 6.534.934 9.583.374 1.556.81 3.173 1.371 4.729.623 1.618 1.495 3.111 2.368 4.605 1.557 2.8 3.115 5.538 5.358 7.84 2.305 2.364 4.798 5.164 7.539 6.969.623.436 1.309.622 1.433 1.431.187 1.058-.685 1.929-1.121 2.862 2.243 1.12 4.486 1.618 6.978 2.178 2.43.498 4.922.685 7.29 1.245 2.679.56 5.172.435 7.788.56 1.371.062 2.617.373 2.617 1.991 0 .124-.124.933-.062.996.249.248.997-.187 1.184-.249 1.308-.498 2.617-1.058 3.925-1.618 1.309-.56 2.43-.871 3.365-1.929.872-.934 1.869-1.805 2.617-2.862.685-.872.81-2.552 2.305-2.054.748.249 1.371.996 1.994 1.369.498.311 1.059.685 1.557.996.686.435 1.184.933 1.87.622 1.121-.56 1.931-2.178 2.617-3.174.81-1.182 1.557-2.364 2.429-3.484 1.558-2.116 2.742-4.418 4.113-6.658.124-.187.374-.311.56-.249.997.249 1.62.871 2.306 1.493.872-1.12 1.495-2.613 2.056-3.858.561-1.306 1.121-2.551 1.558-3.857.373-1.12.623-2.178.81-3.298.124-.56.187-1.307.747-1.618.561-.311 1.122.062 1.683.249.373.124.56.56.997.311.186-.062.436-1.742.436-1.867.623-3.236.249-6.782.249-10.018 0-.684 1.059-.684 1.059 0 0 3.173.312 6.534-.187 9.645-.187 1.307-.374 4.356-2.368 3.298-.373-.187-.996-.809-1.37-.56-.312.186-.312 1.244-.374 1.555-.249 1.369-.685 2.738-1.246 4.045-.935 2.302-1.869 5.351-3.676 7.156-.187.186-.499.186-.748 0-.623-.56-1.122-1.183-1.869-1.494-2.555 4.169-5.109 8.338-8.162 12.196-1.309 1.618-1.745 1.929-3.552.809-.934-.56-1.931-1.12-2.804-1.804-.311-.249-.685-.747-1.121-.623-.249.063-.436.747-.623.996-.623.933-1.62 1.742-2.368 2.551-.748.809-1.308 1.68-2.368 2.178-2.243 1.058-4.797 2.24-7.165 2.925-1.495.435-1.371-.56-1.495-1.618 0-.187.124-.436.062-.56-.187-.374-1.246-.871-1.62-.934-.623-.124-1.371 0-1.994.063-1.37.062-2.804-.063-4.237-.249-1.495-.187-2.928-.623-4.423-.809a27.266 27.266 0 0 1-3.926-.622c-2.99-.685-5.732-1.183-8.411-2.614-.187-.124-.312-.373-.249-.56.249-.995 1.682-2.302.872-3.236-.249-.311-.935-.56-1.246-.808-.686-.498-1.246-1.121-1.869-1.681-2.243-2.053-4.611-4.169-6.605-6.533-1.62-1.991-2.866-4.294-4.112-6.534-1.059-1.866-1.932-3.609-2.617-5.538-.623 1.12-.872 2.489-1.495 3.672-.624 1.182-1.309 2.364-1.932 3.546-.623 1.245-1.433 2.427-2.181 3.609-.81 1.245-1.807 2.178-2.679 3.361-1.682 2.177-3.676 4.231-5.607 6.16-1.122 1.12-2.244 2.302-3.552 3.173-1.059.685-2.368 1.68-3.614 1.867-.374.062-.623-.125-.685-.498-.062-.56.187-1.12.311-1.68-.623.249-1.246.622-1.807.871-1.183.498-2.243 1.058-3.426 1.618-1.558.747-3.303 1.742-5.047 2.053-.436.063-.686-.248-.623-.622.062-.373.124-.684.124-1.058 0-.497-.187-.622-.498-.435-.499-.125-1.682.498-2.181.684-1.184.374-2.368.747-3.614.934-1.308.186-2.679.311-3.987.497-.436.063-1.06.249-1.433-.062-.561-.498-.063-1.12-.187-1.742-.25-1.245-2.43-.685-3.303-.685-2.803-.062-5.732-.497-8.473-1.12-1.184-.248-2.306-.622-3.427-1.057-.748-.312-2.368-.996-2.804-1.743 0-.062-.062-.062-.062-.124 1.059.062 1.62.062 2.118.062z" fill="#7F143F"/><path opacity=".1" d="M42.716 359.666a8.887 8.887 0 0 1 2.119-1.556.341.341 0 0 0 .187-.311 80.617 80.617 0 0 1 5.42-.746 170.6 170.6 0 0 1 14.954-1.058c4.985-.125 9.907.373 14.891.435 5.11.063 10.219-.062 15.328-.062 4.922 0 9.969-.373 14.829.436 3.053.497 6.667.809 9.595 2.24.997 1.804.748 3.609-.125 4.978-2.554 1.493-5.732 2.178-8.598 2.862-6.168 1.493-12.461 2.116-18.754 2.302-10.032.249-20.063-.56-30.094-.809-4.175-.746-8.35-1.742-12.462-2.862-2.367-.622-4.922-1.431-7.29-2.551-.187-.249-.311-.56-.436-.871l-.187-.56c.125-.498.374-1.183.623-1.867z" fill="#04213E"/><path d="M113.995 357.364c-1.184-.187-2.492.124-3.738 0-2.056-.187-3.801-.747-5.546-1.867-2.056-1.369-4.049-3.796-3.426-6.596.311-1.493 1.121-2.675 1.059-4.231 0-.56-.686-.56-.81-.124-1.246-1.12-3.49-.872-4.86-.312a2.333 2.333 0 0 0-.935.809c-.249-.062-.498.063-.498.436-.187 3.111-1.745 6.596-2.929 9.396-.186.435-.311.871-.436 1.244-.124 0-.249.063-.311.249 0 .062 0 .062-.063.125v.062c-.062.187-.124.373-.124.622-.312 1.369-.935 2.738-.748 4.169.125 1.058 1.184 1.867 2.056 2.24.997.436 2.492.249 3.49-.186a4.744 4.744 0 0 0 1.121-.561c1.06.436 2.118.809 3.053 1.121 2.928 1.12 5.919 1.928 8.972 1.182 2.119-.498 5.359-1.618 6.231-4.231.436-1.432-.125-3.298-1.558-3.547zM24.46 319.469c.499-1.058.561-2.426.997-3.547.748-1.866 1.807-3.422 3.365-4.791 1.87-1.618 4.735-2.8 7.29-1.431 1.37.747 2.243 1.805 3.8 2.24.499.125.748-.498.374-.747 1.433-.871 1.807-3.111 1.683-4.542a2.302 2.302 0 0 0-.499-1.12c.125-.187.063-.498-.249-.622-2.928-.996-5.857-3.485-8.224-5.414a5.822 5.822 0 0 0-1.122-.746c.062-.125 0-.249-.125-.374 0 0-.062-.062-.124-.062h-.063c-.186-.124-.373-.187-.56-.311-1.247-.685-2.368-1.68-3.801-1.867-1.06-.187-2.119.622-2.742 1.307-.747.809-.934 2.302-.81 3.36.063.373.125.809.187 1.244-.685.934-1.37 1.805-1.931 2.614-1.932 2.489-3.49 5.102-3.614 8.276-.125 2.178.062 5.6 2.305 7.156 1.247.746 3.24.684 3.863-.623z" fill="#82DBED"/><path d="M98.917 187.616c-.685.435-2.928 1.68-4.112 1.742.187-.871.436-1.742.623-2.613.187-1.12 0-2.303 0-3.485-.062-2.8.311-5.538-.56-8.276-.188-.56-1.06-.311-.873.249.872 2.614.498 5.352.56 8.027 0 1.182.125 2.24-.062 3.36-.187.996-.436 1.991-.56 2.987-.063.249.062.498.311.56 1.558.498 3.925-.933 5.234-1.742.374-.311-.063-1.12-.561-.809z" fill="#1E396B"/><path d="M71.253 285.681c-.623-1.182-.997-2.364-1.06-3.733 0-.311.188-.498.437-.56 1.121-1.494.934-3.049.374-5.04-.686-2.552-1.309-4.729-3.053-6.658-.187-.249-.499-.125-.623.062-1.122-.622-3.739.124-4.673.311-2.555.498-3.988 2.365-4.673 5.04-.499 1.991-.623 4.231-.561 6.534.062.062.062.186.062.311 0 1.307.56 2.738.872 3.982.125.622.499 2.614 1.122 3.547.25.062.498.062.748-.062h.062c.124-.062.25-.187.312-.249.062-.125.062-.187.062-.311v-.187c-.063-1.556-.312-3.111-.374-4.667 0-.746 1.06-.746 1.06 0 0 .934.124 1.867.186 2.8.187.809.374 1.805.685 2.614.187.373.437.684.686.871 1.246.747.997-1.431.934-2.054-.187-1.368-.685-2.8-.436-4.169 0-.435 0-.871.063-1.306.124-.747 1.121-.436 1.059.311-.25 1.555.374 2.987.81 4.48.187.684.374 1.369.623 2.053.25.498.498.872.872 1.12.686.498 1.309.312 1.433-.622.125-.684-.249-1.493-.498-2.115-.312-.996-.436-2.054-.499-3.112-.187-.933-.249-1.929-.311-2.862-.063-.747.997-.747 1.059 0 .125.996.187 2.053.436 3.049.623 1.182 1.433 2.302 2.305 3.36.686.436 1.371.622 1.745.125 0-.996-.997-2.489-1.246-2.863zM149.136 185.625c.187.747.437 1.369.873 1.991.436.933.934 1.805 1.495 2.614.748 1.804 1.433 3.36 2.866 4.604.187.187.374.062.436-.124.873.373 2.742-.498 3.427-.747 1.807-.684 2.679-2.302 2.866-4.48.125-1.618 0-3.422-.311-5.165-.063-.062-.063-.124-.125-.249-.124-1.057-.748-2.115-1.121-3.049-.187-.435-.623-1.991-1.246-2.675-.187 0-.374 0-.561.124h-.063c-.062.062-.124.187-.186.249v.373c.249 1.245.56 2.427.81 3.672.062.622-.686.684-.81.124a22.413 22.413 0 0 0-.499-2.178 13.32 13.32 0 0 0-.81-1.991c-.187-.249-.374-.498-.561-.622-.997-.498-.56 1.244-.436 1.742.312 1.058.81 2.178.748 3.236.062.311.124.684.124 1.058 0 .622-.81.435-.81-.125 0-1.244-.623-2.364-1.121-3.422-.249-.498-.436-1.058-.685-1.556a3.22 3.22 0 0 0-.748-.809c-.561-.311-.997-.124-.997.623 0 .56.374 1.12.561 1.617.311.747.561 1.618.747 2.427.25.747.374 1.493.561 2.24.125.56-.623.685-.81.125-.187-.809-.374-1.618-.623-2.365a19.246 19.246 0 0 0-2.056-2.427c-.561-.311-1.059-.373-1.308.063.124.746.996 1.804 1.246 2.115.56.871.997 1.805 1.246 2.863.062.248-.062.435-.249.497-.063.187-.125.311-.187.498-.25-.56-.499-1.182-.623-1.742-.187-.747-1.247-.622-1.184.186 0 .187.062.374.124.561 0-.187-.062-.063 0 .124z" fill="#F2766C"/><path d="M70.318 281.948c.063-.062.125-.124.125-.187.062-.311.25-.56.436-.809-.062-.062-.062-.124-.125-.186a.757.757 0 0 1-.311-.311c-.312-.498-.374-1.183-.436-1.805-.063-.187-.063-.435-.063-.622 0 .062 0 .062-.062.124-.125.56-.25 1.12-.125 1.68.063.187 0 .374-.124.436.062.187.062.373.124.498.063.373.25.622.374.933 0 .062.063.125.125.249 0 .062 0 .062.062 0z" fill="#04213E"/><path d="M55.115 246.729v-.809c0-1.929.187-3.733.499-5.662 0-.187.062-.374.062-.56-.311-3.236-.498-6.41-.249-9.645v-.062c-.872-4.792-.062-9.894 2.866-13.503.187-.56.374-1.12.623-1.68.063-.187.187-.249.374-.187.374-1.182.748-2.364 1.06-3.547l.373-1.493a46.241 46.241 0 0 1 1.122-3.92c.062-.187.187-.249.311-.311.062-.125.062-.249.125-.374.374-1.68.747-3.422 1.495-4.915 0-.063.062-.125.125-.187l.187-.56c.498-1.742 1.184-3.485 1.931-5.289.81-1.867 1.558-3.609 2.99-5.04l.5-.498a7.492 7.492 0 0 1 2.18-1.804v-.063c-.25-.062-.498-.373-.311-.684.623-.996 1.37-1.805 2.18-2.614.187-.186.499-.124.623.063.561-.623 1.184-1.183 1.807-1.743.748-.933 1.558-1.742 2.68-2.364a1.31 1.31 0 0 0 .373-.249.405.405 0 0 1 .125-.56c2.18-1.307 4.486-1.867 6.791-2.676.063-.311.312-.373.499-.249 1.059-.622 1.931-1.369 3.053-1.866a26.393 26.393 0 0 1 3.053-1.307c2.43-.871 4.735-1.369 7.29-1.556 1.37-.124 2.679-.497 4.05-.435.997.062 1.807.498 2.741.933 1.184.56 2.368.747 3.427 1.431.062.063.187.125.249.187.063 0 .125-.062.187-.062 0 .186.125.311.312.373 4.61 2.24 7.352 6.222 8.91 10.765.249-.062.498 0 .623.249.623.933 1.059 1.929 1.433 2.987.747 1.431 1.495 2.862 1.869 4.542.685 1.556 1.246 3.236 1.994 4.791.997 2.116 2.367 3.796 3.676 5.663.498.684 1.121 1.431 1.558 2.177.436.685.56 1.369.872 2.054.934.871 1.994 1.618 3.24 2.302.249 0 .436 0 .685.062 1.682.063 3.178-.249 4.673.498.561.311 1.184.747 1.807 1.12a9.68 9.68 0 0 0 6.168-2.613c.187-.809.312-1.68.748-2.427.436-.809 1.184-1.307 1.807-1.867.312-.311.561-.622.81-.933 1.122-2.925 1.371-5.974 1.371-9.334 0-.498.498-.684.872-.498-.125-.373 0-.871.499-.871 3.302-.124 5.545-.249 6.978 3.112.623 1.306.436 2.862.561 4.293.187 2.302-.125 4.418-.374 6.72-.436 3.858-1.558 7.28-3.801 10.516-.062.062-.125.187-.187.249-.062.249-.249.498-.498.685-.81 1.057-1.745 1.928-2.679 2.737-3.739.374-5.733 3.423-8.537 5.414-1.931.747-3.925 1.182-6.106 1.182h-.249c-1.807-.56-3.551-1.68-5.358-2.427-1.932-.809-3.863-1.12-5.857-1.369-2.804-2.364-4.548-5.849-6.355-9.022-.187-.311-.374-.685-.561-.996 0 .809 0 1.618.062 2.427.063 4.169.063 8.276-.311 12.445-.374 3.982-2.056 7.467-2.68 11.387-.623 3.609-.124 7.342-.436 11.014-.187 2.364-.623 4.667-.685 7.031-.062 1.68-.125 3.485.125 5.227-.499 1.804-1.62 3.298-3.552 4.107-1.807.746-3.863.497-5.608-.249-1.121-.062-2.243-.249-3.177-.747-.062 0-.062-.062-.125-.062-.872.56-1.931.933-2.928.995-.997.063-1.994-.248-2.866-.746-.063-.062-.187-.125-.25-.187-2.803 1.307-6.293 1.493-8.785.871-.623-.124-1.682-.435-2.554-.995-1.371 1.12-3.053 1.804-4.798 2.115-.062.062-.187.125-.25.187-1.681 1.182-3.738 1.742-5.67 1.742-4.298 0-6.48-4.667-6.853-8.711v-.062c-.062-.063-.124-.125-.187-.125.063.934.125 1.929.125 2.862 0 1.743-.312 3.423-.748 5.103-.25.871-.498 1.991-1.06 2.675-1.495 1.929-4.86 2.925-6.977 2.241-2.43-.747-3.988-3.858-4.736-6.285-.062-.249-.124-.56-.249-.809-.062-.062-.062-.124-.125-.187-.373-1.929-1.557-3.546-1.994-5.475-.436-1.805-.56-3.423-.56-5.289-.125-3.049.685-5.974 1.557-8.774z" fill="#0DCEB2"/><path d="M130.943 224.577c1.495.373 2.99.871 4.486 1.556-1.496-.374-3.053-.872-4.486-1.556z" fill="#FBCFC6"/><path d="M83.029 197.198s-.062.063-.125.063c-.124.124-.311.186-.436.311-.311.186-.623.373-.872.373.062-.187-.062-.373-.187-.498-.125-.124-.25-.249-.374-.311-.25-.249-.748-.124-.685.311 0 .311.187.685.374 1.058 0 .436-.25.996-.312 1.556-.187 1.244-.498 2.489-.997 3.609-.187-.063-.374-.063-.436.186-.935 2.178-2.056 4.418-2.617 6.721-.25 1.182-.56 2.302-.81 3.422 0 0 0 .062-.062.062a132.017 132.017 0 0 0-2.243 7.031c-.063.249 0 .374.124.436-.498 1.742-.934 3.547-1.37 5.351-.374 1.494-.623 3.049-.81 4.605-.063.062-.187.124-.187.249-.561 2.115-.873 4.169-1.06 6.284-.373 1.743-.623 3.485-.81 5.227a39.002 39.002 0 0 0 0 8.525c.187 1.742.25 3.485.374 5.227.125 1.493.686 3.111.25 4.604-.063.063-.063.125-.063.187v.125c-.062.497.686.56.81.124.312-.871.25-1.867.125-2.8-.187-1.618-.312-3.236-.436-4.854-.063-.56-.063-1.12-.125-1.68a.473.473 0 0 0 .125-.311c-.125-2.115-.499-4.169-.125-6.222.25-1.431.374-2.8.436-4.294.063-1.244.125-2.489.25-3.671.124-.498.186-.933.311-1.431.623-2.925.997-5.911 1.558-8.836.498-2.489 1.184-4.916 1.931-7.342.686-1.369 1.122-3.049 1.496-4.729.373-1.12.685-2.24 1.059-3.36.748-2.552 1.433-4.978 2.617-7.343.934-1.867 1.308-3.92 1.682-5.973h.062c.125.186.374.248.623.062l.187-.187c.436-.249.81-.747 1.184-.996.436-.373 0-1.12-.436-.871z" fill="#04213E"/><path d="M89.135 154.388c.124-.311.187-.56.25-.809 0-.124 0-.186.061-.311.063-.249.063-.498.125-.684 0-.063 0-.125-.062-.125-.063-.062-.187-.124-.25-.186l-.124-.125c-.125-.124-.125-.435 0-.56.997-1.369 4.486-1.244 6.044-1.431a.635.635 0 0 1 .373-.311c.81-.249 1.62-.311 2.43-.56.81-.249 1.683-.249 2.555-.249.374 0 .561.311.561.56.934-.187 1.869-.311 2.804-.436 1.308-.249 2.616-.497 3.925-.56 2.118-.186 4.299-.497 6.417-.746a12.23 12.23 0 0 1 2.555-.249c0 .062 0 .062.062.124 1.558 3.734.623 7.965-.373 11.698-1.122 4.294-2.804 10.392-7.602 11.761-.249.062-.374.249-.374.435-.623.249-1.121.747-1.246 1.618-.124.809.187 1.369.748 1.991.623.685.81 1.369.747 2.116-.062.124-.124.249-.124.373-.499 1.245-.748 2.8-1.433 3.983-.062.435-.187.809-.249 1.244-.623 1.742-1.309 4.48-2.43 5.725-3.739 4.169-4.549-4.605-4.798-6.783-.312-2.364-.436-5.538-2.68-6.969-.061-.062-.124-.062-.124-.062-.997-1.618-2.554-2.8-4.299-3.734-.436-1.057-.623-2.302-.872-3.36-.374-1.68-.748-3.298-.997-5.04-.374-2.551-.56-5.289-1.06-7.84-.31.124-.685-.124-.56-.498z" fill="#F2766C"/><path d="M78.044 178.905c.623 1.12 2.866.746 3.801.497a18.496 18.496 0 0 0 2.928-1.057c.624 1.742 3.614.124 4.487-.436.872-.622 1.308-1.182 1.682-2.178.311-.871.374-1.307 1.059-1.991.374-.373.81-.809 1.246-.996.748.498 2.368.747 2.18-.684-.124-.996-1.495-1.182-1.058-2.365.249-.622.81-1.057.623-1.804-.125-.622-.499-.933-.935-1.182-.311-.498-.124-1.245-.498-1.743-.125-.249-.436-.373-.561-.56-.374-.56-.499-1.369-.56-2.053-.063-1.307-.998-2.302-1.06-3.734 0-.56 0-1.182.311-1.617.437-.623.997-.436 1.496-.623.249-.124.436-.062.623-.373.25-.311.187-.684.187-1.058.062-.56-.125-.809.436-1.058.25-.062.56 0 .748-.062.997-.435.373-1.804.498-2.675.125-.934.436-1.369-.56-1.805-1.247-.56-3.303 0-4.611.311-.81.187-1.309.311-1.683.622-.436-.311-.934-.373-1.308.312-.499.808-.499 1.742-.125 2.613-1.37.747-2.866 1.991-3.427 2.987-.934 1.68.561 2.115 1.994 2.364.935.187 1.807.498.561 1.68-.374.311-1.06.685-1.495.934-1.246.684-2.43 1.12-3.49 2.115-.81.809-1.433 1.867-.124 2.489.56.249 1.308.249 1.869.249.56 0 1.495-.124 1.184.809-.187.436-1.37 1.12-1.745 1.431-.249.249-.498.436-.685.685-1.06.56-2.056 1.244-2.68 1.991-.124.124-.186.373-.062.56.623.809 1.994.809 3.427.435.125.187.25.312.25.436-.25.249-.499.436-.561.498-.561.498-3.178 1.369-2.991 2.551v.062c-1.246 1.183-1.994 2.427-1.37 3.423zM111.316 152.77c0-.311.125-.622.561-.746.062 0 .187 0 .249.062h.062c.125 0 .187 0 .312.062.187.125.374.249.436.436.125.311.125.622 0 .871-.062.124-.124.187-.187.311-.623.373-1.371 0-1.433-.747v-.249zM101.472 153.268c.124-.498.56-.622.997-.685.186 0 .249.125.249.249.374.125.498.498.436.934-.062.498-.499.684-.935.622-.498-.062-.934-.622-.747-1.12zM105.833 152.521c0-.249.125-.311.312-.311.186-.124.498-.062.498.249 0 1.12.187 2.551.312 3.671.124 1.058.186 1.992.186 3.049.187 0 .374.063.561.063.374 0 .686-.125 1.059-.187 0-1.369-.062-2.8-.186-4.107-.063-.684-.25-1.618-.063-2.302 0-.062 0-.125.063-.187v-.062c.186-.373.685-.062.498.311.125.684.125 1.369.187 2.053.124 1.245.249 2.489.311 3.734 0 .498.125 1.058-.373 1.307-.25.124-.686.062-.997.062H107.64c-.312.062-.623.062-.935.062-.124 0-.187-.062-.249-.124-.498-.996-.187-2.24-.249-3.298 0-1.307-.249-2.614-.374-3.983 0 .063 0 .063 0 0z" fill="#04213E"/><path d="M102.344 160.113c.062 0 .062-.063.124-.063.187-.124.374 0 .437.187 1.308 1.369 2.554 2.116 4.548 2.054 1.122-.063 2.056-.187 2.928-.685 0-.124 0-.187.125-.249a3.52 3.52 0 0 0 1.371-1.493c.124-.187.249-.436.498-.436s.312.187.436.311c.25.125.125.436 0 .498-1.246 1.805-3.053 2.862-5.296 2.862-1.682 0-4.735-.871-5.233-2.675-.125-.125-.063-.249.062-.311zM35.8 312.313c2.555 1.805 5.047 3.672 7.851 5.041 2.492 1.244 5.171 2.551 7.913 3.297 2.68.747 5.483.996 8.224 1.369 2.742.312 5.359.312 8.1-.062 5.234-.809 10.156-2.987 14.33-6.284 8.225-6.41 11.34-16.677 12.774-26.57.062.186.25.311.436.186.187-.062.312-.186.436-.311l.187.187c0-.124.062-.249.062-.436.187-.124.312-.248.499-.311.436.996.934 1.991 1.495 2.863.125.186.25.373.436.622-.311 1.618-.436 3.049-.436 3.796a62.786 62.786 0 0 0 .063 5.911c-.561 2.427-.686 4.916-.686 7.591-.56 1.494-.872 3.111-.872 4.916 0 1.68.374 3.858 1.059 5.911-1.246 1.68-1.994 3.298-2.43 5.476-.498 2.489-.25 5.289.062 7.778.063.56.125 1.307.25 2.053-.125.685-.187 1.307-.312 1.992-.25 1.555-.748 3.235-.81 4.729-.062.871.125 1.431.436 1.804.063.933.187 1.929.623 2.427.748.933 2.555.933 3.552.933 1.246.062 2.741.187 3.614-.933.186-.249.311-.622.436-.933.623-.623 1.184-1.369 1.557-2.303 1.558-1.867 2.804-3.982 3.116-6.658a13.579 13.579 0 0 0 0-3.173c.374-1.431.623-2.863.747-4.294.935-.311 1.745-.871 2.493-1.929 1.62-2.364 1.62-6.035 1.37-8.773-.062-.56-.062-1.058-.062-1.556.125-.311.187-.622.312-.933 1.121-3.983 1.495-8.463.56-12.57.25-.311.437-.684.623-.995 1.184-1.867 1.994-3.92 2.306-6.16.124-.374.187-.871.124-1.307.25-2.862.063-5.849-.623-8.649a9.93 9.93 0 0 0 .437-1.245 29.114 29.114 0 0 0 1.308-6.471h.187v-.436c-.062-.809-.062-1.68-.062-2.489h-.063v-1.244c-.062-1.618-.124-3.236-.374-4.854.063-.311.063-.684.125-.995.249-.809.561-1.68.623-2.427.125-1.555.062-2.924-.498-4.356-.125-.373-.623-.622-.997-.248-.063.062-.063.062-.063.124-.872-.498-1.931-.809-3.115-1.058-7.414-1.742-14.891-.747-22.306-1.867-3.551-.497-6.978-.995-10.592-.933-.062.187-.25.373-.498.311-2.181-.186-4.362-.311-6.48.498-1.184.436-2.119 1.244-3.053 1.991 1.121 2.614 1.495 5.476 1.993 8.338 1.371.996 2.617 2.303 3.801 3.671-.187 1.681-.374 3.361.063 5.041.249.933.623 1.804.996 2.675.312.747.499 1.618.873 2.365.498.995.934 1.742.997 2.924 0 .934 0 1.867.062 2.8.187 1.743.374 3.298.311 5.041 0 1.929-.186 3.857-.872 5.662-.311.933-.81 1.867-1.62 2.489-.56.373-1.184.622-1.744.996a5.373 5.373 0 0 0-2.056 2.489c-.624 1.68-.624 3.982-2.306 5.102-2.928 1.929-7.04.995-9.907-.373-1.121-.56-2.492-.934-3.676-.685-1.807.311-3.177.933-5.047.187-2.803-1.12-4.548-3.734-7.165-5.165-2.056-1.12-4.922-.809-6.48 1.058-1.37 1.68-2.492 4.293-2.18 6.471 0 .249.124.436.186.623-.062 0-.124 0-.187-.063-.498-.373-.747.063-.436.311z" fill="#04213E"/><path d="M113.061 149.908c-.25-.933-.063-1.12.498-.56.374.249.748.56 1.184.809.374.249.81.684 1.308.498.063 0 .063-.062.125-.062.125.933-.062 2.177-.062 2.737-.063 1.058-.249 2.178-.374 3.236-.436 3.298-1.558 6.907-3.178 9.769-.934 1.743-1.994 2.489-3.676 3.36-.685.311-1.246.871-1.246 1.68 0 .623.374.747.872.872a.592.592 0 0 0 .623.248h.125l.748.374v.062c.062 0 .124 0 .124-.062.063 0 .125.062.125.062.374.124.498-.124.997-.124.249 0 .311-.187.249-.374l.561-.186a.476.476 0 0 0 .311.124c.25 0 .374 0 .499.124.623 1.183 1.807 2.054 2.928 2.676.935.56 2.866.622 2.866-.933 0-.809-.872-1.867.623-1.431.997.248 2.057.871 2.929 1.306 1.371.685 3.053 1.058 4.361 0 1.06-.871 1.246-2.551.748-3.795-.249-.685-.81-1.307-1.371-1.805-.561-.56-.81-1.058.125-1.618.374-.249.872-.249 1.246-.435.935-.436 1.371-1.307.685-2.24-1.121-1.556-3.551-1.805-5.109-2.738-.498-.311-1.246-.622-1.059-1.183.125-.435.436-.56.872-.808.374-.249.623-.312.748-.747.125-.56-.187-1.12-.561-1.494l-.872-.871c.062-1.306-.997-2.115-1.558-3.422-.561-1.244-.374-2.551 0-3.796-.062-.249-.062-.435-.124-.622-.25-.871-.686-1.68-1.558-2.053-.187-.063-.312-.063-.436.062-.561.062-.873.249-1.122.498-1.931.186-3.863-.249-5.794.062-1.184.187-2.368.436-3.552.622-.561.062-1.308.062-1.682.498-.125.124-.125.373.062.436 1.059.684 2.493.871 3.676 1.306.873.311 2.056.747 2.991.498.187-.062.249-.187.187-.373 0 0-.062-.125-.062-.187z" fill="#04213E"/><path d="M136.301 143.686c-1.246-1.432-4.361-.809-6.044-.747-3.115.062-6.168.435-9.221.622-1.308.062-2.617.187-3.988.311-1.059-2.986-1.682-6.098-2.492-9.147-.872-3.36-2.056-6.658-2.679-10.08-.436-2.302-.935-7.716-3.053-10.205-.436-1.307-.997-2.613-1.869-3.671-1.62-2.053-3.801-3.36-6.418-3.858-2.243-.436-4.486-.373-6.106 1.369-1.807 1.991-2.368 4.853-2.866 7.405-.56 2.738-1.122 5.413-1.309 8.151a55.353 55.353 0 0 0-.186 4.542c0 1.743-.25 3.547-.187 5.29.187 3.235-.312 6.409-.748 9.644 0 .125 0 .187.062.187-.062.062-.124.124-.187.249-.187.995-.374 1.991-.56 3.049-4.05.56-8.163 1.555-12.088 2.489-2.305.56-4.548 1.182-6.791 2.053-1.184.498-3.24.996-3.739 2.302a.398.398 0 0 0 0 .374c-.062.187.062.435.25.56.062.124.249.249.436.249 1.62.124 3.177-.436 4.797-.747.25-.062.499-.062.686-.124 1.37-.125 2.679-.498 4.05-.747 1.993-.373 4.05-.498 5.98-.933l4.674-.374c1.121-.124 2.18-.311 3.24-.498 1.931-.248 3.863-.56 5.794-.871 1.807-.186 3.676-.373 5.483-.56 2.991-.311 5.982-.809 8.973-1.369 1.993-.124 3.987-.249 5.919-.497 3.738-.498 7.477-.872 11.215-1.307 2.305-.311 4.985-.56 7.228-1.307.747-.124 1.37-.373 1.62-.995.311-.436.249-.685.124-.809z" fill="#82DBED"/><path d="M95.926 146.112c2.368-.249 4.736-.435 7.166-.622 1.308-.062 2.617-.124 3.987-.124l2.617-.312c2.243-.186 4.985.125 7.103-.622.249-.062.312-.373.187-.622-.374-.809-.561-1.618-.872-2.427-.063-.249-.436-.311-.623-.186-.873.435-2.555.186-3.552.311-1.557.186-3.177.435-4.735.56-3.178.311-6.355.56-9.533.871-2.68.249-5.483.56-8.1 1.058l-.56.186c-.25 1.058-.624 2.054-.998 3.049 2.68-.186 5.296-.809 7.913-1.12z" fill="#04213E"/><path d="M244.84 36.1c-4.237-7.903-9.035-16.365-15.577-22.65-6.293-6.098-15.265-10.142-23.677-12.196C200.29.01 194.87-.364 189.511.384c-5.732.808-11.651 1.99-17.197 3.484-5.046 1.369-9.47 4.044-13.582 7.218a29.834 29.834 0 0 0-5.608 5.6c-.062.124-.125.186-.249.311-4.362 3.422-7.789 7.902-10.842 12.507-7.601 11.325-11.713 26.072-6.853 39.326 3.053 8.338 5.919 16.614 11.153 23.894 1.059 1.493 2.554 3.111 2.99 4.978.436 2.178-.685 4.418-1.308 6.409-.561 1.804-.81 3.609-1.496 5.351-.623 1.494-1.433 2.738-1.183 4.356 0 .187.249.373.436.373 1.371 0 2.492-.684 3.614-1.431 1.682-1.182 3.24-2.24 5.046-3.236.623-.373 1.558-1.182 2.181-1.493 1.558-.622 2.991.249 4.424.871 1.931.809 3.801 1.867 5.857 2.365 2.367.56 4.673 1.369 7.04 1.866 2.181.498 4.487.374 6.543.996s3.8 1.12 5.981 1.182c2.492.063 4.922-.249 7.415-.311 5.109-.249 10.156-.435 15.078-1.742 4.735-1.245 9.159-3.422 13.52-5.6 2.181-1.12 4.362-2.24 6.356-3.609 1.557-1.058 3.364-2.054 4.61-3.423 3.303-3.67 6.293-7.715 8.973-11.884 1.121-1.743 2.492-3.298 3.24-5.227.747-2.054 1.121-4.418 1.682-6.596.561-2.116.623-4.17.81-6.347.249-2.427.748-4.791 1.184-7.218.872-4.605.187-9.085-.187-13.69-.436-4.977-1.994-9.27-4.299-13.564z" fill="#09366D"/><path d="M218.92 42.447c-1.371-5.04-4.237-10.205-10.779-10.267-3.116-.063-6.916.809-9.346 2.738-2.056 1.617-3.302 3.795-4.798 5.849-.436-.747-.748-1.556-1.184-2.303a16.868 16.868 0 0 0-2.866-3.795c-2.118-2.178-4.797-3.734-8.037-3.983-5.733-.497-12.275 3.05-14.767 7.716-1.558 2.925-1.932 6.285-1.994 9.52-.062 3.485.062 6.907.81 10.33 1.495 6.782 4.922 13.813 9.658 19.29.934 1.057 2.243 1.741 3.489 2.488 1.059.622 2.118 1.307 3.053 2.116.374.498.748 1.058 1.121 1.555.81 1.183 1.87 1.805 3.053 2.676.437.56.873 1.182 1.371 1.742.686.81 1.371 1.68 2.43 2.054.249.062.623-.063.748-.25.81-1.244 1.62-2.177 2.118-3.546.748-1.867 2.181-2.862 3.676-4.231 2.866-2.551 4.923-5.663 7.664-8.276 4.798-4.667 10.343-8.836 13.396-14.747 2.679-5.227 2.617-11.263 1.184-16.676z" fill="#FF766B"/><path d="M251.943 128.752h-4.299c-.437 0-.437.622 0 .622h4.299c.436-.062.436-.622 0-.622zM255.494 112.573c-1.121-.373-1.869-1.306-3.115-1.431-.436-.062-.436.56 0 .622 1.246.125 2.056 1.245 3.24 1.556.187.062.374-.062.374-.187.062-.124.062-.249.124-.373.125-.436-.498-.56-.623-.187zM270.822 91.044c-.561 0-.997-.996-1.247-1.369-.249-.498-.498-1.058-.623-1.68-.062-.373-.685-.249-.623.187.125.746.499 1.555.935 2.24.311.56.81 1.244 1.558 1.306.436-.062.436-.684 0-.684zM295.121 71.879c-.748-.622-.872-2.178-.748-3.05.063-.372-.623-.372-.623 0-.124 1.059.063 2.739.935 3.485.249.25.748-.186.436-.435zM328.518 78.475c-.81 1.182-1.309 2.489-2.181 3.67-.561.747-1.184 1.308-1.308 2.24-.063.374.56.374.623 0 .124-.933 1.183-1.804 1.682-2.613.561-.995 1.059-1.99 1.682-2.924.249-.373-.249-.685-.498-.373zM336.618 99.009c-.312 1.804-2.057 3.111-3.365 4.355-.312.311.187.747.436.436 1.371-1.307 3.178-2.738 3.489-4.667.125-.311-.498-.498-.56-.124zM345.901 116.494c-.124 0-.187-.063-.311-.063-.312-.062-.499.312-.312.498-.436.436-1.059.623-1.495 1.058-.374.373-.623 1.307-1.246 1.245-.436 0-.436.622 0 .622.81 0 1.121-.622 1.557-1.182.499-.747 1.558-.934 2.056-1.743.063-.124 0-.373-.249-.435zM349.577 134.414c-2.056-1.12-4.548-.498-6.729-.435-.374 0-.374.622 0 .622 1.932 0 4.237-.56 6.044.187.062.124.125.186.249.186h.249c.374 0 .437-.435.187-.56z" fill="#04213E"/></svg>