<svg width="400" height="338" fill="none" xmlns="http://www.w3.org/2000/svg"><path d="M345.287 152.741c-1.081-4.122-1.824-8.311 0-12.297.675-1.487 1.486-2.838 2.161-4.325.811-1.689 1.486-3.513 2.161-5.337 2.77-7.433 5.944-15.068 6.012-23.243.067-7.5-2.905-14.594-6.484-20.878-3.513-6.216-7.498-12.297-13.644-15.675-3.039-1.622-6.281-2.838-9.456-3.987-3.512-1.283-7.024-2.365-10.671-3.04-7.835-1.487-15.67-.608-23.573-.54-1.621 0-3.309.067-4.93-.068-2.297-.203-3.85-1.216-5.336-3.04-2.567-3.041-4.188-6.622-5.539-10.474-2.228-6.486-3.917-13.107-7.902-18.715-1.824-2.568-3.715-5.135-6.146-7.162-2.297-1.96-4.661-2.703-7.497-2.838-7.295-.338-14.387 2.567-21.209 5-6.619 2.364-13.17 5.27-18.776 9.662-6.214 4.864-11.888 10.608-17.629 16.08-2.837 2.77-5.741 5.54-8.983 7.77-3.242 2.163-6.889 3.717-10.537 4.798-3.444 1.013-6.956 1.554-10.536 1.419-1.486-.068-3.107-.203-4.39-1.014-1.554-1.013-2.297-3.108-2.905-4.932-2.093-6.622-3.985-13.378-8.307-18.784-3.715-4.662-8.781-7.972-14.387-9.053-7.092-1.42-13.846.473-20.33 3.378-6.889 3.04-13.508 6.621-19.587 11.216-5.539 4.189-10.874 9.256-13.779 16.013-1.35 3.176-2.364 6.554-2.701 10.067-.406 4.325.135 8.649.472 12.905.406 4.054.203 8.176.203 12.298 0 3.986-.135 8.243-1.689 11.959-.54 1.351-1.283 2.702-2.026 3.986-1.283 2.095-2.972 2.838-5.066 3.649-3.444 1.351-7.159 1.824-10.604 3.243-3.039 1.284-6.01 1.757-8.78 3.784-2.5 1.824-4.525 4.121-6.146 6.824-3.648 5.946-7.768 13.243-6.62 20.675.54 3.581 1.351 7.23 2.635 10.54 1.418 3.717 3.647 6.622 5.808 9.798 2.162 3.243 4.12 6.756 6.35 9.932.067.135.134.202.202.338v.135c0 .067.067.135.067.202v.068c.27 1.486.676 3.176 1.621 4.324.068.068.068.135.135.203-.202 0-.405.067-.607.135-.203.068-.27.338-.136.541 1.284 1.554 3.783.81 5.404.743 4.187-.135 8.105.338 12.225 1.284 3.782.878 7.565 1.418 11.347 1.959 3.917.54 7.835 1.149 11.82 1.419 4.052.27 8.105-.068 12.157.203 3.985.27 7.97.473 11.955.405 8.241-.068 16.413-.473 24.586-.743 8.105-.271 16.142-1.081 24.18-2.027 8.037-.879 16.075-1.149 24.18-1.622 8.172-.473 16.345-1.216 24.585-1.419 8.105-.202 16.278-.405 24.383.068 3.917.203 7.835.811 11.752 1.148 4.053.338 8.038.676 12.09 1.082 4.188.472 8.376 1.081 12.496 2.026 3.917.879 7.834 1.352 11.819 2.027 3.85.676 7.633 1.825 11.483 2.771 3.782.878 7.564 1.756 11.279 2.973 3.715 1.216 7.43 2.635 11.077 4.121 1.621.676 3.175 1.284 4.931 1.284 1.688 0 3.309-.338 4.93-.608 5.809-.879 13.509-2.635 16.548-8.851 1.418-2.838 1.283-6.352 1.283-9.46 0-3.918-.135-7.837-.675-11.689-.878-7.905-4.796-14.932-6.754-22.634z" fill="#FFD1C7"/><path d="M156.298 142.803c-.271-2.095-.878-4.054-1.554-6.081-.675-1.959-1.891-3.716-2.972-5.473-1.013-1.689-2.161-3.311-3.242-4.932-.608-.946-1.418-1.622-2.161-2.365-.27-.27-.54-.608-.811-.878l-.202-.406c.135-.067.135-.27 0-.405-.203-.203-.473-.338-.676-.541-.135-.135-.27-.27-.405-.338l-.135-.135-.067-.067s-.068 0-.068-.068c.068-.067.135-.203.068-.27-.406-.946-1.621-1.487-2.364-2.027-.878-.608-1.554-1.487-2.364-2.162 0-.068 0-.135-.068-.203-.203-.135-.473-.27-.675-.405-.068-.068-.135-.068-.135-.068-.338-.203-.676-.338-1.014-.54-.472-.541-.945-1.081-1.486-1.554 0-.068 0-.136-.067-.271-.27-.405-.675-.54-1.081-.608-.27-.135-.473-.27-.743-.405 0 0 .068 0 .135-.068.203-.135.406-.135.541-.27s.135-.405-.135-.473c-1.013-.135-1.959-.27-2.905-.608h-.067l-.405-.405c-.338-1.082-2.162-1.825-2.972-2.5-.135-.136-.338 0-.406.135l-.067-.068a2.117 2.117 0 0 0-.608-.743v-.203c-.338-.743-.946-1.419-1.486-2.027.135 0 .27-.067.405-.067 0 0 0-.068-.067-.068 0 0-.068-.067-.068-.135v-.068c-.067 0-.067-.067-.067-.135l-.068-.338c0-.067 0-.202.068-.202 0-.135.067-.203.067-.338-.067-.473.068-1.014.068-1.554 0-.068 0-.068.067-.135-.067-.473-.202-.879-.337-1.352-.271-.608-.541-1.216-.608-1.824-.473-.135-.878-.27-1.351-.27-.068 0-.135.067-.203.067-.202-.067-.405-.067-.608-.135-.405-1.148-.81-2.364-1.283-3.513a23.819 23.819 0 0 0-1.081-2.297c1.486-1.487 1.689-3.92 1.014-5.811-.068-.135-.203-.203-.338-.135-.27-.676-.743-1.216-1.621-1.554-.811-.338-2.229-.27-2.904.338-.271.202-.608.675-.811 1.08a5.126 5.126 0 0 0-1.283-.81c-.743-.338-1.554-.54-2.364-.676-.068-.135-.203-.27-.27-.405-.068-.068-.203-.135-.271-.068-.067-.067-.135-.135-.202-.135h-.068c0-.203-.27-.338-.405-.135l-.203.405v.068l-.405-.203c-.338-.202-.675-.338-1.013-.54 0-.135-.203-.27-.405-.203-.473-.203-1.013-.473-1.486-.676-.203-.067-.338.068-.338.27 0 .474.27.879.54 1.284-.337 0-.675 0-1.08.068-.135-.068-.203-.068-.338-.135-.068-.068-.203-.068-.27-.135-.473-.135-.946-.338-1.351-.473-.203-.068-.338.067-.338.27 0 .27.068.473.135.743-.878.203-1.688.54-2.364 1.014 0 0-.067-.068-.135-.068-.878-.135-1.553-.473-1.891.608a5.633 5.633 0 0 0-.203 1.487v.608c0 .067-.067.135-.067.203-.405.743-.675 1.486-.946 2.162-.067.135-.135.27-.135.473-.135 0-.337.067-.472.067-1.149.27-2.094 1.216-2.297 2.433-.203 1.35.54 2.432 1.621 3.108.068.067.203.067.27.135v.135a.592.592 0 0 0-.472.608c-.068.743.067 1.486.405 1.959 0 .338 0 .608-.068.946-.405.338-.945.608-1.148.879-.405.473-.675 1.013-.675 1.621 0 .473.27.946.27 1.352 0 .878-.406 1.554-.81 2.229 0 .135 0 .27-.068.406-.878 1.486-1.756 2.973-2.5 4.527-.337.878-.675 1.756-.945 2.635-1.283 3.918-1.959 8.108-2.972 11.959-.473 1.824-.81 3.648-1.08 5.405h.135c-.068.068-.136.135-.203.27-.743 6.081-.068 12.027 1.148 18.311v.203c.068.202.135.473.27.675.068 1.419.068 2.838.27 4.324.136.946.27 1.825.406 2.771 5.673-.541 11.212-1.825 16.75-2.771 6.822-1.216 13.779-2.027 20.668-2.972 9.524-1.217 19.047-2.365 28.57-3.852l.406-1.216c.337-1.554.202-3.378 0-5.27z" fill="#F2766C"/><path d="M138.467 116.723c-.068 0-.068-.068-.135-.068l.337.338c.406.338.743.676 1.148 1.013-.405-.473-.81-.946-1.35-1.283zM119.825 88.885c0-.068 0-.068.067-.135l-.202-.203v.27c.067 0 .135.068.135.068zM117.866 85.98c-.135 0-.27.067-.405.135.135 0 .27-.068.473 0-.068 0-.068-.068-.068-.135zM118.744 89.628c.068.135.135.203.203.338.27-.608.338-1.689-.27-1.96-.203-.134-.473-.134-.743-.067-.203.135-.405.27-.541.338h-.067c.54.405 1.013.878 1.418 1.351z" fill="#F2766C"/><path d="M117.056 87.67c.54-.136 1.283-.406 1.891-.204.54.136 1.013.811 1.216 1.284.135.338-.068 2.297-.811 1.69-.067-.068-.067-.068-.067-.136a35.29 35.29 0 0 1-.203-.203c-.135 0-.27-.067-.27-.27-.135-.135-.27-.202-.338-.338l-.067-.067c-.271-.135-.541-.338-.676-.608 0-.068-.067-.068-.067-.135-.271-.203-.541-.406-.743-.676-.136-.068 0-.27.135-.338zM98.482 94.696c.202-.135.405-.135.608-.135h.337c.068 0 .27.067.338.067.203 0 .27.135.27.27.068 0 .068.068.135.068.068.068.135.203.068.27v.068c.202.338.27.878-.068 1.081-.067.068-.135.068-.135.068a.145.145 0 0 1-.135.135c-.743.338-1.486-.338-1.689-1.014-.135-.337-.135-.675.27-.878z" fill="#FBCFC6"/><path d="M125.227 97.007c-.81-.54-1.418-.609-2.364-.879-.472-.135-.945-.27-1.351-.405-.472-.676-.878-1.622-1.823-1.69-.338 0-.676.136-.878.338-3.31 1.42-7.362 6.554-4.12 9.527 2.431 2.162 9.05 1.825 10.671-1.283.338-.338.608-.744.811-1.284.608-1.487.54-3.31-.946-4.324z" fill="#FFEDEA"/><path d="M121.378 98.21c.203.472.811.878 1.284 1.013.54.135 1.283-.068 1.756-.406.405-.27 1.081-.945 1.013-1.486-.068-.54-.608-.743-1.013-.878-.203-.068-.405-.068-.608-.068-.203 0-.473 0-.743.135a2.398 2.398 0 0 0-.608.27c-.135.068-.338.135-.405.203-.473.203-.878.608-.676 1.216z" fill="#04213E"/><path d="M294.968 337.399c7.564-11.756 15.94-22.972 23.639-34.594-28.165 1.014-56.262 2.162-84.427 2.23-16.953.067-33.906-.27-50.792-1.081-16.277-.811-32.488-2.365-48.698-3.649-11.549-.946-23.234-1.892-34.581-4.054-8.578-.202-17.224-.811-25.666-2.027-6.484-.946-12.766-2.297-18.844-4.527-4.931-1.824-10.334-4.189-13.441-7.972-2.635-3.176-2.702-7.365.27-10.406 3.647-3.783 9.928-5.608 15.264-7.162 7.295-2.094 14.657-4.189 22.222-5.743 9.523-1.892 19.317-3.108 29.043-4.121 10.536-1.149 21.073-2.838 31.677-3.581 10.266-.676 20.668.405 30.867-1.081.743-.136 1.013.81.337.945-.472.068-1.013.136-1.485.203 10.198-.338 20.397-.608 30.596-.946a6783.865 6783.865 0 0 0 52.345-2.229c17.426-.811 34.852-1.825 52.278-2.635 6.754-.338 13.441-.811 20.127-1.284 1.689-.271 3.378-.608 5.066-.879 4.931-.878 9.929-1.756 14.657-3.175v-.135c.675-.271 1.418-.473 2.093-.744 3.985-1.554 7.903-3.581 11.55-5.878h.068l.202-.203c.203-.135.406-.202.541-.337h-.135c1.756-1.284 3.377-2.703 4.863-4.122 4.593-4.324 7.835-10.27 9.253-15.878 1.013-4.121.203-8.04-3.445-11.148-10.942-9.392-26.814-10.473-41.538-12.23-15.737-1.892-31.677-3.716-47.55-4.865-16.615-1.216-33.298-1.148-49.913-.878-5.336.068-10.604.203-15.94.338-4.323 0-8.646.067-12.968.135-6.147 0-12.293 0-18.372.203-2.769.067-5.538.202-8.308.473-2.971.27-5.943.202-8.915.202-6.214 0-12.36.338-18.507.676-12.36.743-24.72-.338-37.08-.27-6.349 0-12.698.067-19.047-.135-5.876-.136-11.685-.811-17.561-.676-5.876.135-12.428.405-18.034 1.892-.81.202-1.283.405-1.486.675-.135-.405-1.08-.405-1.148.136-.27 1.689-.608 3.378-.675 5.067-.068 1.149-.406 2.635 0 3.784.067.202.27.338.54.338 2.296.135 4.728-.271 7.092-.271h10.266c5.809 0 11.55.271 17.359.271 5.47 0 10.941.202 16.412.405 5.944.203 11.888.203 17.831.608 11.685.878 23.438.338 35.055 1.216 12.09.879 24.247 1.149 36.337 1.554 6.214.203 12.361.338 18.575.406 3.039.067 6.146-.068 9.185.067 1.013.068 2.027.068 3.107.203 12.901-.135 25.801-.338 38.702.338 6.754.338 13.576.878 20.33 1.621 5.741.608 11.55 1.352 17.021 3.041.405.135.878.27 1.283.405h.203c3.444.743 7.429 2.365 8.375 5.541.878 3.04-1.891 5.54-4.728 7.094-3.647 2.095-8.781 1.622-13.036 1.689-6.214.068-12.428-.067-18.641-.202-12.226-.271-24.451.337-36.743.54-12.428.135-24.856.406-37.284.946-10.401.473-20.735 1.419-31.069.608l-5.066.203c-.54 0-1.013.067-1.553.067-2.837-.202-5.606-.337-8.443-.473-16.548-.608-33.231 1.149-49.643 2.365-16.48 1.216-33.163 2.027-49.441 4.46-3.782.54-7.632 1.283-11.212 2.432-3.107 1.014-5.944 2.568-8.983 3.716-6.687 2.568-12.968 4.865-18.372 9.189-7.497 6.014-12.63 14.121-15.13 22.77 0 .338.068.676.068.946-.743 1.351-1.418 3.04-1.283 4.459-1.756 11.622 1.216 23.784 9.726 32.905 7.43 8.04 20.938 10.608 32.15 12.905 16.075 3.243 32.42 5.27 48.698 7.568 32.758 4.662 65.584 8.648 98.814 10.067 33.501 1.419 66.934 2.905 100.503 2.027 1.486-.27 3.039-.338 4.593-.338z" fill="#87D3E6"/><path d="M233.842 189.429h-10.807c-2.026 0-2.026 3.311 0 3.311h10.807c2.026-.068 2.026-3.311 0-3.311zM268.626 190.105h-10.469c-2.026 0-2.026 3.311 0 3.311h10.469c2.027 0 2.027-3.311 0-3.311zM341.707 210.24c-.54-2.568-1.689-5.406-3.647-7.162-1.486-1.419-3.783.878-2.229 2.297 1.553 1.419 2.364 3.648 2.836 5.743.406 2.027 3.445 1.149 3.04-.878zM334.953 222.131a10.798 10.798 0 0 1-3.985 1.622c-.743.135-1.486.203-2.229.27-.676.135-1.284.541-1.959.541-2.026.135-2.026 3.446 0 3.31.878-.067 1.486-.405 2.297-.608.878-.202 1.823-.202 2.701-.405 1.689-.338 3.31-1.014 4.796-1.96 1.688-1.013.135-3.851-1.621-2.77zM282.608 231.185c-2.702-1.081-6.079.135-8.848.338-2.027.135-2.027 3.446 0 3.311 1.485-.136 2.971-.271 4.39-.473 1.216-.203 2.431-.406 3.58 0 1.958.675 2.769-2.5.878-3.176zM231.613 230.104c-1.418.946-3.917.743-5.606.878-1.621.136-3.242.203-4.863.406-2.026.202-2.026 3.446 0 3.311 2.162-.203 4.323-.338 6.484-.473 1.824-.136 3.985-.136 5.539-1.217 1.756-1.216.135-4.121-1.554-2.905zM193.452 232.604c-4.66.811-9.726.811-14.454.743-2.026 0-2.026 3.243 0 3.311 4.998.068 10.266-.068 15.264-.878 2.027-.338 1.216-3.514-.81-3.176zM151.103 233.212c-1.689.406-3.647.338-5.403.541-1.756.202-3.513.675-5.269.878-2.026.27-1.148 3.446.811 3.176 1.824-.271 3.647-.676 5.471-.879 1.688-.202 3.444-.135 5.133-.54 2.094-.473 1.216-3.649-.743-3.176zM118.413 235.712c-2.364 0-4.661.608-7.025.608-1.756 0-3.309.405-5.065.676-2.027.338-1.149 3.513.81 3.175 3.58-.608 7.565-1.216 11.212-1.216 2.094 0 2.094-3.243.068-3.243zM76.469 238.82c-5.268.405-10.131 2.432-15.264 3.378-2.027.406-1.149 3.581.81 3.176 2.499-.473 4.39-.946 6.822-1.757 2.364-.811 5.133-1.284 7.632-1.486 2.026-.203 2.026-3.446 0-3.311zM33.512 250.036c-2.229.27-4.323 2.162-6.349 3.243-2.296 1.216-4.322 3.446-6.011 5.338-1.418 1.554.81 3.851 2.229 2.297 1.486-1.689 3.242-3.513 5.133-4.662.81-.54 1.756-.946 2.567-1.419.54-.338 1.823-1.419 2.431-1.554 2.026-.135 2.026-3.446 0-3.243zM25.813 289.022c-.406-1.217-1.486-2.027-1.96-3.176-.877-2.095-1.012-4.054-1.012-6.351 0-2.095-3.175-2.095-3.175 0 0 2.297 0 4.527.878 6.689.338.811.608 1.621 1.013 2.365.203.337 1.149 1.419 1.149 1.419.675 1.891 3.714 1.081 3.107-.946zM54.585 304.089c-4.39-1.014-8.645-3.649-12.292-6.284-1.689-1.216-3.242 1.622-1.621 2.838 3.917 2.838 8.307 5.54 13.035 6.621 2.027.473 2.905-2.702.878-3.175zM100.176 309.9c-1.35-.068-2.701-.203-3.985-.338-1.283-.135-2.431-.068-3.715-.203-2.769-.27-5.538-.608-8.307-1.284-1.959-.473-2.837 2.703-.878 3.176 5.538 1.284 11.212 1.689 16.885 1.959 2.027.068 2.027-3.243 0-3.31zM145.295 316.116c-2.635-.135-5.201-.676-7.835-.811-2.162-.135-4.256-.878-6.417-.811-2.026.068-2.026 3.311 0 3.311 2.094-.068 4.255.675 6.417.811 2.634.202 5.2.743 7.835.81 2.026.068 2.026-3.175 0-3.31zM185.077 318.413h-12.428c-2.026 0-2.026 3.311 0 3.311h12.428c1.959 0 2.026-3.311 0-3.311zM235.936 319.427v-.203c-.135-.946-1.148-1.284-1.959-1.149-3.242.608-6.686.27-9.996.338-3.85.068-7.632.203-11.482.203-2.026 0-2.026 3.31 0 3.31 4.187 0 8.375-.202 12.563-.202 2.836 0 5.876.135 8.713-.27 1.013.27 2.364-.609 2.161-2.027zM289.227 319.089h-11.753c-3.377 0-7.564.27-10.874-.541-1.959-.473-2.837 2.635-.878 3.176 3.242.811 7.227.676 10.537.676 4.322.067 8.645 0 12.968 0 2.026-.068 2.026-3.311 0-3.311zM64.176 192.469c15.94 1.96 32.285 1.69 48.563 2.163 16.818.54 33.771.337 50.657.675 7.902.135 15.805.676 23.707.608 6.687 0 14.927 0 21.208-1.216 4.053-.811 6.079-2.838 2.162-4.324-2.094-.811-5.201-.878-7.768-1.081-3.647-.27-7.294-.27-11.009-.406-4.525-.135-9.051-.54-13.576-.743-4.525-.135-9.051-.54-13.576-.608-9.456-.27-19.114-.878-28.638-.54-9.186.337-18.304.135-27.49.405-4.592.135-9.185.27-13.778.54-.203 0-.338 0-.54.068-2.905.068-5.742.068-8.646.135-6.957.135-14.251 0-20.803 1.216-4.12.811-5.538 2.433-.473 3.108z" fill="#1279AC"/><path opacity=".1" d="M335.898 290.305c.068.203.068.406.068.608a.509.509 0 0 0 0 .609c-2.094 1.621-4.526 2.094-6.957 2.77h-.473c-2.702 0-5.336.675-8.037 1.081-2.229.338-4.458.27-6.687.473-2.634.203-5.268.675-7.903.608-5.335-.068-10.806-.068-16.007-1.149a35.48 35.48 0 0 1-3.715-.608c-1.148-.135-2.364-.27-3.512-.338-.338-.067-.675-.135-.946-.135-2.769-.743-5.403-1.689-7.97-3.175 0-.068-.067-.136-.067-.203-.203-1.081.135-1.892.675-2.365a7.254 7.254 0 0 1 1.824-.608c1.824-.338 3.647-.135 5.471-.405 4.052-.608 8.443-.676 12.495-.406 9.456.608 18.912.676 28.435.946 4.188.135 8.376.473 12.361 2.027.337.135.675.135.945.27z" fill="#04213E"/><path d="M278.555 286.859c.946 2.906 4.593 4.122 6.957 4.73 3.444.878 6.822 0 10.064-1.284 1.013-.405 2.228-.81 3.444-1.283.405.27.878.473 1.283.608 1.149.473 2.77.743 3.918.202 1.013-.473 2.161-1.351 2.296-2.5.203-1.621-.472-3.175-.878-4.729 0-.27-.067-.473-.135-.676v-.067c0-.068 0-.068-.067-.136-.068-.202-.203-.27-.338-.27-.135-.473-.27-.946-.473-1.419-1.351-3.175-3.107-7.094-3.309-10.608 0-.337-.338-.54-.608-.473a2.53 2.53 0 0 0-1.013-.878c-1.554-.676-4.053-.946-5.471.338-.135-.473-.878-.473-.946.135-.067 1.824.878 3.108 1.216 4.797.675 3.176-1.554 5.879-3.85 7.433-1.959 1.283-3.985 1.959-6.214 2.162-1.351.135-2.837-.271-4.188 0-1.485.202-2.161 2.297-1.688 3.918z" fill="#82DBED"/><path d="M303.546 288.211c.945 2.905 4.592 4.122 6.956 4.73 3.445.878 6.822 0 10.064-1.284 1.013-.405 2.229-.811 3.445-1.284.405.27.878.473 1.283.608 1.148.473 2.769.743 3.918.203 1.013-.473 2.161-1.351 2.296-2.5.203-1.622-.473-3.176-.878-4.73 0-.27-.068-.473-.135-.675v-.068c0-.067 0-.067-.068-.135-.067-.203-.202-.27-.337-.27-.135-.473-.271-.946-.473-1.419-1.351-3.176-3.107-7.095-3.31-10.608 0-.338-.337-.541-.608-.473a2.522 2.522 0 0 0-1.013-.878c-1.553-.676-4.052-.946-5.471.337-.135-.472-.878-.472-.945.136-.068 1.824.878 3.108 1.216 4.797.675 3.175-1.554 5.878-3.85 7.432-1.959 1.284-3.985 1.96-6.214 2.162-1.351.135-2.837-.27-4.188 0-1.553.135-2.229 2.297-1.688 3.919z" fill="#82DBED"/><path d="M327.388 262.874c-.135-1.216-.27-2.5-.405-3.716.135-1.149.135-2.365-.068-3.514-.27-1.621-.945-3.108-1.283-4.729-.405-2.162-.068-4.257-.068-6.487v-.067c.135-1.825-.135-3.716-.608-5.473a19.746 19.746 0 0 0-.54-1.892c-.27-1.622-.743-3.04-1.621-3.919-.54-1.013-1.013-1.959-1.418-2.973-.068-1.081-.135-2.229-.135-3.31 0-.136.067-.338.067-.473.54-2.838 1.081-5.676 1.283-8.581a17.232 17.232 0 0 0-.135-4.189 21.351 21.351 0 0 0-.067-3.581c-.068-.541-.203-1.014-.27-1.554.135-.676.27-1.419.405-2.095a29.19 29.19 0 0 0 2.229-4.324v-.068c.067-2.162.405-4.257.945-6.351.608-4.122 1.284-8.243 1.959-12.365.54-3.378.946-6.689 2.297-9.797-1.081-.811-2.162-1.689-3.445-2.229-2.364-.879-4.796-.744-7.295-.541-.337 0-.54-.135-.608-.405-4.052-.068-7.902.473-11.887 1.013-8.375 1.216-16.818.135-25.126 2.095-1.35.337-2.566.608-3.512 1.216 0-.068-.067-.068-.067-.135-.338-.406-.946-.135-1.081.27-.675 1.622-.743 3.108-.608 4.932.068.879.405 1.825.676 2.771 0 .405.067.743.135 1.148-.271 1.824-.338 3.649-.406 5.473 0 .473 0 .946-.067 1.419h-.068c0 .946 0 1.892-.067 2.838v.473h.202c.203 2.5.676 4.864 1.486 7.297.135.473.338.946.541 1.419-.811 3.175-1.014 6.554-.743 9.729 0 .541 0 1.081.135 1.487.337 2.5 1.283 4.797 2.566 6.959.203.405.473.743.743 1.149-1.08 4.662-.675 9.729.608 14.189.135.337.203.743.338 1.081 0 .54-.068 1.148-.068 1.756-.27 3.176-.337 7.23 1.486 9.933.811 1.216 1.756 1.756 2.769 2.162.136 1.621.406 3.243.811 4.864a15.882 15.882 0 0 0 0 3.581c.405 3.041 1.824 5.406 3.512 7.5.473 1.014 1.081 1.892 1.756 2.568.135.405.27.811.541 1.081.945 1.284 2.634 1.148 4.052 1.081 1.148-.068 3.175 0 3.985-1.081.405-.541.608-1.689.676-2.703.337-.473.472-1.081.472-2.027-.067-1.757-.675-3.648-.945-5.338-.135-.743-.203-1.486-.338-2.229.135-.811.203-1.689.27-2.297.338-2.838.608-5.946.068-8.784-.473-2.432-1.351-4.257-2.702-6.149.811-2.297 1.216-4.729 1.216-6.621 0-2.095-.338-3.919-1.013-5.608.067-2.973-.068-5.811-.743-8.513.135-2.23.135-4.527.135-6.622 0-.811-.203-2.432-.541-4.257.203-.27.406-.473.541-.675.743-1.216 1.486-2.568 1.959-3.919 0-.068.067-.135.067-.203.27 1.352.473 2.703.405 4.054-.067 3.041-.54 5.811-.135 8.851.27 2.027.676 4.122 1.419 6.081a82.277 82.277 0 0 0 1.823 2.568c.068.27.135.54.203.878.067.135.067.338.135.473l1.216 8.716c-.135.608-.27 1.216-.338 1.892-.135 1.487.135 2.77.608 4.122.405 1.081.878 2.094 1.351 3.175.27.879.54 1.825.81 2.703.135.473.203.878.338 1.351.135 1.284.067 2.5.067 3.851-.135 3.649.676 5.946 2.635 8.784l1.418 2.027s0 .068.068.068c.067.067.135.135.135.202.135.203.337.406.472.608.406.946.811 2.163 1.689 2.568.068.067.135.067.27.067.068.136.068.203.135.338.473 1.217 1.621 3.311 3.04 3.919.202.27.472.473.675.676 1.283.946 3.985 1.284 5.539 1.216 1.013-.068 2.499-.405 2.904-1.486.27-.744.27-2.163.27-3.311.811-2.095.473-4.257-.135-6.081z" fill="#04213E"/><path d="M297.332 91.39c.81.474 3.309 1.892 4.66 1.96-.203-.946-.473-1.96-.675-2.905-.203-1.284 0-2.635 0-3.92.067-3.175-.338-6.283.675-9.323.203-.608 1.148-.338.946.27-.946 2.905-.608 6.013-.608 9.054 0 1.284-.135 2.5.067 3.784.203 1.148.473 2.23.676 3.378.067.27-.068.54-.338.608-1.756.54-4.458-1.081-5.876-1.96-.54-.405-.068-1.283.473-.945z" fill="#1E396B"/><path d="M328.401 201.996c.676-1.351 1.148-2.702 1.216-4.256 0-.406-.203-.609-.473-.609-1.283-1.689-1.013-3.445-.405-5.675.81-2.838 1.486-5.338 3.444-7.5.203-.27.541-.135.676.068 1.283-.744 4.255.135 5.268.405 2.837.608 4.525 2.703 5.268 5.676.608 2.297.676 4.797.608 7.364-.067.068-.067.203-.067.338 0 1.487-.676 3.041-1.013 4.459-.135.676-.541 2.906-1.284 3.987-.27.067-.54.067-.81-.068h-.135a1.46 1.46 0 0 1-.338-.27c-.067-.135-.067-.203-.067-.338v-.202c.067-1.757.337-3.514.405-5.271 0-.878-1.216-.81-1.216 0 0 1.081-.135 2.095-.203 3.176-.202.878-.405 2.027-.743 2.973-.202.405-.472.811-.743.946-1.35.878-1.148-1.554-1.013-2.297.203-1.487.743-3.176.473-4.73 0-.473 0-.946-.067-1.487-.136-.81-1.284-.472-1.149.338.271 1.757-.472 3.379-.945 5-.203.743-.405 1.554-.676 2.297-.27.541-.608.946-.945 1.217-.811.54-1.486.338-1.621-.676-.135-.811.337-1.689.54-2.365.338-1.148.473-2.365.54-3.513.203-1.081.271-2.162.406-3.243.067-.811-1.149-.811-1.216 0-.135 1.148-.203 2.297-.473 3.445-.675 1.352-1.621 2.636-2.566 3.784-.743.473-1.486.743-1.959.135-.068-.946 1.08-2.635 1.283-3.108zM278.082 179.024c-.067-.878-.27-1.622-.608-2.297-.337-1.081-.743-2.162-1.283-3.108-.54-2.095-1.081-3.919-2.431-5.608-.203-.203-.406-.136-.541.067-.945-.54-3.107.135-3.917.27-2.094.473-3.377 2.163-3.918 4.527-.405 1.825-.54 3.852-.473 5.879.068.067.068.135.068.27 0 1.148.473 2.432.743 3.581.135.54.405 2.365.946 3.175.202.068.405 0 .607 0h.068c.135-.067.203-.135.27-.202 0-.068.068-.203.068-.27v-.136c-.068-1.418-.27-2.77-.27-4.189 0-.675.878-.675.878 0 0 .879.067 1.689.202 2.568.135.743.338 1.621.541 2.365.135.337.337.608.54.743 1.013.676.878-1.284.743-1.824-.135-1.217-.54-2.5-.338-3.717 0-.405 0-.743.068-1.148.067-.676.945-.406.878.27-.203 1.419.337 2.703.675 3.986.135.609.338 1.217.473 1.825.203.405.405.811.743 1.013.608.473 1.081.271 1.216-.54.067-.608-.203-1.352-.406-1.892-.27-.878-.405-1.892-.405-2.838-.135-.811-.202-1.689-.27-2.567-.068-.676.811-.676.878 0 .068.946.135 1.824.338 2.702.54 1.081 1.216 2.095 1.891 3.041.54.405 1.148.608 1.418.135 0-.811-.878-2.162-1.013-2.568-.54-1.081-.878-2.162-.878-3.378 0-.338.135-.473.338-.473.135-.135.202-.338.338-.473.202.676.337 1.351.405 2.095.067.81 1.351.878 1.283 0 0-.203 0-.406-.067-.608.202-.338.202-.473.202-.676z" fill="#F2766C"/><path d="M329.482 197.875c-.068-.068-.135-.135-.135-.203a1.844 1.844 0 0 0-.473-.878c.067-.068.067-.135.135-.203a.694.694 0 0 0 .338-.405c.337-.608.405-1.352.54-2.027.068-.271.068-.473.068-.743 0 .067 0 .067.067.135.135.608.27 1.283.135 1.892a.526.526 0 0 0 .135.54c-.067.203-.067.405-.135.608-.067.406-.27.743-.405 1.081 0 .068-.068.135-.135.27-.068 0-.068-.067-.135-.067z" fill="#04213E"/><path d="M346.57 158.146v-.878c0-2.162-.203-4.189-.54-6.351 0-.203-.068-.406-.068-.608.338-3.649.54-7.23.27-10.879v-.067c.946-5.338.068-11.149-3.242-15.203a15.707 15.707 0 0 0-.675-1.891c-.068-.203-.27-.271-.406-.271-.405-1.351-.81-2.635-1.215-3.986-.135-.541-.27-1.149-.473-1.689-.405-1.487-.743-2.973-1.283-4.46-.068-.202-.203-.27-.338-.337-.068-.136-.135-.271-.135-.473-.405-1.892-.878-3.852-1.689-5.541-.067-.067-.067-.135-.135-.203l-.202-.608c-.541-1.959-1.284-3.918-2.162-5.945-.878-2.095-1.756-4.055-3.309-5.676-.203-.203-.406-.405-.608-.54-.743-.811-1.486-1.487-2.432-2.095v-.068c.27-.067.541-.473.338-.743-.675-1.081-1.486-2.027-2.432-2.973-.27-.27-.607-.135-.743.068-.675-.676-1.283-1.352-2.026-1.96-.81-1.013-1.756-1.96-2.972-2.702-.135-.068-.27-.203-.405-.27.135-.203.068-.474-.203-.609-2.431-1.486-5.065-2.162-7.632-3.04-.067-.338-.338-.406-.608-.338-1.148-.676-2.229-1.554-3.444-2.162-1.149-.54-2.229-1.081-3.377-1.487-2.702-.945-5.336-1.554-8.173-1.756-1.553-.135-2.972-.608-4.525-.473-1.149.067-2.027.54-3.107 1.013-1.284.608-2.634.811-3.85 1.622-.068.067-.203.135-.27.203-.743-.27-1.486-.473-2.229-.811-.608-.27-1.148-.473-1.824-.406-.81.068-1.959.338-2.904.811l-.068-.067c-.202-.203-.54-.068-.743.135-1.756 1.756-3.917 2.77-5.403 4.932-.608.946-1.216 2.095-1.554 3.243-1.013 1.487-1.418 3.581-1.621 5.54-.472 1.014-.743 2.163-1.013 3.514-.878 4.865-.54 10.135-.675 15.067-.203 10.406-.676 20.878-1.351 31.216-.338 5.067-.473 10.135-.675 15.27-.135 4.257-.946 9.121.27 13.31.743 2.5 2.837 6.689 5.201 7.838 2.161 1.081 3.849-.946 5.47-2.365.068 1.081.406 2.23.879 3.311.54 2.162 1.756 4.122 4.052 5.067 2.026.879 4.323.609 6.349-.27 1.283-.067 2.499-.27 3.58-.811.067 0 .067-.067.135-.067 1.013.676 2.161 1.081 3.309 1.148 1.149.068 2.229-.337 3.242-.878.068-.067.203-.135.338-.203 3.175 1.487 7.024 1.69 9.861 1.014.676-.203 1.891-.473 2.837-1.081 1.553 1.284 3.445 2.027 5.403 2.365.068.067.203.135.271.202a11.556 11.556 0 0 0 6.416 1.96c4.863 0 7.227-5.27 7.767-9.865v-.067l.203-.203c-.067 1.081-.135 2.162-.135 3.243 0 1.959.338 3.919.81 5.743.271 1.014.541 2.23 1.149 3.041 1.688 2.162 5.471 3.31 7.835 2.567 2.769-.811 4.525-4.324 5.335-7.094.068-.271.135-.608.271-.879.067-.067.067-.135.135-.202.405-2.162 1.756-3.987 2.229-6.149.472-2.027.675-3.851.675-5.946.135-3.378-.743-6.621-1.756-9.797z" fill="#0DCEB2"/><path d="M315.23 102.201s.068.068.135.068c.203.135.338.202.473.337.338.203.676.406.946.406-.068-.27.067-.405.202-.541l.406-.405c.27-.27.878-.135.81.338 0 .338-.202.811-.405 1.148 0 .541.27 1.149.338 1.757.202 1.419.608 2.77 1.08 4.054.203-.067.406-.067.541.203 1.013 2.432 2.364 5 2.972 7.567.27 1.284.607 2.568.945 3.919 0 0 0 .068.068.068.945 2.635 1.688 5.27 2.499 7.972.067.271 0 .406-.135.541.54 2.027 1.08 3.986 1.553 6.013.405 1.69.676 3.446.946 5.203.135.068.202.135.202.338.608 2.365.946 4.729 1.149 7.027.405 1.959.743 3.919.945 5.878a45.514 45.514 0 0 1 0 9.594c-.202 1.96-.27 3.919-.473 5.879-.135 1.689-.743 3.513-.337 5.135.067.067.067.135.067.202v.135c.068.609-.743.676-.945.136-.338-1.014-.271-2.095-.135-3.176.202-1.824.405-3.649.472-5.473.068-.608.068-1.284.135-1.892-.067-.067-.135-.202-.135-.405.135-2.365.608-4.662.203-7.027-.27-1.622-.405-3.176-.473-4.797-.067-1.419-.135-2.77-.27-4.122-.135-.54-.203-1.081-.338-1.621-.675-3.311-1.08-6.689-1.756-10-.608-2.77-1.351-5.541-2.161-8.311-.811-1.554-1.283-3.446-1.689-5.338-.405-1.283-.81-2.567-1.148-3.783-.878-2.838-1.621-5.608-2.972-8.311-1.013-2.162-1.418-4.392-1.891-6.689h-.068c-.135.203-.472.27-.675.068l-.203-.203c-.472-.338-.878-.878-1.35-1.149-.473-.135 0-1.013.472-.743z" fill="#04213E"/><path d="M308.341 53.959a4.944 4.944 0 0 1-.27-.946c0-.135 0-.27-.068-.338-.067-.27-.067-.54-.135-.81 0-.068 0-.136.068-.203.067-.068.202-.135.27-.203s.068-.135.135-.135a.614.614 0 0 0 0-.676c-1.081-1.554-5.066-1.419-6.822-1.621a.688.688 0 0 0-.405-.338c-.878-.27-1.824-.338-2.702-.608-.945-.27-1.891-.27-2.836-.27-.406 0-.608.337-.608.675a51.383 51.383 0 0 0-3.175-.473c-1.486-.27-2.972-.54-4.458-.675-2.364-.203-4.795-.609-7.227-.879-1.35-.27-2.701-.405-3.917-.27h-.473c-.135 0-.202 0-.27.068h-.135c-.338-.338-1.013-.136-1.081.405-.067.135-.135.203-.135.338 0 .067 0 .135.068.202-.27 1.352-.338 2.77-.338 4.19v2.837c0 .879.068 1.825.068 2.703 0 3.04.607 6.08 1.215 9.054.338 1.689 1.081 3.175 1.892 4.594.135.406.27.743.405 1.149.135.338.27.608.405.878.946.406 1.891.879 2.837 1.352v-.068c-.405-.405-.068-1.284.608-1.081.878.27 1.823.54 2.701.81 0 .068.068.136.068.271 1.148 1.892 1.621 4.122 2.431 6.216.541 1.419.878 3.176 1.621 4.46.068.473.203.945.271 1.418.743 1.96 1.486 5.068 2.769 6.487 4.187 4.662 5.133-5.203 5.403-7.635.338-2.635.541-6.216 2.972-7.838.338-.203.608-.067.811.135a9.528 9.528 0 0 0 3.242-2.702c1.148-1.554 1.485-3.649 1.891-5.473.405-1.892.878-3.716 1.148-5.676.405-2.905.608-5.946 1.216-8.851.337.203.743-.068.54-.473z" fill="#F2766C"/><path d="M319.35 77.877v-.067c.203-1.284-2.701-2.297-3.309-2.906a11.233 11.233 0 0 0-.676-.54c.068-.135.135-.338.338-.54 1.554.405 3.175.405 3.85-.541.135-.203.068-.473-.068-.608-.743-.879-1.891-1.622-3.039-2.297-.203-.27-.473-.473-.743-.744-.405-.338-1.756-1.148-1.959-1.621-.405-1.081.676-.879 1.284-.879.675 0 1.486 0 2.093-.27 1.419-.676.743-1.892-.135-2.838-1.215-1.148-2.566-1.621-3.917-2.364-.473-.27-1.283-.676-1.689-1.081-1.418-1.352-.472-1.69.608-1.892 1.621-.27 3.31-.744 2.229-2.636-.675-1.148-2.296-2.567-3.85-3.378.406-.946.405-2.027-.135-2.905-.54-.81-1.216-.676-1.688-.203h-.338c-.338-.405-1.081-.473-1.216.135-.135.744-.27 1.487-.608 2.23-.27.608-.54 1.014-.473 1.757.068.946.406 2.162 1.216 2.837-.202 1.352-.405 2.703-.743 3.987-.27 1.216-.945 2.5-1.148 3.649-.067.337 0 .743 0 1.08-.135 2.636-2.972 1.892-3.445 3.987-.202.878.473 1.351.743 2.094.473 1.352-1.08 1.555-1.215 2.636-.203 1.554 1.553 1.283 2.431.743.54.203 1.013.675 1.419 1.08.81.812.878 1.285 1.215 2.298.406 1.149.878 1.757 1.891 2.433.946.675 4.323 2.5 4.999.472 1.08.473 2.228.946 3.309 1.217 1.081.27 3.58.675 4.255-.54.676-1.15-.135-2.568-1.486-3.785zM293.009 74.094c-2.296.338-5.066-.338-7.294-.811-1.689-.338-3.445-.879-4.864-1.892-.405-.473-.878-.878-1.283-1.351-.743-1.081-1.418-2.298-1.891-3.514-.473-1.486-.878-2.973-1.283-4.324v-.068c-.135-.608-.338-1.216-.473-1.824-.54-4.054.067-8.04.473-12.162.81-1.486 1.215-3.04-.878-3.31-.135-.068-.271-.136-.473-.068-1.013.405-1.554 1.284-1.756 2.297-.135.473-.203 1.081-.203 1.622-1.148 1.08-2.904 1.757-4.323 2.5-.81.405-2.228.81-2.431 1.824-.27 1.216 1.283 2.432 1.351 3.581.27 3.243-2.905 2.23-4.255 3.986-1.756 2.365 4.728 3.717 1.283 5.27-.811.338-2.161.744-2.702 1.555-.135.202-.067.473-.202.675-.406.879-.473 1.081-1.081 1.825-1.418 1.689-1.418 2.702.608 4.053 1.283.879 2.904 1.352 4.458 1.42.945.067 1.823-.203 2.701-.136 1.284 0 1.959.811 2.972 1.42 1.959 1.08 4.053.742 5.674-.744.405-.405.743-.743 1.013-1.081.27.405.743.675 1.283.675.608.068 1.216-.135 1.621-.54.203-.203.27-.405.405-.608.203-.406.406-.473.878-.473a.515.515 0 0 0 .338-.135c.676.27 1.418.473 2.161.675 2.5.541 5.471 1.217 8.038.946.135.068.338.068.54-.067.068 0 .068-.068.135-.068.676-.338.203-1.284-.54-1.148zM287.403 56.594c.135-1.96.405-4.054.81-5.946.203-.81 1.419-.473 1.284.338-.27 1.419-.338 2.905-.541 4.324l-.202 1.014c0 .338-.068.675-.068 1.013 0 .203.068.338.203.473.473.135 1.013.068 1.486.203 0-.068 0-.203.067-.27.135-.136.271-.27.271-.473.067-2.095.405-4.19.81-6.216v-.136c.135-.743 1.283-.54 1.283.203 0 1.216-.337 2.5-.54 3.716-.203 1.216-.27 2.5-.608 3.716-.405 1.352-1.621.946-2.769.676-1.824-.473-1.621-1.081-1.486-2.635zM283.283 51.526c.405.203 1.081.136 1.418-.067.473-.338.541-.879.406-1.419-.135-.473-.473-.878-.946-1.014-.405-.135-.946 0-1.081.406-.54.54-.472 1.69.203 2.094zM295.981 52.405c.067-.473.473-.743.945-.743h.068c.743-.27 1.553.202 1.553.946 0 .405-.067.743-.337 1.013-.27.27-.608.405-1.013.405-.811-.067-1.419-.878-1.216-1.621z" fill="#04213E"/><path d="M282.945 59.23c1.959 1.553 3.445 2.5 5.944 2.702 2.296.203 5.066-.068 7.227-.879.81-.337 1.283.946.473 1.217-2.432.946-5.741 1.283-8.375.946-2.364-.27-3.918-1.217-5.742-2.636-.135 0-.202-.067-.337-.202-.068-.068-.135-.203-.203-.27-.473-.608.405-1.352 1.013-.879zM275.448 171.659c-.067.068-.203.135-.27.203-.338.473-.811.811-1.216 1.216l-.067.068c.337-1.419.27-3.108.472-4.257.203-1.351.473-2.703.676-4.121.675-3.379.608-6.622.202-10-.202-1.554-1.013-2.838-1.148-4.392-.135-1.149.203-2.23.473-3.378.743-3.446-.27-7.703-.608-11.284-.338-3.04-.202-5.743.338-8.784.743-3.918 0-7.567-.203-11.486-.338-6.554-.405-13.31 0-19.864.068-.811 1.284-.879 1.216 0-.405 6.824-.405 13.986.135 20.81.27 3.514.811 6.959.135 10.405-.81 4.325-.405 8.041-.067 12.365.27 3.108.743 5.675.067 8.716-.54 2.5.54 4.324.811 6.621.135 1.284.27 2.636.337 3.987.203 2.973-.337 5.608-.878 8.513-.202 1.284-.202 3.041-.405 4.662z" fill="#04213E"/><path d="M255.388 41.865c1.351-1.554 4.863-.879 6.754-.879 3.445.068 6.89.473 10.402.744 1.486.067 2.972.202 4.458.337 1.148-3.378 1.958-6.892 2.769-10.337.945-3.852 2.296-7.5 3.039-11.352.473-2.634 1.013-8.716 3.377-11.553.473-1.487 1.148-2.906 2.094-4.19 1.824-2.297 4.323-3.783 7.227-4.391 2.499-.473 5.066-.406 6.889 1.554 2.027 2.23 2.635 5.473 3.242 8.31.608 3.041 1.216 6.081 1.419 9.19.135 1.689.202 3.445.202 5.135 0 1.959.271 3.986.203 5.945-.203 3.649.338 7.23.811 10.879 0 .135-.068.202-.136.202.068.068.136.203.203.27.203 1.15.405 2.298.608 3.379 4.593.675 9.186 1.757 13.576 2.838 2.634.608 5.133 1.35 7.632 2.364 1.351.54 3.647 1.081 4.255 2.635a.428.428 0 0 1 0 .406c.068.27-.067.473-.27.608-.067.135-.27.27-.473.27-1.823.135-3.579-.54-5.403-.878-.27-.068-.54-.135-.811-.135-1.485-.135-3.039-.54-4.525-.811-2.229-.406-4.525-.608-6.754-1.014-1.756-.135-3.512-.27-5.268-.472-1.216-.136-2.432-.338-3.648-.541-2.161-.27-4.322-.608-6.484-1.014-2.026-.202-4.12-.405-6.146-.608-3.377-.337-6.754-.946-10.131-1.554-2.229-.135-4.458-.27-6.687-.608-4.188-.54-8.375-.946-12.563-1.486-2.566-.338-5.606-.608-8.105-1.487-.81-.135-1.553-.473-1.823-1.08-.136-.271-.068-.541.067-.676z" fill="#82DBED"/><path d="M300.776 44.635c-2.701-.27-5.336-.54-8.037-.676-1.486-.067-2.972-.135-4.458-.135l-2.904-.338c-2.499-.203-5.606.135-7.97-.743-.27-.068-.338-.473-.203-.676.405-.878.608-1.824.946-2.702.067-.27.472-.338.675-.203 1.013.473 2.837.203 3.985.338 1.756.203 3.512.473 5.336.608 3.58.338 7.159.608 10.672.946 3.039.338 6.146.608 9.118 1.216.202.067.473.135.608.203.27 1.148.743 2.297 1.08 3.446-2.972-.203-5.876-.946-8.848-1.284z" fill="#04213E"/><path d="M176.566 181.119c.473 1.621.946 3.446 2.027 4.864.945 1.284 2.499 2.027 3.917 2.703 1.621.743 3.242 1.351 4.998 1.487 1.891.135 3.715-.203 5.606-.473 3.58-.609 6.619-2.298 8.646-5.271 2.026-2.837 2.971-6.824 2.431-10.202-.27-1.757-1.081-3.378-2.161-4.865-1.081-2.973-4.053-5.473-7.227-6.419-1.013-.27-2.027-.743-3.04-.946-1.013-.202-2.094-.135-3.039-.067-1.959.135-3.985.473-5.741 1.351-1.554.743-2.904 1.419-3.918 2.77-1.013 1.352-1.418 3.108-1.958 4.662-1.149 3.311-1.554 7.027-.541 10.406zM101.595 179.429c.472 1.622.945 3.446 2.026 4.865.946 1.284 2.499 2.027 3.917 2.703 1.621.743 3.242 1.351 4.998 1.486 1.892.135 3.715-.202 5.606-.473 3.58-.608 6.62-2.297 8.646-5.27 2.026-2.838 2.972-6.824 2.431-10.202-.27-1.757-1.08-3.379-2.161-4.865-1.081-2.973-4.052-5.473-7.227-6.419-1.013-.27-2.026-.743-3.039-.946-1.013-.202-2.094-.135-3.04-.067-1.958.135-3.985.473-5.741 1.351-1.553.743-2.904 1.419-3.917 2.77-1.013 1.352-1.419 3.108-1.959 4.662-1.148 3.243-1.486 7.027-.54 10.405z" fill="#023F3C"/><path d="M51.614 162.538c0 .135 0 .27.067.405-.067 2.23-.135 4.46-.135 6.689v4.19c0 .878-.203 1.959.203 2.77.675 1.554 2.904 2.162 4.39 2.432 2.364.406 4.795.473 7.16.608 1.553.068 3.106.135 4.66.135.27 0 .54.068.81.068 1.689.135 3.377.338 5.066.541 1.62.202 3.242.472 4.863.54 1.689.068 3.377.068 5.066.068 3.31.067 6.619.54 9.928.608 6.822.067 13.711.135 20.533-.135 3.377-.136 6.754 0 10.064.27 3.309.27 6.687.405 10.064.54 6.821.271 13.711.406 20.532.406 6.822 0 13.711.54 20.533.338 3.445-.068 6.89-.338 10.334-.406 3.377-.067 6.754-.067 10.132-.067 3.309 0 6.686.067 9.996.067 1.621 0 3.242 0 4.863-.135 1.486-.135 2.837-.405 4.322-.743 1.216-.27 2.567-.473 3.648-1.081.945-.541 1.351-1.352 1.756-2.297.202-.136.202-.271.202-.541 0-.068 0-.068.068-.135.608-1.419.878-2.973 1.216-4.46.27-1.148.608-2.432.675-3.648l.405-1.824c.406-1.757.541-3.514.608-5.338 0-.878.135-1.757.135-2.635 0-.811-.135-1.622-.27-2.433-.202-1.283-.337-2.635-1.351-3.581-.945-.946-2.161-1.621-3.377-2.229-2.769-1.284-5.808-2.162-8.78-2.838-3.31-.743-6.552-1.622-9.794-2.432-1.621-.406-3.242-.676-4.863-1.014-.81-.135-1.621-.338-2.431-.473-.406-.067-.743-.135-1.149-.203-.27-.067-.607 0-.878-.135-.135-.067-.337-.405-.54-.473-.338-.27-.608-.405-.878-.675a17.3 17.3 0 0 1-1.351-1.757c-.945-1.284-1.553-2.703-2.229-4.189-.675-1.622-1.351-3.176-2.026-4.797-.608-1.554-1.148-3.108-1.689-4.662-.54-1.487-1.08-2.973-1.756-4.392-.743-1.554-1.553-2.973-2.093-4.595-.271-.743-.473-1.554-.743-2.297-.271-.743-.608-1.419-.878-2.162a3.842 3.842 0 0 1-.338-.946c0-.27 0-.541-.135-.811-.203-.473-.338-.878-.541-1.351-.337-.879-.675-1.554-1.35-2.23a32.662 32.662 0 0 1-2.162-2.162c-1.216-.068-2.499-.203-3.715-.338-3.174-.338-6.281-.811-9.455-1.013-3.175-.203-6.349-.406-9.524-.541-3.107-.135-6.281-.473-9.388-.202-1.284.067-2.905-.068-3.918.675-.743.541-1.621 1.014-2.229 1.689-.472.541-.743 1.149-.743 1.892-.135.27-.27.541-.337.811-.541 1.757-.811 3.513-1.284 5.27-.945 3.581-1.418 7.297-1.823 10.946-.473 3.716-1.148 7.432-1.419 11.216 0 .27-.067.608-.067.878-.878 0-1.689.068-2.567.203-.945.135-1.958 0-2.904.135-1.351.203-3.175.743-3.242 2.365-.068 1.621 1.351 3.175 2.837 3.648 1.08.338 2.431.271 3.512.338.405 0 .81.068 1.283.068-.067.27-.067.54-.135.743-2.229 0-4.458.135-6.687.27-6.281.406-12.63.946-18.911 1.149-6.282.203-12.563-.338-18.845-.135-3.242.067-6.416.405-9.658.473-.068 0-.068-.068-.135-.068h-1.959c-.203-.067-.405-.067-.608-.067-.337 0-.743 0-1.08.067h-1.149c-.067 0-.135 0-.202.068-1.081.067-2.23.067-3.377.067-1.351 0-2.77-.067-4.188.068-.675.067-1.418.135-2.161.338-.743.067-1.486.202-2.162.473-1.215.473-3.04 1.081-3.85 2.162-1.013 1.486-.608 3.919-.608 5.608-.067 2.162-.067 4.256.136 6.351z" fill="#0B6D67"/><path d="M137.73 110.512c.202.743.473 1.419.608 2.162.067.608.135 1.216.337 1.757.743 2.837 2.027 5.472 2.77 8.31.405 1.419.743 2.906 1.215 4.324a42.804 42.804 0 0 1 1.216 4.19c.338 1.418.608 2.837.946 4.189.337 1.419.81 2.702 1.35 4.054.473 1.283.879 2.635 1.351 3.918.203.609.271 1.014.676 1.487.337.405.743.743 1.216 1.013 1.013.473 2.093.406 3.174.473 1.351.068 2.702.136 4.053.068 2.836-.135 5.673-.203 8.51-.473 2.837-.27 5.673-.405 8.578-.541 3.039-.135 6.078-.473 9.118-.608 1.418-.067 2.904-.27 4.323-.27.607 0 1.215 0 1.823-.067.608-.068 1.148-.136 1.756-.136.068.068.135.068.203.136.067 0 .135 0 .135-.068.203-.27-.068-.676-.203-.946-.337-.608-.608-1.284-.878-1.892-.54-1.148-1.148-2.432-1.553-3.648-.405-1.284-1.081-2.568-1.689-3.784-.202-.405-.405-.946-.743-1.351l-.135-.136c-.27-.54-.54-1.081-.81-1.689-1.284-2.702-2.432-5.473-3.783-8.108-.607-1.283-1.148-2.567-1.756-3.851-.675-1.419-1.283-2.838-1.891-4.257-.473-1.148-.878-2.5-1.688-3.445-.676-.879-1.892-.946-2.905-1.149-.675-.135-1.351-.203-2.026-.27-.675-.068-1.283-.203-1.959-.203-1.486 0-2.972-.135-4.458-.135-1.418 0-2.904-.135-4.322-.203-1.486-.067-3.04-.135-4.526-.338-1.418-.202-2.836-.675-4.255-.811-1.418-.202-2.904-.27-4.322-.337-1.554-.068-3.04-.068-4.526.067-.675.068-1.351.135-2.026.27-.608.136-1.216.338-1.824.541-1.08.203-1.418.811-1.08 1.757z" fill="#8FD0BA"/><path d="M188.386 176.186c0 .338-.067.743.338.811h.338c.202.135.405.203.675.203.203 0 .676.135.946 0 .743.135 1.553.135 2.296.135 1.148 0 2.229 0 3.377-.068 2.297-.135 4.661.068 6.957.068 1.148 0 2.229.067 3.377-.135.541-.068 1.013-.068.946-.676-.068-.878-.135-1.757-.27-2.703-.068-.473-.203-.946-.203-1.419 0-.405 0-.81-.068-1.283v-.135c0-.068-.067-.068-.067-.068h-.068c-.067 0-.135 0-.135.068-.608 0-1.283-.136-1.891-.136-.81-.067-1.621-.067-2.431-.067-.811-.068-1.554 0-2.364-.068-.811-.067-1.621-.067-2.432-.067h-2.566c-.811.067-1.622.202-2.432.27-.743.068-1.553.135-2.296.135-.608 0-1.284-.067-1.892 0-.067 0-.067.068-.067.068-.068.405 0 .878 0 1.283V175.646c-.068.27-.068.405-.068.54.068 0 .068 0 0 0zM119.291 142.606c.608 1.419 1.756 1.892 3.242 2.027 2.026.203 4.052.27 6.079.473 1.013.135 1.823.405 2.161-.203.135.135.405.068.405-.203 0-.743-.067-7.026-1.351-6.689-.067 0-.135.068-.135.068-1.688-.203-3.444-.068-5.133.068-1.486.135-3.58.27-4.795 1.148-.946.811-.946 2.297-.473 3.311zM102.203 154.97c.337.203.945.203 1.35.203.676 0 1.419.068 2.027-.203.743-.337.472-1.013-.203-1.283-.473-.203-1.216-.203-1.756-.203-.473 0-.811.067-1.283.135-.676.135-.743 1.014-.135 1.351zM141.039 185.308c.473 1.621.946 3.446 2.026 4.864.946 1.284 2.5 2.027 3.918 2.703 1.621.743 3.242 1.351 4.998 1.487 1.891.135 3.715-.203 5.606-.473 3.58-.609 6.619-2.298 8.645-5.271 2.027-2.837 2.972-6.824 2.432-10.202-.27-1.757-1.081-3.378-2.161-4.865-1.081-2.973-4.053-5.473-7.227-6.419-1.014-.27-2.027-.743-3.04-.946-1.013-.202-2.094-.135-3.039-.067-1.959.135-3.985.473-5.741 1.351-1.554.743-2.905 1.419-3.918 2.77-1.013 1.352-1.418 3.108-1.958 4.662-1.149 3.244-1.554 7.027-.541 10.406z" fill="#023F3C"/><path d="M148.536 182.74c.203.676.406 1.419.811 2.027.405.541 1.013.878 1.621 1.149.675.27 1.351.54 2.094.608.81.067 1.553-.068 2.296-.203 1.486-.27 2.769-.946 3.58-2.162.81-1.149 1.216-2.838 1.013-4.257-.135-.743-.473-1.419-.878-2.027-.473-1.216-1.689-2.297-3.039-2.635-.406-.135-.811-.338-1.284-.405a4.06 4.06 0 0 0-1.283 0c-.81.067-1.621.203-2.364.54-.675.338-1.216.608-1.621 1.149s-.608 1.284-.81 1.959c-.406 1.284-.541 2.906-.136 4.257z" fill="#8FD0BA"/><path d="M96.259 173.889c-.473-1.689-1.351-3.649-2.364-5.068-.878-1.283-2.432-2.094-3.85-2.77-1.621-.743-3.174-1.419-4.998-1.554-1.891-.203-3.715.068-5.606.338-3.58.473-6.687 2.162-8.78 5-2.094 2.77-3.108 6.756-2.635 10.135.203 1.824 1.013 3.446 2.026 4.932 1.014 3.041 3.918 5.608 7.092 6.554 1.014.338 1.96.811 3.04 1.013 1.013.203 2.094.136 3.04.136 1.958-.068 3.984-.406 5.74-1.217 1.554-.675 2.972-1.283 3.985-2.702 1.013-1.284 2.23-2.703 2.77-4.257 1.283-3.243 1.486-7.162.54-10.54z" fill="#023F3C"/><path d="M88.289 176.321c-.203-.675-.81-1.283-1.216-1.891-.405-.541-1.013-.879-1.62-1.149-.676-.338-1.352-.608-2.095-.676-.81-.067-1.553.068-2.296.135-1.486.203-2.77.879-3.647 2.095-.879 1.149-1.284 2.838-1.081 4.257.067.743.405 1.419.81 2.027.406 1.283 1.621 2.364 2.972 2.77.406.135.81.338 1.284.405.405.068.878.068 1.283.068.81 0 1.62-.135 2.431-.473.676-.27 1.216-.541 1.689-1.081.405-.541 1.148-1.081 1.35-1.689.406-1.487.541-3.379.136-4.798z" fill="#8FD0BA"/><path d="M174.202 163.281c.203.608.338 1.284.743 1.824.338.473.946.744 1.486 1.014.608.27 1.216.473 1.959.54.743.068 1.418-.067 2.161-.202 1.351-.203 2.567-.879 3.31-1.96.743-1.081 1.148-2.567.946-3.783a4.478 4.478 0 0 0-.811-1.825c-.405-1.081-1.553-2.027-2.769-2.365-.405-.135-.743-.27-1.148-.337a3.65 3.65 0 0 0-1.216 0c-.743.067-1.554.202-2.229.473-.608.27-1.148.54-1.554 1.013-.405.473-.54 1.149-.742 1.689-.406 1.284-.541 2.703-.136 3.919zM210.405 162.876c.203.608.338 1.283.743 1.824.338.473.946.743 1.486 1.013.608.271 1.216.473 1.959.541.743.067 1.418-.068 2.161-.203 1.351-.202 2.567-.878 3.31-1.959.743-1.081 1.148-2.568.945-3.784a4.453 4.453 0 0 0-.81-1.824c-.406-1.081-1.554-2.027-2.77-2.365-.405-.135-.743-.27-1.148-.338a3.703 3.703 0 0 0-1.216 0c-.743.068-1.553.203-2.228.473-.608.27-1.149.541-1.554 1.014s-.54 1.148-.743 1.689c-.338 1.216-.473 2.635-.135 3.919z" fill="#FFE9B2"/><path d="M188.927 162.808c.27.473.54.879 1.08 1.149.608.27 1.351.338 2.027.338h2.904c2.026 0 4.052.202 6.079.135 1.553-.068 3.309-.135 4.863-.473.337-.068 1.013-.27 1.148-.608.067-.135 0-.271 0-.473-.068-.338-.135-.743-.203-1.081-.067-.338-.135-.811-.337-1.149-.203-1.284-2.5-1.149-3.58-1.216-1.216-.068-2.432-.068-3.58-.203-1.081-.067-2.161 0-3.242.068-1.689.067-3.31.067-4.998.202-.811.068-2.702.068-2.837 1.014-.067.878.405 1.757.676 2.297zM133.34 141.93c.067.811-.136 1.96.202 2.703.27.743 1.148.473 1.824.608 1.013.135 2.026.473 3.039.541a5.867 5.867 0 0 0 3.04-.609c.607-.27 1.08-.472 1.148-1.216 0-.946-.473-2.094-.676-3.04-.202-1.216-.472-2.365-.743-3.581-.337-1.216-.81-2.433-1.215-3.649-.406-1.148-.676-2.365-1.013-3.581a119.275 119.275 0 0 1-1.621-6.689 68.416 68.416 0 0 1-.743-3.986c-.136-.946-.406-1.892-.541-2.838.068-.068.135-.068.135-.203v-.675c0-.136-.135-.271-.27-.203h-.067c-.135-.068-.338 0-.338.203v.067c-.135.27-.135.608-.203.946-.135 1.419-.27 2.703-.54 4.122-.54 2.837-1.013 5.675-1.081 8.581-.067 2.77-.337 5.54-.473 8.31-.067 1.419 0 2.703.136 4.189z" fill="#8FD0BA"/><path d="M59.651 155.984c.203 1.487 1.35 3.176 3.04 3.041 1.418-.068 2.634-1.825 2.364-3.176-.27-1.284-1.284-2.027-2.432-2.297 0-.135-.068-.271-.27-.271-.743 0-1.756 0-2.23.676-.404.541-.54 1.284-.472 2.027zm.878-1.689c.27-.338.81-.405 1.283-.473.068.068.068.068.203.135.946.068 1.891.473 2.364 1.284.675 1.216-.135 2.838-1.418 3.176-1.351.405-2.432-.946-2.702-2.095-.135-.676-.203-1.554.27-2.027z" fill="#023F3C"/><path opacity=".5" d="M303.005 285.644c.068-.136.068-.203.135-.338.473-.879 1.554-1.352 2.634-1.419-.067-.406-.202-.811-.27-1.216-.202 0-.405.067-.608.067-1.283.338-2.566 1.419-2.971 2.365-.406.946-.338 1.892 0 2.77.27.743.675 1.419 1.08 2.095h.135c.338 0 .743-.135 1.081-.203-.811-1.013-1.486-2.297-1.351-3.581.068-.203.068-.338.135-.54z" fill="#04213E"/><path opacity=".1" d="M272.341 295.103c-.338-1.487-4.187-2.703-5.808-3.108-3.31-.879-7.092-1.284-10.605-1.487-4.66-.202-9.253-.608-13.913-.743-4.526-.135-8.916.406-13.441.541-4.39.135-8.51-.135-12.766-.811-2.904-.405-5.943-.878-8.983-.743-.135-.135-.405-.271-.675-.203-.608.068-1.148.203-1.554.405-1.891.203-3.849.676-4.187 2.027-.473 1.96 1.688 5.135 3.444 6.554 1.892 1.622 4.323 1.825 7.16 1.96h.54c1.486.202 3.107.202 4.728.135 3.783 0 7.632-.068 11.415-.338 5.606.135 11.212.608 16.885.203 4.053-.271 8.038-.608 12.023-1.014 4.12-.405 8.848-.27 12.833-1.081 1.418-.27 3.242-1.013 2.904-2.297z" fill="#04213E"/><path d="M273.827 243.618c-.067-.676-.203-1.284-.338-1.892-1.891-1.487-3.512-3.243-5.335-4.797-3.243-2.838-6.417-2.298-10.267-2.162-7.632.337-15.197.608-22.829 1.148-7.227.541-14.522.338-21.681.946-2.837.27-5.876.338-8.646.946-1.958.405-2.769 1.216-3.782 2.432v.068c-.338 2.162-.203 4.594-.203 6.892v12.499c0 3.784.136 7.568.136 11.352 0 2.027-.203 4.594.135 6.959-.203 4.257.067 9.054 1.688 12.77 2.094 4.797 8.375 4.797 13.171 4.121 5.336.271 10.469 0 15.805.068 5.876.068 11.482.541 17.155-.473 5.539-1.013 11.28-1.486 16.818-2.5 1.554-.27 4.053-.608 4.999-1.959.202-.338.337-.744.405-1.284.675-.541 1.08-1.351 1.283-2.635.27-2.297-.067-4.662.068-6.959.135-2.5.54-4.933.675-7.433.135-4.797.27-9.662.675-14.459.136-2.162.068-4.459.068-6.621-.067-2.298.27-4.73 0-7.027z" fill="#00ACD1"/><path d="M244.851 231.726c0-.135-.067-.203-.067-.27 0-1.149-.27-2.365-1.216-2.77-.067 0-.067 0-.135-.068-.067-.068-.135-.068-.203-.068-.54-.135-1.08-.135-1.688-.067-2.634-.068-5.268.135-7.767.405-1.216.135-2.364.406-3.04 1.081-.945.135-.878 1.96-.81 3.243 0 .541-.068 1.014-.068 1.555 0 .337-.067.608-.067.945-.068.879-.136 1.757-.203 2.568-.068.676-.27 1.554-.068 2.23.068 0 .135.067.135.135 0-.068.136-.068.203.067.203 0 .473.068.676.068.472.067 1.013.067 1.485.067h1.216c0-.067.068-.135.068-.202 0-1.622.27-3.243.405-4.865v-.135c-.068-1.622-.068-3.108.405-3.716a24.759 24.759 0 0 1 2.364-.338c.135 0 .27-.068.405-.068.406-.067.811-.135 1.149-.135.878-.067 2.161-.067 3.309-.27.068.067.135.068.203.135 0 .27 0 .541.067.743.271.811-.067 1.757-.067 2.568-.068 1.148.135 2.297.135 3.446 0 .743-.068 1.621.203 2.365.202-.136.54-.136.675.067.811-.068 1.689 0 2.432-.27v-.338-2.027-.743c-.136-1.757-.136-3.581-.136-5.338z" fill="#04213E"/><path d="M267.275 242.672h-.135c-.067 0-.135 0-.202.067-7.633 1.081-15.4.878-23.1 1.149-1.215-1.081-2.229-2.23-3.242-3.581-.878-1.217-1.553-2.635-2.431-3.852-.473-.675-1.621 0-1.148.676 1.013 1.419 1.688 2.905 2.701 4.324.676.946 1.419 1.825 2.229 2.568l-2.837.203c0-.136-.067-.338-.067-.473-.068-.271-.27-.473-.54-.473-.136-.203-.271-.338-.541-.541-.473-.338-.675-.54-.878-1.081-.202-.541-.473-.946-.743-1.486-.27-.541-.405-1.082-.878-1.487-.608-.608-1.553.338-.945.946.405.405.54 1.014.81 1.486.203.406.405.811.608 1.284.135.338.338.676.608.946.202.203.81.406.878.676 0 .135.067.203.067.27-.202 0-.405 0-.608.068-3.782.337-7.564.608-11.347.946-4.66.337-10.266 2.027-14.859.675-.202-.067-.338 0-.473.068-.472-1.014-1.215-1.284-2.229-1.96-1.418-1.013-2.836-2.837-4.39-3.581-.743-.337-1.418.744-.675 1.149 1.283.608 2.499 2.162 3.58 3.04.81.609 1.756 1.014 2.228 1.892.473.811.338 1.892.406 2.838.405 4.595.608 9.189.675 13.784.068 4.932 0 9.864 0 14.797 0 3.783-.405 7.635-.338 11.418 0 .811 1.351.879 1.284 0-.068-4.189.337-8.445.337-12.635 0-5.945.068-11.891-.202-17.837-.135-2.568-.068-5.135-.338-7.703-.067-1.081 0-2.635-.135-3.918 4.188 1.148 9.051 0 13.306-.406 4.39-.405 8.713-.743 13.103-1.216.338-.068.675-.068 1.081-.068.067 1.284-.068 2.568-.068 3.919 0 2.23.203 4.392.338 6.554.135 2.568.067 5.203.202 7.77 0 .676-.135 1.352.203 1.892-.135.068-.27.203-.405.338-.473.54-.473 1.351-.473 2.095 0 .81-.203 1.689-.135 2.499.067 1.217.203 2.703 1.351 3.244.067 0 .135.067.202.067.068.203.203.338.473.406-.473-.068 0 5.878 0 6.554 0 2.499 0 4.932-.202 7.364-.136 1.554-1.081 4.797-.473 6.284.54 1.216 1.283 1.149 2.499 1.284 1.081.135 2.364.54 3.107-.541.81-1.216.675-5.405.743-6.892.067-3.04.337-6.081.135-9.121-.135-1.959-.473-3.784-.608-5.676.675-2.364 0-5.067-.27-7.432-.135-1.149-.608-1.419-1.351-1.351 0-.068 0-.203-.068-.27.203-.068.338-.271.338-.541 0-2.838.135-5.676.135-8.513 0-2.771-.54-6.149.135-8.852.068-.337-.067-.608-.337-.743v-.27c0-.203.067-.338.135-.541 7.902-.337 15.872-.135 23.639-1.216h.203c.878-.135.675-1.283-.068-1.283zm-27.962 2.702c.946-.067 1.959-.135 2.904-.203-.067.136-.067.338-.067.473-.068.406 0 .744 0 1.149 0 .203.067.338.202.405-.337 2.23 0 4.73 0 6.96 0 2.229-.067 4.392-.135 6.621a.614.614 0 0 0-.202.473c0 .406-.068.743-.068 1.149-.067.675-.067 1.419-.067 2.162-.406-.27-1.081-.135-1.081.473-.338.067-.675.067-.946.135a1.402 1.402 0 0 0-.27-.405c.068.067 0-4.595 0-5.271 0-2.162-.202-4.324-.27-6.486-.135-2.432.27-5.067 0-7.635zm4.593 44.999c-.068.406-.135 2.568-.405 3.311-.406 1.013 0 1.351-1.554.946-2.026-.541-1.418-2.905-1.283-4.662.135-1.689.27-3.311.338-5 .067-3.581 0-7.162-.338-10.743.945.067 1.891 0 2.904-.068.27 3.041.811 6.081.676 9.122-.068 2.432-.135 4.729-.338 7.094zm-.676-24.188c.068.067.203 1.824.271 1.891.067.608.202 1.284.27 2.027-.203.068-.338.271-.338.541 0 .743 0 1.486.068 2.297-.676.068-1.284.135-1.959.135-.946-.067-1.824-.067-2.229-1.081-.203-.473-.27-1.081-.27-1.554 0-.473.135-.946.135-1.419.067-.946-.27-1.148.54-1.892.27-.27.743-.473 1.216-.608v2.635c0 .879 1.283.879 1.283 0v-2.77c.068 0 .203-.067.338-.135.203.135.473.068.675-.067z" fill="#82DBED"/><path d="M109.092 140.849c-2.229.271-4.323.676-6.484 1.081-1.689-.135-3.377-.54-4.796-1.283-1.823-.946-3.377 1.621-1.89 2.702-1.42.27-3.175.608-4.256 1.419 0-.54-.27-1.081-.743-1.419 0-2.094-3.242-2.094-3.31 0 0 .541 0 1.081.068 1.622-.473 1.486.068 3.446.878 4.594 3.107 4.189 10.537 2.703 15.062 2.298 4.728-.473 10.739.54 14.994-2.163.676-.405 1.216-1.148 1.554-2.027.067-.067.135-.202.202-.27 4.323-7.027-7.632-6.959-11.279-6.554z" fill="#F2766C"/><path d="M113.144 94.16c-.067-.067-.135-.134-.202-.134-.068-.068-.271-.135-.203-.068a.717.717 0 0 0-.81.135c-.136.068-.271.135-.338.27.067-.067 0 0 0 0-.068.068-.135.136-.135.203-.068.135-.068.27-.068.406 0 .202 0 .405.135.608.203.405.878.608 1.284.473.472-.135.675-.676.675-1.149-.068-.27-.135-.54-.338-.743zM100.717 92.674c-1.824-.337-4.323-.743-4.998 1.622-.743 2.568 1.013 4.662 3.377 5.27.067.27.54.338.675 0 0-.067.067-.135.067-.135.068-.135-.067-.405-.202-.405-2.094-.406-4.188-2.433-3.107-4.73.743-1.689 2.702-1.149 4.12-.946.27 0 .473-.608.068-.675zM118.413 91.864a.767.767 0 0 0-.541-.203c-.337 0-.54.203-.675.54 0 .068-.068.203-.068.203a.582.582 0 0 0 0 .473c.068.27.338.473.608.54.473.136 1.081 0 1.284-.54.135-.405-.136-.878-.608-1.013zM119.088 140.376c-1.756-.811-3.985-1.284-5.741-1.757-.946-.27-1.891-.54-2.904-.743-1.013-.067-2.094-.203-3.175-.27-.675 0-1.351-.135-2.094-.135-.135 0-.337.067-.54.067h-.675c0 .068 0 .068-.068.135h-2.364c-.203 0-.27.136-.338.271h-.27c-.743 0-1.418 0-2.094.202-.337.135-.27.676.068.676h.067c.203-.068.406-.135.608-.135.068.067.136.067.203.067 1.351 0 2.837.136 4.188-.135h2.634c.675 0 1.351.135 2.026.203h.135c.878.203 1.756.338 2.634.541 1.216.27 2.364.608 3.58 1.013.068 0 .135 0 .27.068.068 0 .135.067.203.067l.608.203h.202c.541.067 1.081.203 1.621.338.473.135.878.27 1.351.473a2.178 2.178 0 0 1-.135-1.149zM121.857 144.43c.068.27.068.473.135.743.068.27.068.541.135.811h.068c.473.203 1.081-.135 1.553-.27h.203c-.067-.338-.135-.608-.135-.946-.675-.068-1.283-.203-1.959-.338zM127.733 132.606c-2.431.743-4.322 2.77-5.538 4.933a.144.144 0 0 0-.135.135c-.135.27-.27.54-.338.878.878-.203 2.026-.203 2.837-.27.946-1.554 2.499-2.838 4.052-3.716l.203-2.23c-.338 0-.675.135-1.081.27zM120.709 143.687c-.473-.27-.878-.541-1.418-.608-.135 0-.27.067-.27.135s-.068.068-.068.135c-.135.068-.203.135-.203.27 0 .271-.135.406 0 .676.136.203.338.27.541.338.608.135 1.283.203 1.891.135.135 0 .203-.135.203-.203.202-.473-.338-.743-.676-.878zM120.236 146.052c-.473-.27-.878-.541-1.418-.473-.135 0-.203.135-.203.27-.405.203-.473.608 0 .946.338.203.676.27 1.081.405.338.068.743.271 1.081.203.202 0 .337-.203.337-.405-.067-.473-.472-.743-.878-.946zM119.696 148.754c-.203-.27-.54-.338-.743-.608-.203-.203-.405-.473-.743-.405-.27.067-.405.338-.405.608-.405.067-.405.676.067.676-.067 0 0 .067.068.135l.202.202c.136.136.271.271.473.338.338.203.608.406.946.338.135 0 .202-.135.202-.203.068-.405.068-.81-.067-1.081zM116.724 150.714c-.202-.338-.202-.744-.54-.946-.338-.27-.676 0-.878.338-.068.067-.068.202-.068.27 0 .135.068.27.135.338 0 .067.068.067.135.135 0 .067.068.067.068.135.068.135.135.27.203.338.135.135.27.135.405.202.135.068.27.203.473.271.135.067.337-.068.405-.203 0-.405-.203-.676-.338-.878z" fill="#04213E"/><path d="M93.827 86.999h-.81c-6.62.203-13.17 1.284-19.858 1.284-7.024 0-14.116-.406-21.14-.541-.405 0-.405.676 0 .676 7.024.067 14.116.54 21.14.54 6.957 0 13.78-1.216 20.668-1.284.406 0 .406-.675 0-.675zM87.884 95.04c-1.081.134-2.23.202-3.31.27-1.486 0-2.972.472-4.39.405-.405 0-.405.608 0 .676 1.486.067 2.972-.338 4.39-.406 1.08 0 2.161-.135 3.242-.27.068-.203.068-.405.068-.676zM47.02 148.754c-.945.135-3.444.135-3.85.135-1.418.136-2.836.271-4.322.406-2.634.203-5.2.473-7.835 1.081-.405.067-.27.743.203.608 2.904-.608 5.876-.878 8.848-1.149 1.418-.135 2.904-.337 4.322-.405 1.081-.068 2.23.068 3.31-.135.135 0 .203-.135.203-.203 0-.135.067-.203.067-.338v-.135c-.27.135-.608.135-.945.135zM78.428 138.822c-1.351 0-2.702 0-4.053-.068-1.823-.135-3.647.136-5.47-.067-.541-.068-.541.608-.068.676 1.756.202 3.647-.068 5.47.067 1.352.068 2.635.068 3.986.068.135-.203.135-.473.135-.676zM81.264 131.66c-1.148.067-4.187-.203-4.727-.203H71.2c-3.242-.067-6.417 0-9.659.27-.54.068-.337.676.135.676 3.648-.338 7.227-.27 10.942-.27h5.336c1.35.067 2.702.338 4.052.203.135 0 .27-.136.27-.203.068-.135.068-.203.136-.338v-.135a3.298 3.298 0 0 1-1.148 0zM46.548 176.456c-1.08.135-2.229.203-3.31.271-1.486 0-2.971.473-4.39.405-.405 0-.405.608 0 .676 1.486.067 2.972-.338 4.39-.406 1.081 0 2.162-.135 3.242-.27.068-.203.068-.405.068-.676zM45.062 167.2c-.946.135-3.445.135-3.85.135-1.418.135-2.837.27-4.323.405-2.634.203-5.2.473-7.835 1.081-.405.068-.27.744.203.609 2.904-.609 5.876-.879 8.848-1.149 1.418-.135 2.904-.338 4.323-.406 1.08-.067 2.229.068 3.31-.135.134 0 .202-.135.202-.202 0-.135.068-.203.068-.338v-.135c-.27.067-.608.067-.946.135z" fill="#023F3C"/><path d="M372.439 94.431c.337-11.757.878-23.513.945-35.27-.135-3.648-.27-7.364-.27-11.08 0-2.636.27-5.406 0-7.973-.135-1.352-.405-2.635-.608-3.987-.067-1.148-.067-2.364-.202-3.513-.136-1.554-.068-3.108-.068-4.73-.338-3.446-.608-6.892-.743-10.405-.473-2.5-1.689-5.135-4.052-4.594-2.297.54-2.972 3.918-2.432 6.35 0 .068.068.136.068.136 0 .878 0 1.69.067 2.567.068 1.487.338 2.973.338 4.46.067 2.77.202 5.473.473 8.175.27 2.973.54 5.946.607 8.92 0 1.485-.067 2.904-.067 4.39.067 1.69.135 3.38.135 5.136.068 6.419-.135 12.77-.203 19.189 0 6.216-.337 12.432-.337 18.648 0 12.5-.541 24.864-1.351 37.364a312.18 312.18 0 0 0-.608 19.459c0 6.486.203 12.973-.068 19.392-.27 7.229-.135 14.594-.067 21.891v.203c.135 8.175.473 16.283.473 24.459 0 2.162.135 4.256.135 6.351-.068 2.095-.203 4.122-.203 6.216-.067 4.73.135 9.459-.202 14.189-.271 4.797-.203 9.527-.608 14.324-.338 4.865-.541 9.73-.743 14.594-.068 2.365-.135 4.73-.135 7.095v.946c-.136-.135-.406-.068-.406.27 0 2.162.068 4.324-.067 6.486-.068 1.284-.135 2.838.473 3.987.607 1.148 1.756 1.419 2.836 1.081.203.202.473.338.811.405 2.229.676 2.972-2.635 3.174-4.797.338-3.784-.27-7.703-.337-11.486.135.067.337-.068.337-.271 0-3.648-.202-7.297-.405-10.945-.135-3.581 0-7.027.068-10.608.202-7.162.472-14.324.472-21.486 0-3.581.473-7.162.676-10.676.27-3.581.405-7.162.608-10.743.135-3.378.135-6.824.135-10.202v-4.797c0-1.622-.203-3.244-.203-4.865.068-4.122 0-8.176-.135-12.297.068-1.892.203-3.716.27-5.608.338-25.54.676-50.945 1.419-76.35z" fill="#00ACD1"/><path d="M339.883 64.094c1.081 3.58 2.026 7.432 4.323 10.54 2.026 2.703 5.403 4.46 8.443 5.811 3.579 1.554 6.957 2.838 10.942 3.176 4.12.337 8.105-.406 12.09-1.081 7.767-1.284 14.318-5.068 18.776-11.42 4.323-6.148 6.417-14.864 5.201-22.229-.608-3.85-2.296-7.364-4.66-10.54-2.432-6.486-8.848-11.959-15.738-13.918-2.229-.608-4.322-1.69-6.619-2.027-2.161-.406-4.525-.203-6.687-.136-4.255.27-8.577 1.082-12.427 2.906-3.377 1.621-6.349 3.04-8.578 6.013-2.161 2.905-3.04 6.69-4.188 10.068-2.229 7.297-3.039 15.54-.878 22.837z" fill="#1279AC"/><path d="M381.894 45.175c-.81 0-1.08.473-1.08.473h-.135s-.338.608-.338 1.352c-.135.405-.27.878-.338 1.283-.067.203-1.08 4.054-1.958 5.879-.406.878-.879 1.891-1.419 2.5-.405.473-1.756 2.094-2.364 2.635-.608.54-3.85 2.297-5.336 2.635-3.174.743-6.889.878-10.941.27-.068 0-.811-.135-1.284.135-.608.338-1.283 1.149-1.08 1.96.067.337.405.472.337.54v.135s.135.203.406.406a.962.962 0 0 0 .202.135c.338.202.811.405 1.283.54 1.081.203 2.297.203 3.378.27.337 0 1.553.068 1.823.068 1.959 0 3.918-.203 5.741-.473h.068c1.688-.338 3.309-.946 4.863-1.757 1.418-.743 2.499-1.35 3.377-2.094a15.344 15.344 0 0 0 2.296-2.365c.676-.81 1.824-2.635 2.364-3.649 0 0 .068 0 .135-.067.068-.068.203-.608.136-.676.337-.946.675-2.094.675-2.162.338-1.351.743-4.257.743-4.257 0-.743 0-1.891-.473-2.905.135-.27 0-.81-1.081-.81zM355.958 46.797c0 .27.135 1.486.203 1.892.067.27.608 2.703 2.026 2.838.338.067.676 0 .946-.136.608-.27 1.013-1.283 1.08-1.35.068-.068.406-1.487.473-1.758.135-.27.135-.473.135-.81 0-.203-.135-.744-.27-.811-.203-.27-.338-.203-.405-.338-.068-.135-.068-.743-.068-.878-.067-.676-.202-1.149-.743-1.69-.54-.473-1.351-.54-2.026-.337-.405.135-.945 1.013-1.283 1.148a.525.525 0 0 0-.27.27c-.203.338-.203 1.014 0 1.352.067.135.202.338.202.608zM366.292 49.094c.27-.068.676-.203.878-.405.135-.135.203-.406.27-.608.135-.27.203-.54.271-.811.27-.879.472-2.027.27-2.973-.203-.81-.676-1.757-1.284-2.297-1.08-1.014-2.769-.27-3.106 1.08-.271 1.082.135 2.298.405 3.311.337 1.284.743 2.906 2.296 2.703z" fill="#82DBED"/><path d="M389.527 48.216c-.743-2.703-1.554-5.54-2.905-7.973-.608-1.081-1.418-2.027-2.229-2.905-.878-.946-1.688-2.095-2.566-3.04-1.824-1.893-4.323-2.839-6.619-3.717-2.162-.81-4.661-1.622-6.957-1.351-.608.067-1.013.405-1.283.878-.676.068-1.351.135-2.027.27-2.296.54-4.525 1.487-6.619 2.636-3.782 2.162-7.767 5.675-9.726 9.797-1.081 2.297-1.351 4.932-1.553 7.432-.203 2.838-.743 5.473-.068 8.243 1.148 4.594 3.985 9.257 7.362 12.364 7.565 7.027 17.561 6.69 25.936 1.487 1.959-1.216 3.242-2.905 4.931-4.46 1.689-1.621 2.769-2.972 3.512-5.27 1.486-4.662 2.229-9.459.811-14.391zm-2.972 9.932c-.405 1.69-.878 3.716-1.756 5.203-.406.743-1.013 1.216-1.554 1.756-.878.811-1.621 1.757-2.431 2.636-5.539 5.54-16.075 7.297-22.424 2.432-3.107-2.432-5.606-5.676-7.295-9.392-.878-1.96-1.486-4.054-1.216-6.284.271-2.5.338-5.067.811-7.5.946-4.391 4.863-7.972 8.308-10.202 1.823-1.148 3.714-1.96 5.741-2.567 2.364-.744 4.66-.406 7.092-.203.54.067.945-.203 1.215-.54 2.027.607 4.053 1.689 5.539 2.702 1.418.946 2.431 2.703 3.647 3.919 1.418 1.554 2.364 3.513 3.04 5.608 1.418 4.054 2.296 8.108 1.283 12.432z" fill="#82DBED"/><path d="M387.433 288.143c0-.946-.068-1.892-.135-2.77-.068-.811-.27-1.621-.405-2.432-.135-.608-.203-1.284-.676-1.825-.81-.945-2.094-.743-3.039 0l-.608.609c-.27.27-.338.473-.811.473-.472 0-.405-.068-.607-.473-.406-.879-.541-1.757-.676-2.703-.27-1.96-.135-3.851-.203-5.811 0-.878-.202-1.756-.27-2.635-.067-.676-.135-1.351-.472-1.959-.608-1.149-1.554-1.554-2.972-1.149-1.486.405-2.364 1.149-3.04 2.297-.337.608-.608 1.217-.945 1.825-.203.405-.406.878-.676 1.283-.067.136-.202.271-.27.406-.405.54-.338.608-1.216.338-.945-.338-.608-.203-.743-.744-.067-.337-.27-.608-.337-.946-.135-.54 0-1.081 0-1.621 0-.541-.068-1.081-.068-1.622-.067-1.824-.27-3.581-.203-5.405l.203-6.081c.068-1.757-.135-3.513-.27-5.27-.068-1.014-.27-2.635-1.418-3.311-1.081-.608-2.432.27-3.107.879-1.149 1.148-1.689 2.635-2.229 4.053-.676 1.825-1.148 3.649-1.621 5.541-.406 1.757-.946 3.446-1.081 5.27-.135 1.689-.27 3.378-.405 5-.068 1.149-.135 2.297-.743 3.378-.405.676-1.013 1.216-1.959 1.081-1.351-.202-1.891-1.148-2.296-2.094-.676-1.554-1.081-3.176-1.824-4.73-.473-1.081-1.148-2.094-2.702-2.162-1.688-.068-2.229 1.149-2.836 2.23-.946 1.486-1.419 3.04-1.757 4.662-.742 3.716-.337 7.635.068 11.351.068.676.068 1.419.27 2.094 0 .068.068.136.068.271 0 .202-.068.405-.068.54-.067.406-.067 1.081-.473 1.419-.743.608-1.486-.203-1.891-.54-.81-.676-1.216-1.554-1.621-2.365-.27-.473-.405-1.081-.743-1.487-.608-.743-1.351-.337-1.891.271-.946 1.148-.473 2.432-.27 3.648.203 1.216.203 2.77 1.283 3.784 1.081 1.013 3.175.811 4.661.946 4.728.27 9.456.54 14.116.54 2.431 0 4.795 0 7.227-.067 2.296-.068 4.593-.338 6.957-.473 2.161-.135 4.322-.068 6.484-.203 2.026-.067 3.917-.743 5.876-.743.743 0 2.094.067 2.364-.676.203-.608 0-1.419 0-1.892z" fill="#42BDA9"/></svg>