<svg width="400" height="280" fill="none" xmlns="http://www.w3.org/2000/svg"><path d="M25.835 148.926c5.439 2.525 10.878 5.051 16.15 7.888 4.796 2.558 10.342 5.889 13.075 10.87 3.86 7.099-1.845 15.584-5.866 21.282-4.387 6.178-9.197 11.988-11.416 19.447-2.35 7.867-.42 15.531 6.03 20.443 4.138 3.198 9.099 4.977 13.923 6.743 4.916 1.774 9.794 3.452 14.996 4.132 5.652.768 11.383.703 17.079 1.009 6.063.293 12.122.633 18.198.787 11.967.338 23.881-.217 35.861-1.468 5.92-.608 11.651-.674 17.563-.722 5.504-.086 11.234-.619 16.741-1.22 9.204-.953 17.42-4.523 24.265-11.03a34.307 34.307 0 0 0 2.078-1.627c3.141-2.695 6.071-6.065 6.348-10.434.244-3.531-.901-6.912-2.78-9.802-1.956-3.038-4.509-5.57-6.818-8.267-2.432-2.849-6.231-7.698-4.828-11.867.832-2.493 3.843-3.33 6.014-4.013 2.693-.867 5.453-1.962 8.21-2.543 5.754-1.278 11.919-.601 17.745-.704 12.16-.252 24.058 1.295 36.087 2.902 12.121 1.615 23.875 3.71 35.741 6.563 10.88 2.62 22.436 3.433 33.603 2.059 5.144-.635 10.401-1.493 15.341-3.364 4.034-1.488 8.088-3.676 9.863-7.903 3.681-8.864-4.425-18.048-10.244-23.322-7.804-7.051-17.189-11.914-26.122-17.202-6.85-4.062-15.316-7.996-19.581-15.18-2.29-3.864-2.78-8.353.531-11.874 3.003-3.176 7.259-5.064 11.096-6.898 3.884-1.83 7.639-3.766 11.637-5.352 4.142-1.665 8.38-3.368 11.906-6.26 2.783-2.309 5.097-5.456 5.494-9.16.397-3.703-.944-7.43-2.655-10.632-4.231-8.022-10.94-13.1-19.388-15.77-10.092-3.2-21.015-3.439-31.543-3.5-11.807-.09-23.576.386-35.344-.12-6.113-.251-12.254-.692-18.279-1.87-5.621-1.094-11.09-2.827-16.563-4.515-5.918-1.822-11.886-3.603-17.485-6.378-5.553-2.77-10.692-6.53-15.596-10.36-9.297-7.24-17.579-16.488-28.597-21.038-9.913-4.118-20.879-4.875-31.526-4.153-10.97.738-21.958 3.111-32.209 7.378-8.148 3.343-18.168 7.585-23.172 15.434-2.362 3.658-3.074 8.266-1.822 12.453 1.21 4.136 4.197 7.411 7.223 10.27 1.597 1.507 3.245 2.972 4.792 4.521 1.589 1.6 3.685 3.155 4.772 5.222 2.25 4.28-2.567 9.67-5.485 12.433-7.397 7.015-17.773 10.662-27.02 13.995-9.437 3.408-18.86 6.678-27.544 11.794-8.977 5.322-17.996 12.044-23.667 21.139C-7.727 135.321 15 143.879 25.835 148.926z" fill="#FFEAB3"/><path opacity=".1" d="M250.401 271.194c-1.579 1.21-4.368 2.157-7.209 2.788-6.683 1.578-15.102 2.262-22.469 2.998-16.154 1.578-32.677 2.315-49.2 2.525-26.363.421-52.673-.315-78.983-.473a949.468 949.468 0 0 1-32.782-2.788c-10.261-1.052-21.575-2.472-30.52-4.945-.895-.263-.631-.736.263-.894 9.84-1.841 20.68-2.367 31.256-2.893 12.998-.631 26.153-1.105 39.203-1.263 13.049-.157 26.099.263 39.149.263 13.418 0 26.889-.157 40.307-.21 12.997-.053 26.1-.473 38.992.316 8.945.526 19.838.841 27.888 2.735 2 .526 3.368 1.157 4.105 1.841zM400 271.773c-.895 1.21-2.421 2.104-3.999 2.788-3.684 1.526-8.367 2.262-12.419 2.946-8.945 1.525-18.048 2.209-27.204 2.419-14.576.316-29.152-.473-43.728-.683-6.104-.737-12.155-1.736-18.154-2.893-5.683-1.053-11.944-2.578-16.891-5.05-.473-.263-.368-.737.158-.895 5.473-1.841 11.419-2.314 17.26-2.788 7.209-.578 14.47-.999 21.679-1.104 7.209-.105 14.418.368 21.627.368 7.42 0 14.892-.053 22.311-.105 7.156-.053 14.418-.421 21.574.421 4.947.578 10.998.894 15.418 2.84 1.21.474 1.947 1.105 2.368 1.736z" fill="#04213E"/><path d="M40.551 161.36c.158 1.263.316 2.578.632 3.84l.315 1.263c.58 1.473 1.421 2.893 2.631 3.945 3.947 3.472 9.788 3.84 14.681 4.734 4.368.789 8.735 1.631 13.156 2.104 2.104 0 4.21.106 6.314 0 4.894-.21 9.84-.157 14.734-.578 4.999-.421 10.103-.316 15.102-.421 5.156-.158 10.313-.211 15.523-.263 2.367 0 4.735-.316 7.103-.368.421 0 .842 0 1.263-.053.474 0 1 0 1.474.053 4.472.105 8.945.21 13.365.263H149.475c2.578 0 5.157-.158 7.735-.211 2.631-.105 5.262.053 7.893-.052 5.368-.158 10.787-.158 16.155-.263 2.683-.053 5.367 0 8.051-.053 2.42-.053 4.841-.263 7.261-.368 5.367-.211 10.735-.894 16.102-1.315 2.684-.211 5.367-.631 8.051-.895 2.157-.263 4.42-.315 6.525-.946.842-.263 1.842-.632 2.473-1.263.105-.105.21-.21.316-.368.158-.053.315-.105.526-.158.947-.315 1.684-.684 2.315-1.473.737-.894 1.158-1.946 1.579-2.998.526-.789 1-1.578 1.315-2.42.474-1.262.632-2.577.632-3.945 0-1.315.21-2.683 0-4.05-.369-2.42-2.105-4.419-3.947-5.892-1.263-.999-2.105-2.104-2.578-3.629-.421-1.316-.842-2.631-1.21-3.998-.474-1.789-1-3.945-2.684-4.945-2.21-1.315-4.736-1.999-7.156-2.788a135.494 135.494 0 0 0-7.841-2.472l-3.631-1.105c-1.263-.368-2.578-.526-3.841-.894-.21-.053-.368-.105-.579-.158h-.105c-.053 0-.105 0-.105-.053a21.381 21.381 0 0 0-2.631-.631c-1.842-.368-3.684-.684-5.473-1.104-1.789-.421-3.578-.789-5.314-1.421-1.421-.473-2.894-.999-4.368-1.367a14.786 14.786 0 0 0-1.894-1.736l-.579-.579s-.053-.052-.105-.052c-.526-.474-1-.947-1.526-1.368-.053-.053-.105-.053-.158-.053-.526-.684-.947-1.42-1.421-2.051-.737-1.052-1.473-2.157-2.105-3.314a498.019 498.019 0 0 1-3.999-7.207c-.631-1.157-1.263-2.367-1.999-3.472-.579-.894-.737-2.051-1.421-2.893-.421-.578-.947-1.052-1.526-1.473-.368-.42-.684-.894-1.105-1.315-.526-.473-1.105-.894-1.684-1.315-1.158-.894-2.368-1.315-3.683-1.946-1.211-.579-2.526-1.105-3.842-1.473-1.473-.42-2.946-.894-4.42-1.315-1.263-.368-2.42-.894-3.683-1.368-2.789-1.052-5.894-1.315-8.84-1.63a118.238 118.238 0 0 0-4.473-.369c-1.526-.105-2.999.053-4.525-.052-3-.158-5.789.263-8.735.684-1.316.21-2.684.21-4 .526-1.42.368-2.788.63-4.157 1.157-1.42.526-2.841.789-4.262 1.262-1.21.421-2.42.947-3.631 1.368-2.841.842-5.262 2.104-7.84 3.472-1.368.736-2.736 1.367-4 2.314-.42.316-.946.579-.841 1.105-1.684.842-3.157 2.525-4.315 3.945-1.368 1.684-2.578 3.525-3.789 5.313-1.368 1.946-2.841 3.735-4.314 5.629-.737.946-1.421 1.946-2.158 2.893-.631.789-1.052 1.683-1.631 2.525-1.368 2.051-2.842 4.05-4.052 6.207-.263.526-.368 1.157-.736 1.578-.316.473-.79.842-1.263 1.157-.948.631-2.053 1.157-3.105 1.683-1.21.632-2.42.947-3.683 1.368-1.106.316-2.053.894-3.21 1.21-2.21.579-4.42.947-6.63 1.631-1.21.368-2.42.736-3.631 1.052-.895.21-1.79.578-2.526 1.157-1.473 1.105-2.842 2.788-3.578 4.471-.526 1.21-.79 2.473-1.158 3.735-.316 1.052-.736 2.104-.947 3.209-.263 1.21-.316 2.472-.895 3.629-.315.632-.736 1.21-1.105 1.789l-.157.158c-.21.42-.474.841-.737 1.262-.474 1.368-.474 2.788-.316 4.208z" fill="#1279AC"/><path d="M222.775 160.624c0-.789 0-1.683-.263-2.472v-.316c0-.052 0-.052-.053-.105v-.158c-.052-.21 0-.368-.21-.526-.211-.105-.631 0-.842 0-.158 0-.368.053-.526.053h-.105c-.684 0-1.316.052-2 .158-.053 0-.105 0-.105.052-1.316.053-2.894.158-4.262.368h-.264c-1.578.263-3.262.211-4.893.369-2.263.158-4.473.368-6.683.894-.053 1.052-.053 2.104-.105 3.209 0 .526-.211 1.578.105 2.051.263.421.947.316 1.421.158 1 .053 2.052-.053 3.052-.158 1.263-.105 2.525-.315 3.736-.473.894 0 1.789 0 2.683-.053 1.158-.105 2.263-.263 3.421-.421h.421c.947 0 1.841-.052 2.789-.105.526-.052 1.262 0 1.736-.21h.053c.263.052.473.052.736.052.158 0 .263-.105.263-.21.106-.789-.105-1.473-.105-2.157z" fill="#F0A492"/><path d="M157.421 178.614c.631 1.946 1.21 4.103 2.526 5.734 1.157 1.473 2.999 2.367 4.683 3.103 1.947.842 3.841 1.473 5.998 1.578 2.263.106 4.368-.368 6.578-.789 4.21-.789 7.735-2.998 10.05-6.522 2.263-3.472 3.263-8.259 2.526-12.309-.368-2.104-1.368-4.051-2.683-5.734-1.421-3.524-4.999-6.47-8.735-7.417-1.211-.316-2.368-.842-3.631-1.052-1.158-.158-2.421-.053-3.631.053-2.315.21-4.683.736-6.735 1.788-1.842.947-3.368 1.736-4.578 3.419-1.158 1.631-1.579 3.735-2.105 5.576-1.21 4.051-1.579 8.574-.263 12.572z" fill="#04213E"/><path d="M167.366 174.143c.211.684.474 1.42.947 1.999.421.526 1.105.842 1.737 1.105.736.263 1.421.526 2.21.578.842.053 1.631-.105 2.42-.263 1.579-.263 2.842-1.052 3.736-2.314.842-1.21 1.211-2.894.948-4.314-.158-.736-.527-1.42-1-1.999-.526-1.262-1.842-2.262-3.21-2.63-.421-.105-.895-.315-1.316-.368-.421-.053-.894 0-1.315 0-.842.053-1.737.263-2.473.631-.684.316-1.263.631-1.684 1.21-.421.579-.579 1.315-.789 1.946-.579 1.421-.684 2.999-.211 4.419z" fill="#FBCFC6"/><path d="M71.86 180.508c.632 1.946 1.21 4.103 2.526 5.733 1.158 1.473 3 2.368 4.683 3.104 1.947.842 3.841 1.473 5.999 1.578 2.263.105 4.367-.368 6.577-.789 4.21-.789 7.736-2.998 10.051-6.523 2.263-3.472 3.262-8.258 2.526-12.309-.369-2.104-1.368-4.05-2.684-5.733-1.421-3.525-4.999-6.471-8.735-7.417-1.21-.316-2.368-.842-3.63-1.052-1.158-.158-2.421-.053-3.632.052-2.315.211-4.683.737-6.735 1.789-1.842.946-3.368 1.735-4.578 3.419-1.157 1.63-1.578 3.735-2.105 5.576-1.263 4.05-1.578 8.574-.263 12.572z" fill="#04213E"/><path d="M81.806 176.037c.21.683.473 1.42.947 1.998.42.526 1.105.842 1.736 1.105.737.263 1.421.526 2.21.579.842.052 1.632-.105 2.42-.263 1.58-.263 2.842-1.052 3.737-2.315.842-1.21 1.21-2.893.947-4.313-.158-.737-.526-1.421-1-1.999-.526-1.263-1.841-2.262-3.21-2.63-.42-.105-.894-.316-1.315-.368-.421-.053-.895 0-1.316 0-.842.052-1.736.263-2.473.631-.684.315-1.263.631-1.684 1.21-.42.578-.579 1.315-.789 1.946-.579 1.42-.684 3.051-.21 4.419zM217.724 146.842c.157.526.368 1.157.736 1.578.316.421.895.684 1.368.842.579.21 1.105.421 1.737.421.631.052 1.263-.106 1.947-.211 1.21-.21 2.262-.841 2.946-1.788.685-.947.948-2.315.737-3.42-.105-.578-.421-1.104-.789-1.578-.421-.999-1.473-1.788-2.526-2.051-.368-.105-.684-.263-1.052-.316-.369-.052-.737 0-1.053 0a6.537 6.537 0 0 0-1.999.474c-.526.263-1 .473-1.368.947-.316.473-.474 1.052-.632 1.578-.368 1.104-.473 2.367-.052 3.524zM193.097 149.367c.158.526.369 1.158.737 1.578.316.421.894.684 1.368.842.579.211 1.105.421 1.737.421.631.053 1.262-.105 1.946-.21 1.211-.211 2.263-.842 2.947-1.842.684-.946.947-2.314.737-3.419-.105-.578-.421-1.104-.789-1.578-.421-.999-1.474-1.788-2.579-2.051-.368-.106-.684-.211-1.052-.263-.369-.053-.737 0-1.053 0-.684.052-1.368.21-1.947.526-.526.263-.999.473-1.315.947-.316.473-.474 1.052-.632 1.578-.368 1.104-.473 2.367-.105 3.471z" fill="#FBCFC6"/><path d="M211.251 142.634c.053.631.106 1.263.211 1.894.263 1.42.421 2.788.736 4.208.158.684.106 1.368.158 2.052 0 .42.106.789.579 1.104a.325.325 0 0 0 .369-.052c.473-.421.105-1.21.105-1.631 0-.947-.053-1.841-.316-2.788-.316-1.262-.21-2.577-.105-3.84.105 0 .263-.052.263-.105-.053-.368-.105-.789-.211-1.105v-.263c0-.105-.21-.158-.315-.105-.316-.105-.842-.158-1.158-.053-.474.106-.316.421-.316.684zM206.2 142.529c.052.631.105 1.262.263 1.893.263 1.421.473 2.788.789 4.209.158.684.105 1.367.158 2.051 0 .421.105.789.632 1.105a.325.325 0 0 0 .368-.053c.473-.421.105-1.21.105-1.63-.053-.947-.053-1.842-.316-2.788-.315-1.263-.21-2.578-.105-3.84.105 0 .263-.053.263-.106-.052-.368-.105-.789-.21-1.104v-.263c0-.105-.211-.158-.316-.105-.316-.106-.842-.158-1.158-.053-.631.053-.473.421-.473.684z" fill="#04213E"/><path d="M137.162 138.426c.684 1.052 2.421 1.683 3.578 1.999 1.789.42 3.789.263 5.578.052 1.421-.158 1.579-.315 1.579-1.736 0-1.999-.158-3.945-.474-5.944 0-.052 0-.105-.053-.158 0-.052-.052-.105-.052-.105-.316-.473-1.263-.21-1.737-.105-1.894.368-3.894.053-5.788.105-1.263.053-3.105.631-3.683 1.894-.527 1.104.473 3.051 1.052 3.998zm-.421-3.683c.579-1.683 2.736-1.788 4.262-1.735a37.53 37.53 0 0 0 3.421 0c.21 0 2.473-.421 2.525-.158.211 1.262.264 2.419.316 3.682.053.736.158 1.473.105 2.209 0 .894-.157 1-.947 1.157-2.473.527-5.104.158-7.367-.789-1.42-.578-2.894-2.787-2.315-4.366zM109.221 134.901c.105.631.894 1.263 1.368 1.578.684.526 1.473.684 2.368.631 1.052-.052 2.42-.157 3.42-.526.474-.21 1-.526.947-1.157-.105-.841-1.368-1.315-1.999-1.578-.474-.158-1-.263-1.474-.316-.315 0-2.578.211-2.631-.052-.105-.421-.736-.211-.631.21v.105c-.789.106-1.474.369-1.368 1.105zm1.736-.368c.316-.053.789.105 1.158.21.316.106.473-.21.368-.421.895 0 1.737-.052 2.579.211.736.263 1.999.894.841 1.473-.368.158-.947.158-1.368.21-1.42.263-2.736.421-3.894-.578-.526-.421-.421-1 .316-1.105zM79.332 134.586c1.21 1.788 3.263 1.262 5.157 1.21.684 0 4.052-.421 2.894-1.946-.42-.579-1.841-.79-2.473-.947-1.315-.369-2.684-.316-4.052-.316-.157 0-.263.105-.315.263-1.105.053-2.053.474-1.21 1.736zm1.316-1.052c.158 0 .263-.105.316-.263 1.315-.053 2.525-.053 3.788.263.263.053 1.474.263 1.631.526.58 1.052-1.105.999-1.63 1.052-1 .053-2.58.368-3.579.053-.842-.263-2.105-1.631-.526-1.631z" fill="#1E396B"/><path d="M182.836 121.751c-.105-.158-.21-.263-.263-.368-.315-.421-.631-.895-.947-1.316a2.462 2.462 0 0 1-.263-.526c0-.052-.053-.105-.053-.157-.736-1.105-1.42-2.262-2.104-3.42-3.105-4.997-6.736-9.678-9.472-14.834l-.158-.157c-1.631-.053-3.315.21-4.946.368h-.316c-.053-.053-.053-.053-.158-.053-2.947.053-5.841.263-8.787.053-2.474-.211-5.157-.421-7.63-.105-.158 0-.263.052-.421.052 0 .053-.053.105-.053.158-.105.421-.053.947 0 1.42.158.632.263 1.315.368 1.947.211.789.369 1.63.421 2.472 0 .105-.052.158-.105.21.158.579.263 1.105.421 1.684.053.263.105.526.158.736v.053c.053.421.21.789.263 1.157 0 .053.053.158.053.21.052.263.105.579.21.842.105.473.211.894.316 1.368.105.473.21.947.263 1.42 0 .368.105.736.158 1.157.158 1.263.368 2.525.473 3.788.106 1.209.316 2.314.632 3.471.316 1.052.421 2.473.947 3.42.316.631.789.631 1.368.683 1.053.053 2.158-.052 3.21-.052.947 0 1.947-.105 2.894-.158.947-.053 1.842.105 2.842.158 1.947.105 3.999-.105 5.946-.263 2.157-.158 4.262-.526 6.419-.842.263-.052.527-.052.79-.105 1.42-.053 2.789-.105 4.209-.263.895-.105 1.789-.316 2.631-.473.316 0 .632 0 1-.053.316 0 .789-.053 1-.316.316-.421.105-1.052-.263-1.736-.474-.578-.842-1.262-1.053-1.63zM78.911 128.536c.632.684 1.895.737 2.79.789 1.788.106 3.63-.21 5.472-.105a96.02 96.02 0 0 0 5.525 0c3.736-.105 7.472-.631 11.208-.631h.842c0-.684.368-1.42.526-1.946 1-3.735 1.473-7.733 1.842-11.626.421-3.84.736-7.732.842-11.572v-.947c-.632.053-1.211.105-1.842.158h-.105c-2.684.052-5.367-.105-8.051-.053-1.42 0-2 .368-2.947 1.421-.894.999-1.842 1.946-2.736 2.998a160.445 160.445 0 0 0-5.21 6.628 97.306 97.306 0 0 0-2.578 3.84c-.158.21-.368.368-.526.526-1.052 1.105-2.105 2.367-2.842 3.682-.42.736-.684 1.526-1.105 2.262-.368.579-.736 1.157-1 1.788-.315.842-.789 1.999-.105 2.788zM108.694 127.485v.105c.369.263.79.473 1.263.684.211 0 .369-.053.579-.053 2-.263 3.841-.263 5.894-.21 2.104.052 4.157-.105 6.261.052 1 .053 2.053.158 3.052.106 1-.053 2-.263 3-.263 1.105 0 2.21.157 3.367.105.895-.053 1.79-.211 2.684-.263 2.105-.105 4.262-.158 6.42-.158.736 0 1.684.053 2.578 0 2 .053 3.999-.263 3.947-1.999-.053-3.314-.79-6.575-1.421-9.837-.474-2.63-.789-5.313-1.263-7.943-.263-1.473-.421-2.945-.842-4.418-.21-.789-.263-1.21-.737-1.368-.736-.894-4.998-.947-5.735-.999-4.157-.211-8.262-.106-12.366.052-2.315.105-4.578.368-6.841.579-1.736.158-3.472.21-5.262.368-.263.263-.526.526-.736.842-.211.578-.421 1.209-.526 1.788-.842 7.417-2.684 14.729-3.421 22.146l.105.684z" fill="#FBCFC6"/><path d="M237.246 235.793a35.11 35.11 0 0 0-2.368-10.889c-1.316-3.419-3.315-6.786-5.736-9.574-2.315-2.63-5.209-3.471-8.472-4.523-3.631-1.158-7.103-2.157-10.945-2.525-3.894-.369-7.735 1.683-11.524 2.472-.315.053-.473.263-.526.526-2.631.684-5.051 1.525-7.419 3.051-5.368 3.419-9.788 8.048-11.998 14.203-1.052 2.945-1.578 6.049-1.894 9.153-3.999.157-8.051.105-12.103.368-5.788.368-11.471.631-17.259.631-4.946 0-9.893-.421-14.839-.368-2.631 0-25.31-.211-27.994-.211-.947 0-2.052-.157-3.157-.157-.053-.737-.053-1.473-.105-2.157-.211-3.735-1-7.417-2.368-10.889-1.316-3.419-3.315-6.786-5.736-9.574-2.315-2.63-5.21-3.471-8.472-4.523-3.63-1.158-7.103-2.157-10.945-2.525-3.894-.369-7.735 1.683-11.524 2.472-.315.053-.473.263-.526.526-2.63.684-5.051 1.525-7.42 3.051-5.367 3.419-9.787 8.048-11.997 14.203-1.263 3.524-1.789 7.259-2.052 10.994-.263 3.682-.42 7.417.474 11.046 1.63 6.47 4.788 13.098 10.576 16.728 6.315 3.945 12.787 5.628 20.26 5.313 6.682-.263 13.838-2.841 18.837-7.312 4.947-4.471 9.209-11.31 10.524-17.885.474-2.472.579-5.155.474-7.785.421.052.894.105 1.21.105h3.789c2.683 0 25.363.21 27.994.21 4.788 0 9.524.369 14.312.369 5.315 0 10.524-.316 15.839-.632 3.947-.263 7.998-.21 11.945-.368v.316c-.263 3.682-.421 7.417.473 11.046 1.632 6.471 4.789 13.098 10.577 16.728 6.315 3.945 12.787 5.629 20.259 5.313 6.683-.263 13.839-2.841 18.838-7.312 4.946-4.471 9.209-11.309 10.524-17.885.895-3.892.684-7.995.474-11.73z" fill="#04213E"/><path d="M92.382 236.003c-.42-2.683-1.42-5.891-3.104-8.048-1.632-2.104-3.631-4.051-5.947-5.418-1.262-.737-2.473-1.631-3.893-2.21-1.421-.578-3-.841-4.526-1.209-5.683-1.421-12.523.631-17.101 4.208-1.368 1.052-2.737 2.051-3.894 3.314-.947 1.052-1.684 2.262-2.368 3.472-.737 1.209-1.158 2.577-1.368 3.997a35.57 35.57 0 0 1-.474 1.315c-.42 1.263-1 2.788-1.052 4.103-.053 1.158-.158 2.578.105 3.735.368 1.526.737 2.999 1 4.524.263 1.473 1 2.788 1.473 4.208.474 1.315.947 2.788 1.79 3.893 3.42 4.419 8.629 7.259 14.26 7.417 3.104.105 6.524-.947 9.418-1.999a30.246 30.246 0 0 0 6.841-3.577c4.315-2.998 7.788-7.259 8.42-12.572.368-3.051.894-6.049.42-9.153zM229.616 236.003c-.421-2.683-1.421-5.891-3.105-8.048-1.631-2.104-3.631-4.051-5.946-5.418-1.263-.737-2.473-1.631-3.894-2.21-1.421-.578-2.999-.841-4.525-1.209-5.683-1.421-12.524.631-17.102 4.208-1.368 1.052-2.736 2.051-3.894 3.314-.947 1.052-1.683 2.262-2.367 3.472-.737 1.209-1.158 2.577-1.369 3.997-.157.474-.315.895-.473 1.315-.421 1.263-1 2.788-1.053 4.103-.052 1.158-.157 2.578.106 3.735.368 1.526.736 2.999.999 4.524.264 1.473 1 2.788 1.474 4.208.473 1.315.947 2.788 1.789 3.893 3.42 4.419 8.63 7.259 14.26 7.417 3.105.105 6.525-.947 9.419-1.999a30.244 30.244 0 0 0 6.841-3.577c4.314-2.998 7.787-7.259 8.419-12.572.368-3.051.947-6.049.421-9.153z" fill="#FBCFC6"/><path d="M72.65 235.109c-1.526-.894-2.895.105-4.526 0-.316-.053-.316.473 0 .526.263 0 .526 0 .737-.053-1.631.421-2.947 1.841-2.947 3.735 0 2.473 2.105 4.051 4.473 3.735 2.42-.316 3.946-2.367 3.999-4.734 0-1.315-.631-2.525-1.736-3.209zM209.62 235.32c-.737-1.105-1.421-1.263-2.526-1.052-.736-.263-1.42-.369-2.262.052-1.316.737-2.526 1.789-3.21 3.104-1.474 2.683.158 5.786 3.052 6.575 2.999.789 5.209-2.051 5.788-4.682.368-1.525 0-2.735-.842-3.997z" fill="#04213E"/><path d="M253.611 178.93c-.263-.316-.737-.421-1.158-.474-1.052-.157-2.157-.105-3.262-.263-2.105-.315-4.21-.473-6.315-.21-1.21.158-2.368.316-3.578.473-1.526-.105-3.105-.157-4.631-.21-4.735-.158-9.524 0-14.26.158-4.841.158-9.682.421-14.523.421-4.736.052-9.524-.211-14.26-.474-4.841-.263-9.682-.473-14.471-.368-4.841.158-9.682.736-14.523.947-4.736.21-9.471.263-14.207 0-4.894-.263-9.682-.789-14.576-.789-9.63.052-19.259 1.21-28.889 1.367-9.734.158-19.469-.263-29.204-.263-4.84 0-9.682.263-14.576.106-4.683-.158-9.366-.632-14.102-1-4.736-.368-9.366-.526-14.102 0-3.63.368-7.314.842-10.998.421-.105.053-.105.158-.105.263l-.316.473c-1.315 2.683 1.947 6.365 3.526 8.206a30.28 30.28 0 0 1 2.157 2.946c.79 1.157 1.632 2.209 2.105 3.577a22.246 22.246 0 0 0 2.21 4.314c0 .052 0 .052.053.105.21.315.474.684.737.999 1.105 1.473 2.42 2.736 3.84 3.893.737.999 1.474 2.104 2.474 2.735 1.737 1.105 3.578.737 5.473.947.947.105 1.894.21 2.894.158 1.105-.053 2.262-.263 3.367-.316 2.263-.158 4.526.263 6.788.263 2.263 0 4.526 0 6.788-.315 4.526-.684 8.998.052 13.576.105 2.263 0 4.526.158 6.788.052 2.316-.105 4.63-.157 6.894-.21 2.157 0 4.315-.053 6.472-.105.474 0 .947-.053 1.42-.053.106 0 .158.053.264.053.105 0 .158 0 .21-.105.474 0 .947-.053 1.421-.053 1.21.053 2.368.158 3.578.263 4.841.316 9.63-.21 14.471-.631 2.315-.211 4.683-.421 6.998-.526 2.105-.105 4.21.105 6.262.21 2.368.105 4.683.105 6.998.158 2.368.053 4.736-.263 7.052-.053 4.683.369 9.366.632 13.997.684 4.841.053 9.734-.052 14.575 0 1 0 2.053.105 3.052 0 1.053-.105 2.105-.263 3.21-.315 2.315-.053 4.578-.106 6.946.052 2.315.158 4.525-.21 6.841-.052 2.42.157 4.788.368 7.209.263 2.315-.106 4.683 0 6.946-.263 2.315-.263 4.578-.053 6.84.105 2.263.158 4.578.263 6.893.315 1.158.053 2.316-.052 3.421 0 1.157.053 2.315.158 3.525.053 2.158-.158 4.42-.21 6.525-.684 1.053-.21 2.105-.473 3.157-.421.79 0 1.474 0 2.105-.42 1.526-1.053 2.21-2.999 3.21-4.472 1.21-1.841 2.263-3.787 3.21-5.786.894-1.946 1.789-3.893 2.947-5.734 1.105-1.736 1.578-3.998 2.21-5.944.263-.894.368-1.683.473-2.577.263-.737.421-1.473-.052-1.999z" fill="#B73E55"/><path d="M308.967 267.038c.842-1.736 1.894-3.261 2.578-5.102.948-2.472 1.263-5.103 1.684-7.733.211-1.525.158-3.577.79-4.997.578-1.368 1.789-1.473 3.104-1.368 1.579.158 3.157.684 4.736.947-.579 2.104-.737 4.314-.684 6.47.053 2.578.316 5.524 1.684 7.786.579.999 1.315 1.841 2.21 2.682.21.263.473.474.737.684a24.513 24.513 0 0 0 3.052 2.157c1.841 1.104 4.104 2.262 6.367 2.262.473 1.473-1.421 2.788-2.631 3.209-1.947.683-4.105.157-6.104-.158-3.105-.474-7.63-1.105-9.735-3.893-.421.421-1 .737-1.789.842-1.684.315-3.631.105-5.052-.842-1.21-.684-1.526-1.736-.947-2.946zM379.11 268.776c-2.736-.632-5.367-.895-7.841-2.315-2.052-1.21-4.683-2.893-6.103-4.787-.632-.841-1.474-1.683-1.895-2.63-.473-1.157-.473-2.577-.736-3.787-.474-2.157-.421-4.472-1.316-6.471-.158-.368-.684-.631-1.052-.631-1.263.053-2.474.684-3.736.789h-.842c-.211 7.417-1.053 14.782-1.316 22.199.053.105.105.263.158.368.789 1.315 3.631.894 4.894.736 1.841-.21 2.104-1.893 2.052-3.629.316.158.684.263 1.052.473 1.579.789 3.421 1.21 5.157 1.631 1.631.421 3.473.368 5.157.578 1.999.211 3.999-.157 6.051-.105 1.368 0 1.684-2.104.316-2.419z" fill="#7F053D"/><path d="M296.812 156.1c-.474-1.367-1.737-2.472-2.736-3.524a8.86 8.86 0 0 0-.316-.684c-1.316-1.946-5.262-.053-7.104-.316h-.263c-.316-.473-1.263-.368-1.263.369 0 1.735.316 3.314.737 4.944.21.737.316 1.578.631 2.367-.052.053-.052.106-.052.158-.369 1.578-.158 3.209.21 4.84.053.368.105.683.263.999.263.894.526 1.736.79 2.578.263.841 1.578.526 1.368-.369a31.43 31.43 0 0 1-.632-3.051c0-.42 0-.841.053-1.262.158-1.841.105-.368.158.053.105.841.263 1.63.526 2.472.473 1.525.789 3.577 2.157 4.629.421.316 1.105-.105 1.053-.579-.106-1.157-.684-2.262-.947-3.419-.106-.473-.264-.999-.316-1.525-.053-.211-.421-1.999.052-1.315 1.158 1.735.369 4.208 2.368 5.47.474.316 1-.105 1.053-.578.105-1.736-2.368-4.577-.947-5.997.157.421.157.947.263 1.315.158.684.368 1.42.631 2.051.316.684.684 1.736 1.421 2.052.526.21 1-.053 1.052-.579.211-1.63-1.157-3.471-1.42-5.049-.158-.895-.211-2.052-.264-2.999 0-.999.264-.368.737.211.316.368.895.21 1.105-.158.316-.894-.105-2.315-.368-3.104zM392.265 151.313c-.474-1.368-1.737-2.472-2.736-3.524a8.86 8.86 0 0 0-.316-.684c-1.316-1.946-5.262-.053-7.104-.316h-.263c-.316-.473-1.263-.368-1.263.368 0 1.736.316 3.314.737 4.945.21.737.316 1.578.631 2.367-.052.053-.052.105-.052.158-.369 1.578-.158 3.209.21 4.84.053.368.105.683.263.999.263.894.526 1.736.79 2.577.263.842 1.578.527 1.368-.368a31.43 31.43 0 0 1-.632-3.051c0-.421 0-.841.053-1.262.158-1.841.105-.368.158.052.105.842.263 1.631.526 2.473.474 1.525.789 3.577 2.157 4.629.421.315 1.105-.105 1.053-.579-.105-1.157-.684-2.262-.947-3.419-.106-.473-.263-.999-.316-1.525-.053-.211-.421-1.999.053-1.316 1.157 1.736.368 4.209 2.367 5.471.474.316 1-.105 1.053-.578.105-1.736-2.368-4.577-.947-5.997.158.421.158.947.263 1.315.158.684.368 1.42.631 2.051.316.684.684 1.736 1.421 2.052.526.21 1-.053 1.052-.579.211-1.63-1.157-3.472-1.42-5.05-.158-.894-.211-2.051-.263-2.998 0-.999.263-.368.736.21.316.369.895.211 1.105-.157.369-.842-.105-2.262-.368-3.104z" fill="#FFD1C7"/><path d="M388.529 141.056c.421-2.367.316-4.892.631-7.312.421-2.683.684-5.418.527-8.153-.264-4.892-2-10.153-4.368-14.414-1.263-2.314-2.21-5.207-2.947-7.732-.736-2.525-1.631-4.734-2.841-7.101-2.526-4.735-4.631-9.732-7.525-14.256-2.684-4.26-5.157-8.627-8.419-12.52-1.473-1.788-3.42-3.629-5.262-5.05-2-1.525-5.104-1.472-7.525-1.472-2.21 0-4.473-.105-6.683-.21-2.841-1.105-5.735-1.947-8.787-2.736-4.631-1.21-9.788-2.21-14.629-1.473-1.789.263-3.525 1-4.63 2.525-.789 1.052-1.316 2.262-2.21 3.314a36.518 36.518 0 0 0-2.158 2.84c-.105.159-.158.264-.263.422-.579.473-1.157 1-1.684 1.525-.789.79-1.368 1.683-2.052 2.578-.684.841-1.578 1.578-2.052 2.577 0 .053 0 .053-.053.105-.684.842-1.315 1.684-2.052 2.525-1.473 1.631-2.631 3.367-3.841 5.208-1.263 2.052-2.315 4.156-3.368 6.312-.947 1.947-2.262 3.682-3.42 5.576-2.315 3.84-3.841 7.943-4.946 12.257-1.211 4.734-2.421 9.416-3.421 14.202-1.736 8.68-2.789 17.359-1.526 26.197.421 3.05 1.737 6.943 5.473 6.733.631-.053 1.263-.158 1.947-.158.421 0 .684.052 1.052-.053.526-.105 1-.315 1.316-.841.894-1.421.526-3.735.789-5.313.368-2.42 1.158-4.787 1.368-7.207.105-1.315.368-2.63.684-3.945.895 3.63 2.473 7.259 4.052 10.468 2.315 4.734 5.367 9.468 9.156 13.151 1.789 1.735 4.104 2.577 6.367 3.577 2.631 1.104 5.262 1.946 8.103 2.367 5.683.841 11.787 1.21 17.47.473 5.525-.684 10.84-2.525 15.786-5.05 4.684-2.367 9.735-5.155 13.313-9.1 3.473-3.84 5.946-8.469 7.683-13.361.263-.737.526-1.526.789-2.262.105.579.158 1.157.263 1.736.105 0 .211.105.211.21.789 2.999.947 6.523 2.157 9.416a.588.588 0 0 0 0 .421c.526 1.21 1.631 2.998 2.842 3.577 1.315.631 2.262-1.21 2.999-2.052.526-.578 1.21-1.315 1.736-2.051.316-.105.632-.421.527-.842.105-.263.21-.526.21-.789.053-.526-.158-1.104-.368-1.63-.053-1.105-.211-2.157-.421-3.209z" fill="#B73E54"/><path d="M378.163 137.005h-.158c.052-.052.052-.157.105-.21v-.105c.053-.106.105-.158.105-.263v-.053c-.105-1.683-.421-4.313-.473-4.576-.211-1.894-.632-3.788-.948-5.629-.42-2.42-.789-4.839-1.262-7.259 1.789.053 3.525.105 5.314.316 2.105.21 4.21.368 6.262.736.579.105 1.21.263 1.789.421a12.875 12.875 0 0 0-.421-1.526c-.737-.157-1.421-.315-2.157-.42-3.263-.526-6.736-.947-9.998-.947-.368 0-.684 0-1.052-.053-.264-1.21-.527-2.367-.79-3.524-.947-3.525-1.684-7.154-2.683-10.679 2.683.106 5.314.263 8.05.789.948.158 1.895.263 2.842.369-.105-.316-.211-.632-.263-.947a6.693 6.693 0 0 1-.158-.526c-.684-.053-1.316-.105-2-.263-2.946-.526-5.84-.894-8.84-.947-.579-1.999-1.105-4.05-1.631-6.102-.474-1.841-1.631-3.787-1.736-5.734-.053-.894-1.474-.894-1.421 0 .105 1.736.947 3.21 1.421 4.84.578 2.051 1.052 4.103 1.631 6.154.052.263.158.526.21.789-3.367-.105-6.735-.473-10.103-.841a116.795 116.795 0 0 1-.158-18.2c.053-.895-1.368-.895-1.42 0-.421 5.996-.316 12.045.157 18.042-2.315-.211-4.63-.421-6.945-.474-6.578-.105-13.156-.368-19.733-.21-.579 0-1.105.053-1.684.053 0-3.735.053-7.47.105-11.205.053-2.577.053-5.207 0-7.785 1.579-.158 3.158-.316 4.789-.42 6.788-.474 13.628-.527 20.469-.422 3.368.053 6.735.21 10.103.632 1.789.21 3.578.526 5.367.684.316.052.684.052 1 .052-.316-.473-.631-1-.894-1.473-1.526-.158-3.052-.368-4.631-.578-3.157-.421-6.367-.632-9.577-.684-6.998-.158-14.102-.105-21.101.368-1.841.105-3.63.263-5.472.473-.053-1.999-.053-3.997-.105-5.996 0-.895-1.421-.895-1.421 0 0 2.051.053 4.103.105 6.154-1.157.105-2.262.263-3.42.368-2.263.263-4.473.421-6.735.526.21-4.997.315-10.047.631-15.044.053-.894-1.368-.894-1.421 0-.316 5.05-.421 10.1-.631 15.15-.947.052-1.842.105-2.789.157-2.315.158-4.631.369-6.946.632v-6.891c0-.895-1.421-.895-1.421 0v7.206c-.315.053-.631.053-.947.105-1.789.264-3.578.369-5.367.421-.316.474-.579.947-.842 1.473 1.789 0 3.525-.105 5.262-.315.631-.106 1.21-.158 1.842-.21v12.15c0 2.21.052 4.472.052 6.681-1 .105-2.052.21-3.052.263.158-.736.421-1.42.684-2.104.316-.684.474-1.21.632-1.947.105-.526.263-1.525.736-1.788.79-.42.106-1.63-.684-1.21-.736.421-1.105 1.42-1.315 2.21-.421 1.683-1.052 3.261-1.526 4.944-.579.053-1.158.105-1.684.158-2.526.21-5.051.21-7.525.21.316-1.578.684-3.156 1.211-4.629.894-2.525 1.999-4.944 2.578-7.627a.742.742 0 0 0-.368-.79c-.474.843-1 1.632-1.526 2.42-.684 2.105-1.579 4.104-2.263 6.26-.474 1.421-.789 2.946-1.105 4.419h-1.789c-.158.473-.316.947-.421 1.42h1.947c-.158.894-.368 1.789-.526 2.63-1.053 4.787-1.842 9.837-2.105 14.782-.316 0-.684 0-1 .052-.789 0-1.684.106-2.526.106-.105.473-.158.946-.263 1.42 1.211.105 2.526-.053 3.736-.105-.21 5.523-.579 11.151-.473 16.675v.947c-1.579.157-3.21.21-4.789.157 0 .474.053.947.053 1.421 1.578.052 3.157-.053 4.683-.211-.053 1.999-.105 3.945.158 5.892.21 1.683.316 3.366.474 5.05 0 .157.052.315.052.42h.526c.263 0 .527-.052.79-.105-.158-.894-.106-1.841-.211-2.63-.158-1.42-.368-2.893-.421-4.313-.052-1.526-.052-2.999-.052-4.524 1.21-.158 2.367-.263 3.578-.421.842-.105 1.684-.158 2.526-.263.052-.473.157-.947.157-1.42v-.053c-.21 0-.421.053-.631.053-1.842.21-3.736.473-5.63.684v-2.157c0-2.893.263-5.734.263-8.574 0-2.262.105-4.524.21-6.839 2.631-.105 5.21-.368 7.841-.684a26.468 26.468 0 0 0-.474 2.841c-.263 2.051-.895 3.893-.895 5.997-.052 1.946-.368 3.787-.368 5.733 0 .158.053.263.105.369.106-.421.158-.842.263-1.263.158.526.264 1.052.421 1.631.316-.053.632-.263.632-.684 0-4.997.842-9.889 1.947-14.729.473-.052.894-.105 1.368-.21a95.1 95.1 0 0 0 5.578-.947c-.316 4.682-.579 9.311-.842 13.992-.053 1.263-.053 2.525-.105 3.788-2.632.315-5.21.631-7.841.894.158.473.316.894.526 1.368a387.89 387.89 0 0 0 7.315-.842c-.106 1.315-.264 2.63-.264 3.998v4.208c0 .789-.052 1.578 0 2.367.053.631.264 1.263.264 1.894.052.894 1.42.894 1.42 0-.052-1.421-.21-2.841-.21-4.314v-4.208c0-1.42.21-2.788.263-4.156 3.262-.368 6.577-.683 9.84-.946v1.157c0 .894 1.421.894 1.421 0v-1.263c3.894-.263 7.787-.526 11.629-.841 7.945-.684 15.786-1.157 23.731-.316 2.895.316 5.789.842 8.683 1.105.158 2.209.526 4.471.631 6.68.053 1.158.158 2.262.263 3.42.053 1.157.421 2.261.474 3.419.052.894 1.473.894 1.421 0-.106-2.262-.632-4.524-.737-6.839-.105-2.209-.421-4.418-.579-6.575a22.61 22.61 0 0 0 1.894.053c3.947 0 7.893-.684 11.84-.789h.579v.157c0 .106.052.158.158.263 0-.052.052-.105.052-.157 0-.106.053-.158.053-.263h.263c.158-.526.316-.947.474-1.421zm-80.72-16.096a694.58 694.58 0 0 1-3.894.473c-1.42.158-2.789.211-4.209.263v-.105c.315-5.102 1.157-10.205 2.262-15.202.158-.684.316-1.368.421-2.052 3.105-.052 6.157-.21 9.209-.368-.263 1.473-.474 2.999-.842 4.471-.474 1.947-1 3.946-1.368 5.945-.369 2.209-1.053 4.418-1.579 6.575zm8.525-5.05a88.167 88.167 0 0 0-.211 3.735c-2.21.421-4.473.789-6.735 1.157.368-1.578.736-3.209 1.157-4.787.79-3.261 1.737-6.628 2.21-9.942.106-.736.211-1.42.369-2.156 1.105-.106 2.262-.158 3.368-.263.052 4.05.105 8.153-.158 12.256zm9.945 21.778c-2.579.21-5.104.42-7.683.736-.736.105-1.42.158-2.157.263 0-1.21 0-2.42.105-3.63.263-4.734.579-9.468.895-14.255 2.946-.526 5.841-1.052 8.787-1.525 0 .631 0 1.262.053 1.893v16.518zm.421-34.56c-.263 2.945-.211 5.838-.421 8.784-.158 1.999-.158 3.945-.105 5.944-2.842.421-5.683.895-8.577 1.473h-.106c.053-1.157.158-2.314.211-3.472.263-4.103.21-8.258.158-12.414.315-.052.684-.052.999-.105 2.631-.263 5.21-.526 7.841-.736v.526zm.684-18.622c-.316 5.576-.158 11.152-.526 16.728-1.737.158-3.421.316-5.157.526-1.263.105-2.526.263-3.789.368-.052-2.21-.052-4.366-.052-6.523V83.14c2.315-.263 4.63-.526 6.945-.684l2.737-.157c-.105.736-.158 1.42-.158 2.156zm51.305 18.674c.684.053 1.315.053 1.999.105.947 3.472 1.737 6.997 2.631 10.468a77.25 77.25 0 0 1 .895 3.735c-2.842-.21-5.631-.631-8.419-.947-1.474-.158-3-.315-4.473-.421l-.474-5.365c-.263-2.788-.316-5.629-.526-8.416 2.789.21 5.578.631 8.367.841zm-38.308.737v-2.262c6.209-.316 12.524-.158 18.733.052 3.262.106 6.472.211 9.735.474.21 2.84.263 5.681.526 8.521.158 1.736.368 3.472.473 5.261a178.458 178.458 0 0 0-5.367-.263c-4.104-.106-8.209.263-12.313.526-3.894.263-7.735.315-11.629.42h-.368c0-4.26.21-8.469.21-12.729zm-11.629-19.41c.053-.737.053-1.474.105-2.21 2.052-.105 4.052-.263 6.104-.474l4.105-.473c.052 2.42.052 4.84 0 7.312l-.158 11.625c-3.578.158-7.157.473-10.735.789.474-5.523.263-11.047.579-16.57zm-1.052 27.405c.21-2.946.105-5.891.421-8.784 0-.211.052-.421.052-.632 3.631-.315 7.209-.631 10.84-.789v1.526c0 4.471-.211 8.942-.211 13.466-3.736.158-7.472.474-11.155 1-.105-1.947-.053-3.84.053-5.787zm38.149 24.987c-7.682-1.105-15.417-1-23.1-.369-4.999.421-9.998.684-15.049 1 0-5.471 0-10.889-.053-16.36 0-.684 0-1.42-.053-2.104a82.067 82.067 0 0 1 6.157-.684c1.684-.105 3.315-.21 4.999-.263v6.05c.052 2.419.21 4.839-.211 7.259-.157.894 1.211 1.262 1.369.368.841-4.366.263-9.1.263-13.571v-.211c1.736-.052 3.473-.052 5.156-.105 3.894-.105 7.788-.473 11.682-.684 4.315-.263 8.63-.158 12.945.105.052.789.052 1.631.052 2.42 0 2.841.369 5.786.737 8.627.421 2.998.737 6.102.895 9.153-1.947-.105-3.842-.368-5.789-.631zm12.524.736a35.927 35.927 0 0 1-5.315.053c-.158-2.736-.368-5.576-.736-8.312-.421-3.103-.948-6.417-.895-9.573 0-.789 0-1.526-.053-2.315 2.631.211 5.315.474 7.946.737 1.737.157 3.42.578 5.157.683.473 2.368.842 4.735 1.21 7.049.368 2.315.895 4.524 1.105 6.891.158 1.368.263 2.788.474 4.208-2.947.053-5.894.316-8.893.579z" fill="#7F053D"/><path d="M388.739 139.372c.053-.473.053-.947.106-1.42a35.507 35.507 0 0 1-4-.368c-1.736-.263-3.367-.527-5.104-.579h-1.21c.053.473.105.947.158 1.368 1.526 0 3.052.105 4.578.368 1.841.263 3.631.526 5.472.631z" fill="#7F053D"/><path d="M369.112 153.575c-.105-1.21-.526-2.315-1.789-2.893-.158-.053-.316-.158-.526-.211-.106-.368-.211-.789-.316-1.157-.737-2.893-1.421-5.839-2.158-8.732-1.473-5.734-3.052-11.415-3.946-17.254-.842-5.575-1.21-11.204-1.842-16.727-.21-1.841-.473-3.63-.631-5.418.263-3.683 0-7.312.526-10.994.526-3.525.895-7.154 1.631-10.626.369-1.683.684-3.261.842-4.997.105-1.526.474-3.051.263-4.63-.21-1.84-1.684-2.524-3.42-1.893-.842.316-1.21.947-1.421 1.788-.368 1.631-.579 3.314-.894 4.945-.684 3.735-.79 7.47-1.789 11.152-.421 1.683-1 3.367-1.211 5.102-.158 1.158-.368 4.156-1.789 4.472-.842.21-1.947-.053-2.789-.053h-2.683c-2.052-.053-4.052-.263-6.104-.316-4.262-.105-8.525.263-12.734.421-1.842.053-3.631.316-5.473.526-2.526.263-3.21-1.42-3.736-3.524-.947-3.682-1.947-7.364-2.473-11.1-.579-4.523-1.158-9.047-1.894-13.57-.053-.316-.369-.474-.684-.527-2.842-.368-3.315 3.735-3.315 5.681.052 4.366 1.052 8.417 1.946 12.677l.632 3.157v.105c-.211 1.21-.316 2.262-.263 3.524.052 2.84.316 5.681.473 8.522.211 2.998-.052 5.997.158 8.995.053.999.158 1.946.211 2.946-.106.158-.158.368-.158.631 0 .526.052.999.052 1.473-.315 2.84-.578 5.628-.841 8.469-.369 4.261-.895 8.469-1.474 12.677-.263 2.104-.421 3.998-1.052 6.049-.632 2.052-.947 4.156-1.368 6.26-.211 1.052-.421 2.104-.737 3.104-.263.894-1.052 1.525-1.21 2.419-.158.947.368 2.157.894 3.209.369 3.945.526 7.996 1.684 11.731 1.263 4.05 2.947 7.732 4.894 11.467.21.368.368.736.579 1.157.21 1.736.421 3.419.736 5.155v.053c-.158 2.63-.894 5.313-.526 7.943.211 1.525.947 2.788 1.473 4.156.106.315.211.683.316 1.052.053.42.105.789.105 1.209.053.947.053 1.894.106 2.788v.211a33.88 33.88 0 0 0-.211 3.998c0 1.683-.526 3.261-.631 4.944-.106 1.578-.106 3.314.052 4.892.106 1.158.684 1.999 1.053 2.999 0 .947 0 1.946-.053 2.893-.316.947-.842 1.894-1.052 2.63a72.08 72.08 0 0 0-1.263 4.839c-.369 1.578-.579 3.157-.895 4.735-.263 1.262-.526 2.472-.263 3.787.369 1.841.474 2.841-.21 4.629-.526 1.368-.947 2.788-1.421 4.156-.737 2.314.684 2.63 2.631 3.524.579.263 1.158.421 1.736.579.579.21 1.211.368 1.737.473.789.158 2.21.474 3.42.421a5.57 5.57 0 0 0 1 .21c2.105.158 3.21-1.63 3.947-3.366 1.21-2.893 1.683-5.787 2.21-8.89a60.73 60.73 0 0 1 .947-4.471c.368-1.526 1-2.525 1.789-3.84 3.052-4.892 2.736-11.678.842-16.886-.316-.894-.632-1.736-.842-2.577.21-1.841.368-3.735.579-5.576l.315-2.999c.421-1.683.474-3.366.527-5.049.052-1.631.263-3.314.052-4.998-.105-.789-.368-1.578-.526-2.367-.263-1.262.158-2.051.631-3.103.632-1.368.737-3.104 1.053-4.524.368-1.789.526-3.577.684-5.366.158-.42.316-.789.474-1.209.263-.421.473-.842.736-1.21.526-.842 1.158-1.631 1.789-2.367.632-.106 1.211-.211 1.789-.264l4.42-.631c.053 0 .158 0 .211-.052.158.157.316.263.474.42.841.684 1.736 1.263 2.525 1.947.263.315.527.578.842.894 1 1.263 1.526 2.735 2.315 4.156.053 2.577-.368 5.05-.263 7.627.106 2.42.895 4.945 2.421 6.838 1.158 1.421 2.157 3.314 1.789 5.208-.368 1.789-.842 3.472-1.105 5.26-.421 3.051-.947 6.47-.421 9.521.263 1.421 1.052 2.788 1.579 4.156.631 1.578-.211 3.367-.474 5.05-.474 2.998-.474 6.207.158 9.153.316 1.525.894 2.998 1.158 4.576.21 1.157-.158 2.315-.158 3.472-.053.263-.053.473-.106.736-.368 3.157-1.052 6.208-1.157 9.364-.053 2.209 1 3.208 3.104 3.577 1.895.315 4.841-.737 6.104-2.21 1.105-1.262 1.684-3.103 2.053-4.892.789-1.525 1.262-3.261 1.631-4.787.736-3.103 1.736-6.259 1.789-9.415 0-1.263-.105-2.525-.368-3.788-.211-1.052-.421-1.946-.158-2.998.263-.894.631-1.789.842-2.735.736-3.262 1.315-6.576 1.631-9.942.158-1.684.421-3.314.21-4.998-.158-1.578-.631-3.051-1.052-4.576-.053-.263-.158-.579-.211-.842.158-2.472.211-4.944.211-7.417.105-.789.158-1.63.263-2.419.368-3.577.579-6.839.158-10.416-.158-1.157-.526-2.209-.947-3.209a32.116 32.116 0 0 0-.316-3.156l-.158-.947a7.35 7.35 0 0 0 .474-1.525c.21-.631.473-1.21.631-1.683.526-1.684 1.105-3.314 1.368-5.05.263-1.631.369-3.262.579-4.892.526-3.788 0-7.207-.947-10.626zm-59.882-2.578c.053-.157.053-.368.105-.526 0 .158.053.316.106.421-.053 0-.106.053-.158.053 0 .052-.053.052-.053.052z" fill="#09366D"/><path d="M352.484 16.913c-1.052-2.893-2.684-5.523-4.052-8.259-1.315-2.577-2.947-4.997-5.314-6.838-2.421-1.894-4.578-2.157-7.525-1.473-2.736.579-5.894 1.578-7.946 3.577-1.947 1.894-2.947 4.577-3.736 7.102-.947 2.893-1 5.996-1.473 8.995-.421 2.525-.947 4.997-1.263 7.47-.105.21-.211.42-.316.683-.052.263 0 .473.158.631.053.79 1.316.79 1.421-.105 0-.21.052-.42.052-.631 1-1.052 4.157-1 5.368-1.052 1.578-.105 3.157-.21 4.683-.421.158.21.368.316.684.263 1.526-.316 3.42-.316 4.999-.42 1.736-.106 3.368-.159 5.051-.527 3.263-.736 6.736-.368 10.104-.316l.105.106c.052 0 .052.052.105.052.421.263 1.105-.052 1.052-.578-.315-2.893-1.21-5.576-2.157-8.259z" fill="#FFC748"/><path d="M359.114 43.32c-.789-5.313-2.526-10.153-6.262-14.045-1.21-1.315-2.525-2.42-3.894-3.42-3.525.316-7.103.526-10.629.737-3.631.21-7.209.316-10.84.368-.578.79-1.105 1.683-1.578 2.525a1.215 1.215 0 0 0-.105.842c-.421.63-.79 1.21-1.158 1.736-1.473 2.104-2.894 4.208-3.684 6.733a25.315 25.315 0 0 0-1.052 7.154c-.053 5.47 1.052 11.467 3.578 16.36 1.263 2.419 3 4.102 5.104 5.838.842.684 1.632 1.578 2.526 2.21 1.053.788 2.368 1.21 3.631 1.577 4.841 1.42 10.366 1.368 14.839-1.052 2.105-1.157 3.946-2.156 5.315-4.208 1.368-2.051 2.42-4.366 2.894-6.786 1.052-5.628 2.157-10.94 1.315-16.57z" fill="#FFD1C7"/><path d="M334.698 38.323c-.263-.737-1.368-.895-1.841-.316 0 0 0 .053-.053.053-.579.315-.947 1.052-.684 1.683.368.789 1.158 1.21 1.999.841.948-.473.842-1.472.579-2.261zM348.327 39.27c.053-.79-.526-1.684-1.421-1.369-.842.316-1.631 1.789-.736 2.473.421.315.947.368 1.368.105.421-.105.736-.631.789-1.21zM342.433 43.056c0-.946-.052-1.84-.105-2.787 0-.264-.105-.632-.158-1 0-.21.053-.42.053-.631 0-.053.053-.105.053-.158v-.368c0-.105-.053-.158-.106-.21-.105-.211-.473-.316-.578 0-.211.473-.211 1.051-.158 1.683-.053.894-.053 1.84-.053 2.682 0 .842 0 1.684-.053 2.525 0 .316.158 1.841-.052 2.104-.053.053-.105.106-.211.158-.315-.158-1.105 0-1.473-.052-.158 0-.263-.053-.316-.106 0 0-.052 0-.052-.052h-.053s-.053 0-.053-.053c-.421-.315-.21-1.052-.21-1.84v-.58-.105c0-1.946.053-3.84.053-5.786 0-.105-.053-.158-.106-.21 0-.21-.158-.369-.421-.316h-.052c-.158.053-.263.21-.263.316-.053 2.787-.106 5.575.052 8.363.053.526 0 .842.526 1.052.579.21 2.158.158 2.789.158h.106a.342.342 0 0 0 .473-.105c.842-1.21.368-3.472.368-4.682z" fill="#00203F"/><path d="M370.533 23.752c-2.473-.21-5.104.053-7.578.158-2.736.105-5.525.21-8.261.473-5.525.474-11.103 1.053-16.628 1.316-5.525.262-11.103.42-16.628.736-2.736.158-5.42.579-8.103.736-1.684.106-4.263.053-5.683 1.158-.264.21-.264.736 0 1 .684.578 1.683.63 2.473.946 1.105.473 2.262.894 3.473 1.105 2.736.473 5.209-.263 7.893-.526.052.052.158.105.21.157.947-1.315 2.052-2.525 3.368-3.419.158-.105.316-.052.421.053 4.683-.21 9.419-.316 14.102-.631a653.59 653.59 0 0 0 10.103-.842c.053-.053.105-.053.158-.053 1.789-.42 3.105 1.315 4.21 2.736.789.21 1.789-.106 2.578-.21 1.315-.106 2.578-.316 3.841-.474 2.105-.263 4.315-.579 6.367-1.105 1.421-.368 3.421-.894 4.315-2.157.316-.578-.158-1.157-.631-1.157z" fill="#FFEAB3"/><path d="M366.586 54.787c1.474-1.157 2.684-2.682 2.421-4.681-.263-2-1.631-3.946-2.894-5.471-.947-1.105-2.158-1.894-2.894-3.104-.632-1.052-1.263-2.156-2.052-3.103-1.474-1.947-3.579-3.262-5.262-5.05-1.105-2.472-2.526-4.734-4.578-6.523-.369-.315-.737-.631-1.158-.894-4.21.526-8.472.684-12.682.842-5.209.157-10.366.789-15.522 1.683-.158.158-.316.316-.474.526-.368.473-1.21 1.262-1.526 2.051-1.21 1-2.21 2.262-3.21 3.367-1.526 1.683-3.42 3.05-5.157 4.524-1.368 1.105-2.841 2.367-3.104 4.208-.211 1.42.421 2.788 1.947 2.946 1.42.158 2.736-.579 4.051-1.052.527-.158 1.579-.631 2.158-.526 1.158.315-.632 1.999-1.158 2.472-1.841 1.683-3.525 3.63-5.051 5.576-.947 1.21-3.105 2.63-2.105 4.418.789 1.42 2.789 1.368 4.209 1.21 1.316-.157 2.526-.683 3.684-1.21a29.85 29.85 0 0 1-1.158 1.579c-1.105 1.315-2.157 2.472-3.052 3.945-.947 1.578-3.315 4.418-.842 5.996 1.579 1 3.894-.105 5.368-.736 1.315-.526 2.578-1.157 3.841-1.736.631-.315 1.21-.578 1.736-1.052.474-.42.948-.947 1.474-1.368.052.369.105.79.105 1.105.158 1.157.053 2.315.263 3.42.421 2.314 1.263 4.365 2.105 6.522.526 1.315.947 3.156 2.684 3.104 1.42-.053 2.315-1.42 3.367-2.21.474.684.421 1.841.526 2.578.211 1.578.737 3.05 1.158 4.576.368 1.368.842 2.683 1.263 4.05.368 1.158.368 2.368.842 3.472.316.842.842 1.473 1.684 1.789.473.158 1.105.105 1.578.263.895.368.737 1.157.79 1.999.21 2.314.684 5.26 2.157 7.154 2.842 3.577 8.419 2.735 12.155 1.578 2.105-.631 3.894-.894 5.631-2.42 1.21-1.052 1.21-2.262.315-3.472-.999-1.367-2.683-2.104-3.63-3.471-1.421-2.105-.053-4.419 1.21-6.155 1.158-1.578 2.789-3.209 3.157-5.155.368-1.894-1-3.103-2.578-3.787-.369-.158-.684-.263-1.053-.421-.789-.316-.947-.21-.842-.894.053-.474.579-1.052.79-1.42.263-.527.526-1.105.684-1.631.526-1.684.421-3.525-.211-5.208a20.42 20.42 0 0 1 1.789-.105c1.263-.053 2.526.158 3.736.158 2.631-.053 4.736-1.368 3.21-4.156-1.157-2.104-2.736-4.208-3.631-6.418-.578-1.736 2.526-2.788 3.736-3.682zm-10.155-10.836c-.316 1.052-1.158 1.946-1.526 3.051-.263.736-.263 1.42-.105 2.157.105.684.526 1.473.368 2.104-.158.631-.737 1.21-1.105 1.736-.474.736-.737 1.578-.684 2.472-.737-.842-1.526-1.683-2.315-2.367-1.316-1.157-3.052-1.841-4.578-2.578-1.421-.683-3.105-1.21-4.631-1.42-3.105-.473-6.946-.263-9.682 1.578a24.598 24.598 0 0 0-2.736 2.052c-.579.42-1.105.894-1.632 1.42-.736.684-1.473 1.368-2.157 2.104-.053-.789-.105-1.525-.158-2.262-.105-4.26-.053-8.521.053-12.782.105-2.999.631-5.944.631-8.89v-.631c.211-.263.474-.474.737-.684 1.578-1.21.316-.053.368.736.158 1.473 2.315.895 3.157.579 1.105-.368 2.105-.947 3.105-1.473.526-.263 1.105-.526 1.631-.842-.105.526.158 1.263.474 1.578.473.526 1.21.58 1.841.474 1.158-.263 2.316-1.052 3.316-1.63 1.42-.79 2.841-1.526 4.367-2.052 2.157-.737 4.894.052 5.999 2.156.684 1.263.579 2.367.631 3.788 0 .789.053 1.525.789 1.999.737.473 1.737.42 2.316-.053.368 1.052.684 2.104.947 3.156.368 1.473 1 3.104.579 4.524z" fill="#FF766B"/><path d="M353.536 25.014h-.21c-.105 0-.211 0-.316.053-3.946.526-7.893 1-11.892 1.42.105-.42-.105-.894-.631-.842-2.684.316-5.42.579-8.104.737-2.684.21-5.367.684-8.051.684-.579 0-.789.526-.631.947-1.211.105-2.368.262-3.315.736-.842.368-.106 1.578.684 1.21.842-.421 2.052-.368 2.999-.474 1.473-.157 2.894-.263 4.368-.42 2.841-.263 5.735-.632 8.577-.842 5.525-.368 10.997-1.21 16.47-1.894.894-.052 1-1.315.052-1.315z" fill="#FFEAB3"/><path d="M344.749 51.788s-.053 0 0 0a.758.758 0 0 0-.368.106c-1.211.526-2.631.789-3.894.894-.948.053-2.894.158-3.579-.579-.631-.684-1.631.316-.999 1 .894 1 3.052 1.052 4.262 1 1.684-.106 3.368-.422 4.894-1.105.684-.316.368-1.368-.316-1.316z" fill="#00203F"/><path d="M348.59 124.118c-1.368-6.576-2.052-13.256-2.789-19.884-.105-.842-1.315-.894-1.42-.211-.053 0-.053-.052-.106-.052 0 0-.052 0-.052-.053-.106-.263-.421-.421-.79-.315-.105.052-.21.052-.315.105-.474.105-.948 0-1.474.052-.789.053-1.578.211-2.315.263-1.421.158-2.841.263-4.262.526-1 .158-2 .421-3 .421-.736 0-1.526-.105-2.262-.052-1.316.105-2.526.368-3.842.526-.052 0-.157-.053-.21 0h-.158c-.105-.053-.21-.053-.316-.106-.21-.105-.473-.157-.736-.105-.316.053-.632.263-.684.579-.211.052-.369.263-.421.473-.211 1.105-.106 2.315.052 3.472.158 1.368.158 2.683.158 4.05-.052 1.421.053 2.736.211 4.156.105 1.368-.053 2.683.052 4.05.158 1.789.053 3.84 1.105 5.366 1.632 2.262 3.158 4.366 5.052 6.417 1.631 1.736 3.104 4.103 5.104 5.524.474.368.947.368 1.473.052.79-.473 1.632-1.315 2.316-1.999 1.841-1.788 3.525-3.471 5.051-5.575.737-1.052 1.684-1.947 2.421-3.051.736-1.105 1.526-2.525 2.42-3.525.316-.368.106-.894-.263-1.104zm-22.206-17.254c1.158-.158 2.316-.316 3.526-.421 1.684-.158 3.262-.053 4.894-.368 1.736-.316 3.42-.474 5.156-.631 1.053-.106 2.368 0 3.421-.263.105.052.21.105.315.105a.404.404 0 0 0 .211.105c.053 0 .053.053.105.053-.316.526-.368 1.157-.526 1.788-.368 1.473-.947 3.051-1.736 4.366-.421.737-.264.631-1.211.789-.631.105-1.368 0-1.999.053-1.632.052-3.21.21-4.841.526-.79.158-1.579.263-2.316.421-.578.105-1.947.736-2.473.42.105.053-.421-1.104-.368-.999-.316-.579-.789-1.052-1.105-1.631-.579-1.052-1.105-2.156-1.474-3.314a3.551 3.551 0 0 0-.263-.683c.369-.053.579-.106.684-.316zm17.733 22.461c-1.526 1.789-2.683 3.788-4.367 5.418-.789.737-1.631 1.578-2.473 2.262-.053.053-.842.631-.895.631-.315.106-.368.211-.368.211 0-.053-.105-.105-.316-.211-.894-.473-1.736-1.683-2.368-2.419-.789-.894-1.526-1.841-2.368-2.683-1.578-1.736-2.788-3.63-4.209-5.471-.895-1.104-1.053-1.736-1.105-3.156-.053-1.052-.263-2.051-.263-3.156 0-2.262-.263-4.471-.211-6.681 0-.473 0-3.997-.21-5.891.263.736.526 1.631.684 1.999.684 1.262 1.578 2.577 2.105 3.84.368.842.894 1.21 1.841 1.157 1.421-.052 3-.684 4.368-.947 1.999-.421 4.051-.526 6.104-.578.894 0 2.052.21 2.683-.526.263-.316.316-.737.474-1.105.316-.684.684-1.368.947-2.052.263-.683.526-1.472.737-2.156.631 5.681 1.263 11.362 2.473 16.99-1.21 1.473-2.105 3.157-3.263 4.524zM325.332 249.47c-.368-.631-.947-.736-1.631-.946-1.158-.369-2.263-.737-3.421-1.105-2.368-.737-4.788-.947-7.051-1.789-1.157-.42-2.578-.999-3.262.369-.316.631-.263 1.367-.263 1.999-.053.578-.158 1.262-.106 1.946a7.825 7.825 0 0 0-.315 1.315c-.105 2.051 3.262 1.999 4.63 2.157 1.263.157 2.526.052 3.789.105a11.58 11.58 0 0 0 1.736.631c.79.21 1.79.368 2.579.158.631.263 1.157.736 1.842.947.368.105.789-.105.841-.474.369-1.63 1.579-3.84.632-5.313zM361.745 249.312c-.894.263-1.789.631-2.684.842-1.105.263-2.21.158-3.315.21-1.473.053-2.683.421-4.051.789-.211-.052-.474 0-.632.158.053.421.053.947 0 1.473h.053c.421 1.21.579 2.788 1.736 3.472 1.263.736 3.526.21 4.894.105 2.263-.158 6.841.316 7.156-2.841.263-2.367-.421-4.997-3.157-4.208z" fill="#1079AD"/><path d="M301.285 154.68c-.211-.263-.632-.263-.948-.368-.631-.158-1.21-.474-1.841-.737-1.105-.526-2.158-.946-3.368-1.104-.158 0-.316.21-.263.315.263 1 .526 1.368 1.315 2.104.421.369.579.369.421.842-.105.368-.789.894-1.052 1.105-1.21 1.052-2.578 1.315-4.157 1.315-1.316 0-2.684 0-3.947-.368.106-.053.158-.106.264-.106.263-.105.105-.526-.106-.473-.421 0-.736.105-1.052.368l-.105.105c0 .053-.053.053-.053.106-.631.368-1.263.736-1.894.999-.684.263-1.316.526-2 .842-1.473.789-2.999 1.63-4.525 2.367-3.842 1.788-7.841 3.314-11.735 4.997-3.893 1.683-7.682 3.419-11.681 4.84-1.789.631-3.368 1.42-5.104 2.261-.632.316-1.263.526-1.895.737-1-.053-1.894-.211-2.894-.211-1.157 0-2.315-.052-3.473.053-.684.053-1.684 0-2.315.316-.947.526-.789 2.419-.789 3.314 0 .157.105.263.263.263 0 .105.105.21.263.263.526.052 1 .263 1.526.263.631.052 1.315-.053 1.947-.053h3.999c.789 0 1.999.21 2.684-.263.42-.263.368-.473.368-.789.052-.421.105-.894.105-1.368.263-.105.474-.21.737-.368 1.947-.789 3.788-1.736 5.788-2.367 3.578-1.157 7.104-2.683 10.524-4.208 2-.894 3.947-1.841 5.999-2.63 1.789-.684 3.473-1.684 5.262-2.367.894-.316 1.842-.526 2.683-.895.79-.368 1.474-.789 2.316-1.052 1.631-.526 3.21-1.367 4.841-1.893.579.42 1.21.631 1.999.631 1.211 0 2.526.052 3.736-.211 1.105-.21 2.053-.736 3.052-1.157 1.053-.421 2.105-.999 3-1.736.631-.578 2.999-2.683 2.105-3.682z" fill="#04213E"/></svg>